<svg xmlns="http://www.w3.org/2000/svg" width="16" height="16" fill="none" viewBox="0 0 16 16"><path fill="#EBECF0" d="M3.5 5.914a1 1 0 0 1 .293-.707l3.414-3.414a1 1 0 0 1 .707-.293H11.5a1 1 0 0 1 1 1v11a1 1 0 0 1-1 1h-7a1 1 0 0 1-1-1z"/><path fill="#6C707E" fill-rule="evenodd" d="M7.914 1a1.5 1.5 0 0 0-1.06.44L3.439 4.853A1.5 1.5 0 0 0 3 5.914V13.5A1.5 1.5 0 0 0 4.5 15H11a2 2 0 0 0 2-2V2.5A1.5 1.5 0 0 0 11.5 1zM12 2.5a.5.5 0 0 0-.5-.5H8v2.5A1.5 1.5 0 0 1 6.5 6H4v7.5a.5.5 0 0 0 .5.5H11a1 1 0 0 0 1-1zm-5 .207L4.707 5H6.5a.5.5 0 0 0 .5-.5z" clip-rule="evenodd"/></svg>