<?xml version="1.0" encoding="UTF-8"?>
<svg xmlns="http://www.w3.org/2000/svg" xmlns:xlink="http://www.w3.org/1999/xlink" width="16px" height="16px" viewBox="0 0 16 16" version="1.1">
<g id="surface1">
<path style=" stroke:none;fill-rule:nonzero;fill:rgb(0%,0%,0%);fill-opacity:1;" d="M 14.21875 5.25 C 14.1875 5.214844 14.152344 5.183594 14.117188 5.152344 C 14.085938 5.121094 14.050781 5.085938 14.019531 5.058594 C 13.984375 5.027344 13.953125 4.992188 13.917969 4.960938 C 13.882812 4.929688 13.851562 4.894531 13.816406 4.863281 C 13.785156 4.832031 13.753906 4.796875 13.71875 4.769531 C 13.683594 4.738281 13.652344 4.703125 13.617188 4.671875 C 13.585938 4.640625 13.550781 4.605469 13.519531 4.574219 C 14.511719 5.515625 15.078125 6.792969 15.101562 8.136719 C 15.101562 11.332031 11.734375 13.929688 7.601562 13.929688 C 5.285156 13.929688 3.210938 13.113281 1.835938 11.835938 L 1.933594 11.933594 L 2.035156 12.027344 L 2.132812 12.125 L 2.234375 12.222656 L 2.335938 12.316406 L 2.433594 12.414062 L 2.535156 12.511719 C 3.910156 13.84375 6.027344 14.703125 8.398438 14.703125 C 12.535156 14.703125 15.898438 12.101562 15.898438 8.917969 C 15.898438 7.554688 15.292969 6.265625 14.21875 5.25 Z M 14.21875 5.25 "/>
<path style=" stroke:none;fill-rule:nonzero;fill:rgb(98.431373%,94.117647%,87.450981%);fill-opacity:1;" d="M 14.601562 8.136719 C 14.601562 11.070312 11.464844 13.445312 7.601562 13.445312 C 3.734375 13.445312 0.601562 11.070312 0.601562 8.136719 C 0.601562 6.316406 1.800781 4.710938 3.644531 3.757812 C 5.488281 2.804688 6.636719 1.828125 7.601562 1.828125 C 8.5625 1.828125 9.386719 2.625 11.554688 3.757812 C 13.398438 4.710938 14.601562 6.316406 14.601562 8.136719 Z M 14.601562 8.136719 "/>
<path style=" stroke:none;fill-rule:nonzero;fill:rgb(96.470588%,87.058824%,80.784315%);fill-opacity:1;" d="M 14.601562 8.136719 C 14.597656 7.757812 14.546875 7.382812 14.441406 7.019531 C 13.894531 13.441406 5.769531 13.75 2.574219 11.832031 C 4.011719 12.902344 5.785156 13.472656 7.601562 13.445312 C 11.460938 13.445312 14.601562 11.066406 14.601562 8.136719 Z M 14.601562 8.136719 "/>
<path style=" stroke:none;fill-rule:nonzero;fill:rgb(100%,99.607843%,98.823529%);fill-opacity:1;" d="M 4.90625 3.402344 C 5.800781 2.886719 6.988281 1.917969 8.15625 1.914062 C 7.976562 1.859375 7.789062 1.828125 7.601562 1.828125 C 7.117188 1.828125 6.601562 2.070312 5.949219 2.433594 C 5.722656 2.558594 5.488281 2.699219 5.242188 2.847656 C 4.777344 3.125 4.242188 3.4375 3.640625 3.753906 C 1.738281 4.746094 0.601562 6.382812 0.601562 8.136719 L 0.601562 8.363281 C 1.8125 4.234375 4.015625 3.921875 4.90625 3.402344 Z M 4.90625 3.402344 "/>
<path style=" stroke:none;fill-rule:nonzero;fill:rgb(80.000001%,74.509805%,65.490198%);fill-opacity:1;" d="M 7.023438 2.316406 C 7.027344 2.773438 6.925781 3.222656 6.734375 3.636719 C 6.535156 4.054688 6.25 4.425781 5.898438 4.722656 C 5.84375 4.769531 5.886719 4.863281 5.957031 4.835938 C 6.632812 4.582031 7.542969 3.828125 7.15625 2.300781 C 7.140625 2.214844 7.023438 2.238281 7.023438 2.316406 Z M 7.476562 2.316406 C 7.722656 2.699219 7.878906 3.132812 7.933594 3.582031 C 7.988281 4.03125 7.945312 4.484375 7.800781 4.914062 C 7.777344 4.980469 7.863281 5.039062 7.910156 4.984375 C 8.347656 4.445312 8.730469 3.371094 7.585938 2.214844 C 7.527344 2.164062 7.4375 2.242188 7.476562 2.308594 Z M 8.03125 2.285156 C 8.410156 2.542969 8.730469 2.878906 8.96875 3.273438 C 9.207031 3.664062 9.351562 4.097656 9.398438 4.550781 C 9.398438 4.566406 9.402344 4.585938 9.414062 4.597656 C 9.433594 4.625 9.472656 4.628906 9.503906 4.613281 C 9.515625 4.601562 9.527344 4.589844 9.53125 4.574219 C 9.714844 3.898438 9.609375 2.753906 8.097656 2.15625 C 8.015625 2.125 7.964844 2.230469 8.03125 2.277344 Z M 4.339844 4.289062 C 4.792969 4.160156 5.214844 3.9375 5.578125 3.636719 C 5.933594 3.339844 6.226562 2.972656 6.433594 2.554688 C 6.46875 2.484375 6.582031 2.511719 6.5625 2.589844 C 6.21875 4.132812 5.058594 4.453125 4.339844 4.410156 C 4.265625 4.414062 4.265625 4.3125 4.339844 4.289062 Z M 4.339844 4.289062 "/>
<path style=" stroke:none;fill-rule:nonzero;fill:rgb(0%,0%,0%);fill-opacity:1;" d="M 7.601562 13.929688 C 3.464844 13.929688 0.101562 11.332031 0.101562 8.136719 C 0.101562 6.207031 1.335938 4.40625 3.40625 3.328125 C 4.007812 3.019531 4.519531 2.710938 4.976562 2.4375 C 5.230469 2.289062 5.46875 2.148438 5.699219 2.015625 C 6.398438 1.613281 7 1.347656 7.601562 1.347656 C 8.199219 1.347656 8.722656 1.578125 9.378906 1.953125 C 9.578125 2.0625 9.78125 2.179688 9.992188 2.3125 C 10.492188 2.609375 11.054688 2.945312 11.792969 3.328125 C 13.863281 4.40625 15.101562 6.203125 15.101562 8.136719 C 15.101562 11.332031 11.734375 13.929688 7.601562 13.929688 Z M 7.601562 1.828125 C 7.117188 1.828125 6.601562 2.070312 5.949219 2.433594 C 5.722656 2.558594 5.488281 2.699219 5.242188 2.847656 C 4.777344 3.125 4.242188 3.4375 3.640625 3.753906 C 1.738281 4.746094 0.601562 6.382812 0.601562 8.136719 C 0.601562 11.066406 3.738281 13.449219 7.601562 13.449219 C 11.460938 13.449219 14.601562 11.066406 14.601562 8.136719 C 14.601562 6.382812 13.460938 4.746094 11.554688 3.757812 C 10.800781 3.371094 10.210938 3.007812 9.730469 2.722656 C 9.515625 2.59375 9.3125 2.476562 9.132812 2.367188 C 8.527344 2.019531 8.085938 1.828125 7.601562 1.828125 Z M 7.601562 1.828125 "/>
<path style=" stroke:none;fill-rule:nonzero;fill:rgb(71.764708%,7.843138%,13.333334%);fill-opacity:1;" d="M 9.011719 9.542969 C 8.921875 9.898438 8.714844 10.214844 8.425781 10.453125 C 8.207031 10.65625 7.925781 10.78125 7.625 10.8125 C 7.316406 10.789062 7.027344 10.660156 6.800781 10.453125 C 6.511719 10.214844 6.3125 9.898438 6.222656 9.542969 C 6.222656 9.523438 6.222656 9.5 6.230469 9.480469 C 6.238281 9.460938 6.25 9.441406 6.265625 9.425781 C 6.296875 9.394531 6.339844 9.382812 6.382812 9.386719 L 8.851562 9.386719 C 8.894531 9.382812 8.9375 9.398438 8.96875 9.429688 C 9 9.457031 9.015625 9.5 9.011719 9.542969 Z M 9.011719 9.542969 "/>
<path style=" stroke:none;fill-rule:nonzero;fill:rgb(100%,38.039216%,39.215687%);fill-opacity:1;" d="M 6.800781 10.464844 C 7.027344 10.675781 7.316406 10.804688 7.625 10.832031 C 7.929688 10.804688 8.21875 10.675781 8.445312 10.464844 C 8.515625 10.402344 8.585938 10.332031 8.644531 10.261719 C 8.523438 10.125 8.371094 10.015625 8.203125 9.941406 C 8.035156 9.863281 7.851562 9.820312 7.664062 9.816406 C 7.46875 9.820312 7.273438 9.871094 7.097656 9.964844 C 6.925781 10.054688 6.777344 10.1875 6.664062 10.351562 C 6.710938 10.390625 6.753906 10.429688 6.800781 10.464844 Z M 6.800781 10.464844 "/>
<path style=" stroke:none;fill-rule:nonzero;fill:rgb(0%,0%,0%);fill-opacity:1;" d="M 6.832031 10.3125 C 6.933594 10.191406 7.058594 10.089844 7.203125 10.019531 C 7.347656 9.953125 7.507812 9.914062 7.671875 9.914062 C 7.96875 9.921875 8.25 10.035156 8.46875 10.238281 C 8.515625 10.191406 8.558594 10.140625 8.601562 10.089844 C 8.347656 9.855469 8.011719 9.722656 7.660156 9.71875 C 7.472656 9.71875 7.289062 9.761719 7.117188 9.839844 C 6.949219 9.917969 6.800781 10.03125 6.683594 10.171875 C 6.730469 10.222656 6.78125 10.269531 6.832031 10.3125 Z M 6.832031 10.3125 "/>
<path style=" stroke:none;fill-rule:nonzero;fill:rgb(0%,0%,0%);fill-opacity:1;" d="M 7.617188 10.929688 C 7.285156 10.902344 6.972656 10.765625 6.726562 10.542969 C 6.417969 10.292969 6.199219 9.949219 6.105469 9.570312 C 6.097656 9.535156 6.101562 9.5 6.109375 9.46875 C 6.117188 9.433594 6.136719 9.402344 6.15625 9.378906 C 6.1875 9.34375 6.21875 9.320312 6.257812 9.300781 C 6.296875 9.285156 6.339844 9.277344 6.382812 9.277344 L 8.851562 9.277344 C 8.894531 9.277344 8.9375 9.285156 8.976562 9.304688 C 9.015625 9.320312 9.050781 9.34375 9.078125 9.378906 C 9.101562 9.402344 9.117188 9.433594 9.125 9.46875 C 9.132812 9.5 9.136719 9.535156 9.128906 9.570312 C 9.035156 9.949219 8.816406 10.292969 8.507812 10.542969 C 8.261719 10.765625 7.949219 10.902344 7.617188 10.929688 Z M 6.382812 9.503906 C 6.351562 9.503906 6.34375 9.515625 6.34375 9.519531 C 6.425781 9.847656 6.617188 10.144531 6.886719 10.363281 C 7.089844 10.550781 7.34375 10.667969 7.617188 10.699219 C 7.890625 10.671875 8.148438 10.554688 8.347656 10.367188 C 8.617188 10.148438 8.808594 9.851562 8.890625 9.523438 Z M 6.382812 9.503906 "/>
<path style=" stroke:none;fill-rule:nonzero;fill:rgb(99.607843%,73.333335%,81.568629%);fill-opacity:1;" d="M 10.644531 9.664062 C 11.289062 9.664062 11.8125 9.367188 11.8125 9 C 11.8125 8.632812 11.289062 8.335938 10.644531 8.335938 C 9.996094 8.335938 9.472656 8.632812 9.472656 9 C 9.472656 9.367188 9.996094 9.664062 10.644531 9.664062 Z M 4.589844 9.664062 C 5.234375 9.664062 5.761719 9.367188 5.761719 9 C 5.761719 8.632812 5.234375 8.335938 4.589844 8.335938 C 3.945312 8.335938 3.421875 8.632812 3.421875 9 C 3.421875 9.367188 3.945312 9.664062 4.589844 9.664062 Z M 4.589844 9.664062 "/>
<path style=" stroke:none;fill-rule:nonzero;fill:rgb(0%,0%,0%);fill-opacity:1;" d="M 5.140625 8.734375 C 5.355469 8.734375 5.570312 8.671875 5.753906 8.554688 C 5.933594 8.441406 6.074219 8.273438 6.160156 8.078125 C 6.242188 7.886719 6.265625 7.671875 6.222656 7.464844 C 6.179688 7.257812 6.074219 7.066406 5.921875 6.917969 C 5.765625 6.769531 5.570312 6.667969 5.359375 6.628906 C 5.144531 6.585938 4.921875 6.609375 4.722656 6.6875 C 4.519531 6.765625 4.347656 6.902344 4.226562 7.078125 C 4.105469 7.253906 4.039062 7.460938 4.039062 7.671875 C 4.039062 7.953125 4.15625 8.222656 4.363281 8.421875 C 4.570312 8.621094 4.847656 8.730469 5.140625 8.734375 Z M 10.09375 8.734375 C 10.3125 8.734375 10.523438 8.671875 10.707031 8.558594 C 10.890625 8.445312 11.03125 8.277344 11.117188 8.082031 C 11.203125 7.890625 11.226562 7.675781 11.183594 7.46875 C 11.140625 7.257812 11.035156 7.070312 10.882812 6.921875 C 10.726562 6.769531 10.53125 6.667969 10.320312 6.628906 C 10.105469 6.585938 9.882812 6.609375 9.683594 6.6875 C 9.480469 6.765625 9.308594 6.902344 9.1875 7.078125 C 9.066406 7.253906 9 7.457031 9 7.671875 C 9 7.949219 9.113281 8.21875 9.320312 8.417969 C 9.523438 8.617188 9.804688 8.730469 10.09375 8.734375 Z M 10.09375 8.734375 "/>
<path style=" stroke:none;fill-rule:nonzero;fill:rgb(100%,100%,100%);fill-opacity:1;" d="M 4.800781 7.738281 C 4.882812 7.738281 4.960938 7.714844 5.03125 7.671875 C 5.097656 7.628906 5.152344 7.566406 5.183594 7.492188 C 5.214844 7.421875 5.222656 7.339844 5.207031 7.261719 C 5.191406 7.183594 5.152344 7.113281 5.09375 7.058594 C 5.035156 7 4.964844 6.960938 4.882812 6.945312 C 4.804688 6.929688 4.71875 6.9375 4.644531 6.96875 C 4.570312 7 4.503906 7.050781 4.457031 7.117188 C 4.414062 7.179688 4.386719 7.257812 4.386719 7.339844 C 4.386719 7.445312 4.429688 7.546875 4.507812 7.621094 C 4.585938 7.695312 4.691406 7.738281 4.800781 7.738281 Z M 9.753906 7.738281 C 9.835938 7.738281 9.914062 7.714844 9.984375 7.671875 C 10.054688 7.628906 10.105469 7.566406 10.136719 7.492188 C 10.167969 7.421875 10.179688 7.339844 10.164062 7.261719 C 10.144531 7.183594 10.105469 7.113281 10.050781 7.058594 C 9.992188 7 9.917969 6.960938 9.835938 6.945312 C 9.757812 6.929688 9.675781 6.9375 9.597656 6.96875 C 9.523438 7 9.457031 7.050781 9.410156 7.117188 C 9.367188 7.179688 9.34375 7.257812 9.34375 7.339844 C 9.34375 7.445312 9.382812 7.542969 9.460938 7.617188 C 9.539062 7.695312 9.640625 7.734375 9.75 7.738281 Z M 9.753906 7.738281 "/>
</g>
</svg>
