<svg id="Livello_1" data-name="Livello 1" xmlns="http://www.w3.org/2000/svg" width="16" height="16" viewBox="0 0 16 16"><path d="M5.06,13.5a2.74,2.74,0,0,1-1.35-.32,2.08,2.08,0,0,1-.86-.95,3.34,3.34,0,0,1-.3-1.49V5.26a3.49,3.49,0,0,1,.3-1.49,2.15,2.15,0,0,1,.86-1A2.62,2.62,0,0,1,5.06,2.5a2.81,2.81,0,0,1,1.36.32,2.18,2.18,0,0,1,.85,1,3.34,3.34,0,0,1,.3,1.49v.46H6.14V5.26A2.18,2.18,0,0,0,6,4.5,1.11,1.11,0,0,0,5.65,4a1,1,0,0,0-.59-.16,1,1,0,0,0-.8.36A1.62,1.62,0,0,0,4,5.2v5.48a1.62,1.62,0,0,0,.28,1,1,1,0,0,0,.8.36,1,1,0,0,0,.8-.36,1.62,1.62,0,0,0,.28-1v-.46H7.57v.46a3.34,3.34,0,0,1-.3,1.49,2.12,2.12,0,0,1-.85.95A2.81,2.81,0,0,1,5.06,13.5Z" style="fill:#2563eb"/><path d="M11,13.5a3,3,0,0,1-1.35-.26,1.93,1.93,0,0,1-.85-.75,2.39,2.39,0,0,1-.29-1.2V10.4H10v.79a.85.85,0,0,0,.28.69,1.12,1.12,0,0,0,.79.25,1,1,0,0,0,.75-.27,1,1,0,0,0,.27-.77V9.59a1.32,1.32,0,0,0-.23-.84.79.79,0,0,0-.65-.3h-.75V7.12h.75a.6.6,0,0,0,.51-.24,1,1,0,0,0,.19-.67V4.73a.84.84,0,0,0-.22-.64A.88.88,0,0,0,11,3.87a.89.89,0,0,0-.66.23.87.87,0,0,0-.23.64V5.6H8.71V4.71a2.13,2.13,0,0,1,.62-1.64,2.49,2.49,0,0,1,1.76-.57,2.13,2.13,0,0,1,1.61.58,2.21,2.21,0,0,1,.57,1.63V6.23A1.52,1.52,0,0,1,13,7a2.56,2.56,0,0,1-.69.74,1.7,1.7,0,0,1,.82.7,2,2,0,0,1,.3,1.13V11.1a2.34,2.34,0,0,1-.64,1.76A2.46,2.46,0,0,1,11,13.5Z" style="fill:#7c3aed"/></svg>