<svg id="Livello_1" data-name="Livello 1" xmlns="http://www.w3.org/2000/svg" width="16" height="16" viewBox="0 0 16 16"><path d="M4.81,14a3,3,0,0,1-1.5-.35,2.34,2.34,0,0,1-1-1A3.66,3.66,0,0,1,2,11V5a3.64,3.64,0,0,1,.33-1.63,2.39,2.39,0,0,1,1-1A3,3,0,0,1,4.81,2a3,3,0,0,1,1.5.35,2.32,2.32,0,0,1,1,1A3.67,3.67,0,0,1,7.59,5v.72H5.79V5a1.84,1.84,0,0,0-.11-.67,1,1,0,0,0-.33-.43,1,1,0,0,0-.54-.15.88.88,0,0,0-.73.32A1.43,1.43,0,0,0,3.82,5v6a1.42,1.42,0,0,0,.26.92.88.88,0,0,0,.73.32.86.86,0,0,0,.73-.33A1.46,1.46,0,0,0,5.79,11v-.72h1.8V11a3.94,3.94,0,0,1-.33,1.63,2.32,2.32,0,0,1-1,1A3,3,0,0,1,4.81,14Z" style="fill:#2563eb"/><path d="M11.28,14a3.49,3.49,0,0,1-1.48-.29,2.21,2.21,0,0,1-1-.86,2.71,2.71,0,0,1-.32-1.38v-.85H10.3v.77a.83.83,0,0,0,.26.65,1.05,1.05,0,0,0,.72.22A.89.89,0,0,0,12,12a1,1,0,0,0,.25-.7V9.66A1.16,1.16,0,0,0,12,8.89a.77.77,0,0,0-.63-.28h-.74V6.91h.74a.59.59,0,0,0,.49-.23A1.06,1.06,0,0,0,12,6V4.51a.77.77,0,0,0-.19-.57.69.69,0,0,0-.54-.2.71.71,0,0,0-.79.77v.88H8.71V4.5a2.46,2.46,0,0,1,.7-1.85A2.7,2.7,0,0,1,11.33,2a2.44,2.44,0,0,1,1.81.65,2.52,2.52,0,0,1,.64,1.85V6.11A1.52,1.52,0,0,1,13.5,7a2.73,2.73,0,0,1-.78.77,1.91,1.91,0,0,1,.93.71A2,2,0,0,1,14,9.61v1.72a2.68,2.68,0,0,1-.71,2A2.72,2.72,0,0,1,11.28,14Z" style="fill:#3381ff"/></svg>