<svg id="Livello_1" data-name="Livello 1" xmlns="http://www.w3.org/2000/svg" width="16" height="16" viewBox="0 0 16 16"><path d="M14.42,16a2.06,2.06,0,0,1-.9-.18,1.18,1.18,0,0,1-.56-.54,2.13,2.13,0,0,1-.22-.93H13.8a.89.89,0,0,0,.16.49.5.5,0,0,0,.39.16.57.57,0,0,0,.42-.16.54.54,0,0,0,.16-.42V14a.69.69,0,0,0-.14-.45.46.46,0,0,0-.37-.16H14v-1h.42a.36.36,0,0,0,.3-.14.62.62,0,0,0,.11-.39v-.36a.52.52,0,0,0-.12-.36A.4.4,0,0,0,14.4,11a.39.39,0,0,0-.35.17.94.94,0,0,0-.16.52H12.84a1.9,1.9,0,0,1,.44-1.28A1.52,1.52,0,0,1,14.43,10a1.52,1.52,0,0,1,1.09.38,1.39,1.39,0,0,1,.38,1v.42a1.06,1.06,0,0,1-.18.6,1.21,1.21,0,0,1-.52.42,1,1,0,0,1,.59.4A1.29,1.29,0,0,1,16,14v.45a1.46,1.46,0,0,1-.42,1.12A1.62,1.62,0,0,1,14.42,16Z" style="fill:#7c3aed"/><path d="M10.38,16a2,2,0,0,1-1-.23,1.47,1.47,0,0,1-.63-.65,2.2,2.2,0,0,1-.22-1V11.92a2.22,2.22,0,0,1,.22-1,1.47,1.47,0,0,1,.63-.65,2,2,0,0,1,1-.23,2,2,0,0,1,.94.22,1.61,1.61,0,0,1,.6.66A2.81,2.81,0,0,1,12.2,12H11.14a1.65,1.65,0,0,0-.13-.51.77.77,0,0,0-.26-.32.62.62,0,0,0-.37-.1.69.69,0,0,0-.56.23.92.92,0,0,0-.21.65v2.17a.91.91,0,0,0,.21.64.69.69,0,0,0,.56.23.62.62,0,0,0,.52-.23,1.29,1.29,0,0,0,.24-.7H12.2a3,3,0,0,1-.28,1.09,1.61,1.61,0,0,1-.6.66A2,2,0,0,1,10.38,16Z" style="fill:#2563eb"/><path d="M6.5,13V3h3V9.13A3.17,3.17,0,0,1,10.38,9h.12V7h3V9h1V7a1,1,0,0,0-1-1h-3V3a1,1,0,0,0-1-1h-3a1,1,0,0,0-1,1V4h-3a1,1,0,0,0-1,1v8a1,1,0,0,0,1,1H7.55V13Zm-1,0h-3V5h3Z" style="fill:#6c707e"/><path d="M7.88,10.43a2.45,2.45,0,0,1,1-1.08,2.76,2.76,0,0,1,.59-.22V3h-3V13h1V11.92A3.24,3.24,0,0,1,7.88,10.43Z" style="fill:#ebecf0"/><rect x="10.5" y="7" width="3" height="2" style="fill:#ebecf0"/><rect x="2.5" y="5" width="3" height="8" style="fill:#ebecf0"/></svg>