<svg xmlns="http://www.w3.org/2000/svg" width="16" height="16" fill="none" viewBox="0 0 16 16"><path fill="#FFF4EB" d="M1 2a1 1 0 0 1 1-1h4a1 1 0 0 1 1 1v4a1 1 0 0 1-1 1H2a1 1 0 0 1-1-1zm7 0a1 1 0 0 1 1-1h4a1 1 0 0 1 1 1v4a1 1 0 0 1-1 1H9a1 1 0 0 1-1-1zm0 7a1 1 0 0 1 1-1h1.764A3 3 0 0 0 10 10v.268A2 2 0 0 0 9 12v2a1 1 0 0 1-1-1zM1 9a1 1 0 0 1 1-1h4a1 1 0 0 1 1 1v4a1 1 0 0 1-1 1H2a1 1 0 0 1-1-1z"/><path fill="#E66D17" fill-rule="evenodd" d="M2 1a1 1 0 0 0-1 1v4a1 1 0 0 0 1 1h4a1 1 0 0 0 1-1V2a1 1 0 0 0-1-1zm4 1H2v4h4zm3-1a1 1 0 0 0-1 1v4a1 1 0 0 0 1 1h4a1 1 0 0 0 1-1V2a1 1 0 0 0-1-1zm4 1H9v4h4z" clip-rule="evenodd"/><path fill="#E66D17" d="M9 8a1 1 0 0 0-1 1v4a1 1 0 0 0 1 1V9h1.17a3 3 0 0 1 .594-1z"/><path fill="#E66D17" fill-rule="evenodd" d="M2 8a1 1 0 0 0-1 1v4a1 1 0 0 0 1 1h4a1 1 0 0 0 1-1V9a1 1 0 0 0-1-1zm4 1H2v4h4z" clip-rule="evenodd"/><path fill="#EBECF0" d="M11 12h4v3h-4z"/><path fill="#6C707E" fill-rule="evenodd" d="M15 11v-1a2 2 0 1 0-4 0v1a1 1 0 0 0-1 1v3a1 1 0 0 0 1 1h4a1 1 0 0 0 1-1v-3a1 1 0 0 0-1-1m-3-1a1 1 0 1 1 2 0v1h-2zm-1 5v-3h4v3z" clip-rule="evenodd"/></svg>