<svg xmlns="http://www.w3.org/2000/svg" width="17" height="17" fill="none" viewBox="0 0 17 17"><rect width="5" height="5" x="1.5" y="1.5" fill="#FFF4EB" stroke="#E66D17" rx=".5"/><rect width="5" height="5" x="8.5" y="1.5" fill="#FFF4EB" stroke="#E66D17" rx=".5"/><rect width="5" height="5" x="1.5" y="8.5" fill="#FFF4EB" stroke="#E66D17" rx=".5"/><path fill="#fff" d="M17 12a5 5 0 1 1-5-5h5z"/><path fill="#6C707E" fill-rule="evenodd" d="M12 16a4 4 0 1 0 0-8 4 4 0 0 0 0 8m2.464-2.288A3 3 0 0 1 12 15c-1.02 0-1.92-.508-2.462-1.286h2.499c.027 0 .045-.009.045-.034v-.851c0-.025-.018-.03-.046-.03h-.7v-.54h.758c.069 0 .369.02.465.406.01.043.026.12.043.206.031.156.07.344.098.423.02.062.068.153.132.234.08.1.184.186.291.186l1.234-.002zM9.766 9.998a3 3 0 0 1 5.13 2.787h-.663a.4.4 0 0 1-.184-.04.3.3 0 0 1-.176-.231c-.067-.38-.216-.502-.444-.682l-.016-.013c.294-.188.6-.465.6-.836 0-.401-.273-.654-.459-.777a1.3 1.3 0 0 0-.629-.208zM9.1 12.77a3 3 0 0 1 .113-1.881h.808v1.88zm2.237-1.307v-.555h.988c.051 0 .36.06.36.292 0 .194-.237.263-.432.263z" clip-rule="evenodd"/></svg>