<svg xmlns="http://www.w3.org/2000/svg" width="16" height="16" viewBox="0 0 16 16"><path fill="#252525" d="M7.956 15a6.9 6.9 0 0 1-5.018-1.892A6.6 6.6 0 0 1 1 8.19a7.05 7.05 0 0 1 2.021-5.132A6.94 6.94 0 0 1 8.16 1a7.05 7.05 0 0 1 4.848 1.728A5.89 5.89 0 0 1 15 7.321a5.38 5.38 0 0 1-1.122 3.479A3 3 0 0 1 12 11.924v2.266l-.635.249A9.4 9.4 0 0 1 7.956 15"/><path fill="#c674d3" d="M11 12.391a6.95 6.95 0 0 1-2.854.543 4.75 4.75 0 0 1-3.532-1.321A4.72 4.72 0 0 1 3.3 8.139 5.1 5.1 0 0 1 4.665 4.5 4.5 4.5 0 0 1 8.1 3.051a4.6 4.6 0 0 1 3.382 1.2 4.16 4.16 0 0 1 1.22 3.1 4.25 4.25 0 0 1-.452 2.091 1.05 1.05 0 0 1-1.085.614c-.5 0-.855-.286-.75-1.395 0-.044.114-1.66.342-3.66H9.55c-.058 1-.1 1-.109 1h-.022c-.078 0-.25-.487-.517-.658a1.67 1.67 0 0 0-.91-.278 2.65 2.65 0 0 0-2.159.982 3.77 3.77 0 0 0-.819 2.488 2.6 2.6 0 0 0 .6 1.8 2.2 2.2 0 0 0 1.572.884c1.02 0 1.7-.217 2.054-1.217h.036c.005 1 .566 1.216 1.682 1.216a2.47 2.47 0 0 0 2.145-.937 4.54 4.54 0 0 0 .9-2.9 4.96 4.96 0 0 0-1.66-3.881A6.06 6.06 0 0 0 8.16 2.014a5.94 5.94 0 0 0-4.427 1.752A6.05 6.05 0 0 0 2 8.193a5.62 5.62 0 0 0 1.638 4.2A5.9 5.9 0 0 0 7.956 14 8.4 8.4 0 0 0 11 13.508ZM8.815 9.3a1.43 1.43 0 0 1-1.267.757 1.07 1.07 0 0 1-.885-.417 1.77 1.77 0 0 1-.331-1.14 3.1 3.1 0 0 1 .491-1.793 1.5 1.5 0 0 1 1.293-.72q1.164 0 1.165 1.306A3.8 3.8 0 0 1 8.815 9.3"/></svg>