<svg xmlns="http://www.w3.org/2000/svg" width="16" height="16" viewBox="0 0 16 16"><path fill="#f4f4f4" d="M0 1h14v12H0z"/><path fill="#323232" d="M1 2h12v10H1z"/><path fill="#323232" d="M1 2h12v3H1z"/><path fill="#ebebeb" d="M2 5h11v7H2z"/><path fill="#f4f4f4" d="M16 8h-.783l.172-2h-5.01l-.07.819-.265-.188A4.3 4.3 0 0 0 7.726 6C3.9 6 3.043 8.436 3 10.521 3.043 12.564 3.9 15 7.726 15a4.7 4.7 0 0 0 1.916-.4l-.035.4h5.01l.172-2h.872L16 9.048Z"/><path fill="#388a34" d="M5.664 10.5c.02 2.2 1.744 2.222 2.024 2.222a3.04 3.04 0 0 0 1.781-.581v1.412A3.4 3.4 0 0 1 7.73 14c-1.06 0-3.65-.03-3.723-3.5C4.08 7.03 6.67 7 7.73 7a3.4 3.4 0 0 1 1.739.447v1.412a3.04 3.04 0 0 0-1.781-.581c-.28 0-2.004.022-2.024 2.222m8.379-.5-.086 1h.872l-.086 1h-.872l-.171 2h-1l.171-2h-1l-.171 2h-1l.171-2H10l.086-1h.871l.086-1h-.872l.086-1h.872l.171-2h1l-.171 2h1l.171-2h1l-.171 2H15l-.086 1Zm-1 0h-1l-.086 1h1Z"/></svg>