<svg xmlns="http://www.w3.org/2000/svg" width="16" height="16" fill="none" viewBox="0 0 16 16"><path fill="#264DE4" d="m7.992 15-5.051-1.4L1.815 1h12.37l-1.127 12.599z"/><path fill="#2965F1" d="m12.093 12.796.963-10.766H8v11.9z"/><path fill="#EBEBEB" d="m4.396 6.704.139 1.545H8V6.704zm-.279-3.128.14 1.545H8V3.576zM8 10.717l-.007.002-1.724-.465-.11-1.232H4.603l.217 2.426 3.172.879.007-.002z"/><path fill="#fff" d="m11.594 6.704.28-3.128h-3.88V5.12h2.183l-.141 1.583H7.995v1.545h1.907l-.18 2.004-1.727.466v1.607l3.174-.878.024-.26.364-4.07z"/></svg>