<svg xmlns="http://www.w3.org/2000/svg" width="16" height="16" viewBox="0 0 16 16"><g fill="none" fill-rule="evenodd" opacity=".9"><path fill="#70B4F4" d="m4.326 4.326-.952-.953.006 6.898c.005.746-.047 1.365.332 1.743l.51.512 8.262-.042z"/><path fill="#7CC1FD" d="M4.222 12.526 6.696 15h5.834l-.046-2.516z"/><path fill="#305699" d="m3.38 10.272-.007-6.898-2.182 4.552c-.255.543-.363 1.207.382 1.95l2.138 2.139c-.379-.38-.327-.998-.332-1.744m9.147-6.048-.511-.512c-.38-.38-.997-.327-1.743-.332l-6.898-.006.953.954 8.157 8.158L15 12.53V6.697z"/><path fill="#7CC1FD" d="m10.27 3.379-6.896-.006 4.55-2.182c.545-.255 1.209-.362 1.953.382l2.138 2.138c-.38-.38-.998-.327-1.744-.332"/></g></svg>