<svg xmlns="http://www.w3.org/2000/svg" width="16" height="16" fill="none" viewBox="0 0 16 16"><path fill="#CED0D6" fill-rule="evenodd" d="M2 3.392h.017c.062-.388.29-.717.58-.979.34-.307.804-.561 1.335-.764C4.998 1.24 6.436 1 8 1s3.002.241 4.068.649c.53.203.995.457 1.335.764.29.262.518.591.58.98H14v9.125h-.003c-.027.444-.274.816-.594 1.106-.34.307-.804.561-1.335.764-1.066.408-2.504.65-4.068.65s-3.002-.242-4.068-.65c-.53-.203-.995-.457-1.335-.764-.32-.29-.566-.662-.594-1.106H2zm1 .21c0-.1.051-.251.268-.447.216-.195.557-.395 1.021-.572C5.215 2.229 6.526 2 8 2s2.786.23 3.71.583c.465.177.806.377 1.022.572.217.196.268.348.268.448s-.051.252-.268.447c-.216.196-.557.395-1.021.573-.925.353-2.237.582-3.711.582s-2.785-.229-3.71-.582c-.465-.178-.806-.377-1.022-.573C3.05 3.855 3 3.703 3 3.603m0 2.945v-1.45c.272.175.588.328.932.46 1.066.407 2.504.648 4.068.648s3.002-.241 4.068-.648a5 5 0 0 0 .932-.46v1.45c0 .1-.051.252-.268.447-.216.196-.557.395-1.021.572-.925.354-2.237.583-3.711.583s-2.785-.229-3.71-.583c-.465-.177-.806-.376-1.022-.572C3.05 6.8 3 6.646 3 6.547M3 8.04v1.45c0 .1.051.251.268.447.216.196.557.395 1.021.572.926.354 2.237.583 3.711.583s2.786-.229 3.71-.583c.465-.177.806-.376 1.022-.572.217-.196.268-.348.268-.448V8.041a5 5 0 0 1-.932.46c-1.066.407-2.504.648-4.068.648s-3.002-.241-4.068-.648A5 5 0 0 1 3 8.04m0 2.944v1.45c0 .1.051.251.268.447.216.196.557.395 1.021.572.926.354 2.237.583 3.711.583s2.786-.23 3.71-.583c.465-.177.806-.377 1.022-.572.217-.196.268-.348.268-.448v-1.449a5 5 0 0 1-.932.46c-1.066.407-2.504.648-4.068.648s-3.002-.241-4.068-.649A5 5 0 0 1 3 10.985" clip-rule="evenodd"/></svg>