<svg xmlns="http://www.w3.org/2000/svg" width="16" height="16" fill="none" viewBox="0 0 16 16"><path fill="#3574F0" fill-rule="evenodd" d="M14.088 6.735c.762 0 1.123.273 1.162.304l.14.111-.058.171a1.7 1.7 0 0 1-.42.623c-.277.273-.778.6-1.594.6h-.132c-.067.17-.138.368-.216.584-.306.847-.709 1.961-1.303 2.633-.445.505-.97.934-1.552 1.271-.707.4-1.475.68-2.274.826a9.4 9.4 0 0 1-1.743.158c-1.294 0-1.85-.146-2.753-.576-.902-.43-1.445-1.14-1.933-2.244-.27-.613-.367-1.523-.4-2.212-.026-.537.414-.963.952-.963h9.001c.115-.005.683-.053 1.037-.25-.293-.464-.376-1.006-.24-1.583a2.7 2.7 0 0 1 .364-.851l.135-.194.205.118c.038.022.873.515 1.02 1.526q.3-.05.601-.052M5.75 11.5a.75.75 0 1 1-1.5 0 .75.75 0 0 1 1.5 0" clip-rule="evenodd"/><rect width="5" height="5" x="4" y="2" fill="#3574F0" rx="1"/></svg>