<svg xmlns="http://www.w3.org/2000/svg" width="16" height="16" fill="none" viewBox="0 0 16 16"><path fill="#460075" fill-rule="evenodd" d="M8.862 3.071c.451 2.015 2.129 2.82 3.787 6.055L12 9.131l-5 3.334v2.07l2.005 1.337c-2.018.461-3.587-.378-4.619-1.626-2.788-3.372-.764-7.632.804-10.629Q6.758.62 8.442 0q-.032 1.05.42 3.071" clip-rule="evenodd"/><path d="M13 13v1l3 2v-1l-2.2-1.5L16 12v-1z" style="transform-box:fill-box;transform-origin:50% 50%;paint-order:stroke;stroke-width:2px;fill:#231f20;fill-opacity:.7" transform="rotate(180 0 0)"/><path d="M8 14v-1l3-2v1l-2.2 1.5L11 15v1z" style="stroke-width:2px;paint-order:stroke;fill:#231f20;fill-opacity:.7"/></svg>