<svg xmlns="http://www.w3.org/2000/svg" width="16" height="16" fill="none" viewBox="0 0 16 16"><path fill="#57965C" d="M10.307 4.02h1.191L5.668 12H4.475zM5.975 7.736q-.559 0-1.003-.245a1.8 1.8 0 0 1-.69-.684 2 2 0 0 1-.245-.997q0-.559.245-.998a1.8 1.8 0 0 1 .69-.684q.444-.245 1.003-.245.57 0 1.009.245.444.246.69.684.25.439.25.998t-.25.997q-.246.439-.69.684a2.03 2.03 0 0 1-1.009.245m0-.923a.94.94 0 0 0 .49-.125.9.9 0 0 0 .337-.36 1.1 1.1 0 0 0 .12-.518 1.1 1.1 0 0 0-.12-.519.91.91 0 0 0-.827-.49.9.9 0 0 0-.484.131.87.87 0 0 0-.331.36 1.14 1.14 0 0 0-.114.518q0 .29.114.518.12.228.33.36a.95.95 0 0 0 .485.125M10 12.137q-.558 0-1.003-.245a1.8 1.8 0 0 1-.69-.679 2 2 0 0 1-.245-1.003q0-.559.245-.997a1.8 1.8 0 0 1 .69-.684q.445-.245 1.003-.245.57 0 1.015.245.45.245.695.684.251.439.251.997 0 .564-.25 1.003a1.73 1.73 0 0 1-.696.679 2.1 2.1 0 0 1-1.015.245m0-.918a1 1 0 0 0 .496-.125.9.9 0 0 0 .337-.36q.125-.233.125-.524t-.126-.519a.86.86 0 0 0-.336-.353.94.94 0 0 0-.496-.131.9.9 0 0 0-.484.131.87.87 0 0 0-.33.353 1.14 1.14 0 0 0-.115.52q0 .29.114.524.12.227.33.359a.95.95 0 0 0 .485.125"/><path stroke="#57965C" stroke-linecap="round" stroke-linejoin="round" d="M2.5 10.5.5 8l2-2.5m11 0 2 2.5-2 2.5"/></svg>