<svg xmlns="http://www.w3.org/2000/svg" width="16" height="16" fill="none" viewBox="0 0 16 16"><path fill="#E92A26" d="M13.4 10.494a8.6 8.6 0 0 0 .6-1.862l-2.045-.328c-.3 1.237-.91 2.486-2.162 2.89-1.831.592-3.04-.777-3.683-2.835l6.83-2.223c-.332-1.238-1.081-2.661-1.938-3.23-1.049-.69-2.366-1.304-4.956-.581-2.848.8-3.662 3.384-3.662 3.384-.47 1.193-.524 2.573-.075 4.008.504 1.631 1.424 2.89 2.677 3.504 1.113.547 2.74 1.172 4.924.46 2.174-.701 3.49-3.187 3.49-3.187m-7.76-3.92c-.214-.953.31-1.818 1.145-2.092.846-.274 1.66.153 1.97 1.073z"/></svg>