<svg xmlns="http://www.w3.org/2000/svg" width="16" height="16" fill="none" viewBox="0 0 16 16"><path fill="#548AF7" fill-rule="evenodd" d="M14.64 11H9.36L12 12.886zM9 11.972l2.71 1.935a.5.5 0 0 0 .58 0L15 11.972V15H9zM8 15v-4a1 1 0 0 1 1-1h6a1 1 0 0 1 1 1v4a1 1 0 0 1-1 1H9a1 1 0 0 1-1-1" clip-rule="evenodd"/><path fill="#43454A" d="M1 3.867C1 2.836 1.731 2 2.633 2h3.489a1 1 0 0 1 .721.308L8.467 4H13a2 2 0 0 1 2 2v3H9a2 2 0 0 0-2 2v3H2.633C1.731 14 1 13.164 1 12.133z"/><path fill="#CED0D6" d="M2.633 3h3.489L8.04 5H13a1 1 0 0 1 1 1v3h1V6a2 2 0 0 0-2-2H8.467L6.843 2.308A1 1 0 0 0 6.122 2H2.633C1.731 2 1 2.836 1 3.867v8.266C1 13.164 1.731 14 2.633 14H7v-1H2.633C2.405 13 2 12.742 2 12.133V3.867C2 3.258 2.405 3 2.633 3"/></svg>