<svg xmlns="http://www.w3.org/2000/svg" width="16" height="16" fill="none" viewBox="0 0 16 16"><path fill="#57965C" fill-rule="evenodd" d="M15.38 12.712a.4.4 0 0 1 0 .576l-2.703 2.6a.4.4 0 0 1-.677-.289v-5.195a.4.4 0 0 1 .677-.289z" clip-rule="evenodd"/><path fill="#DB5C5C" fill-rule="evenodd" d="M7.623 13.288a.4.4 0 0 1 0-.576l2.699-2.596a.4.4 0 0 1 .677.289v5.194a.4.4 0 0 1-.678.288z" clip-rule="evenodd"/><path fill="#43454A" d="M1 3.867C1 2.836 1.784 2 2.75 2h3.288a1 1 0 0 1 .698.283L8.5 4H13a2 2 0 0 1 2 2v4.96l-1.63-1.566c-.562-.54-1.36-.487-1.871-.064-.512-.422-1.31-.474-1.87.066l-2.7 2.595A1.4 1.4 0 0 0 6.92 14H2.75C1.784 14 1 13.164 1 12.133z"/><path fill="#CED0D6" d="m6.038 3 2.056 2H13a1 1 0 0 1 1 1v4l1 .96V6a2 2 0 0 0-2-2H8.5L6.736 2.283A1 1 0 0 0 6.038 2H2.75C1.784 2 1 2.836 1 3.867v8.266C1 13.164 1.784 14 2.75 14h4.17a1.4 1.4 0 0 1-.42-1H2.75c-.354 0-.75-.326-.75-.867V3.867c0-.54.396-.867.75-.867z"/></svg>