<svg xmlns="http://www.w3.org/2000/svg" width="16" height="16" fill="none" viewBox="0 0 16 16"><path fill="#43454A" d="M2.633 2C1.731 2 1 2.836 1 3.867v8.266C1 13.164 1.731 14 2.633 14H8v-4a2 2 0 0 1 2-2h5V6a2 2 0 0 0-2-2H8.467L6.843 2.308A1 1 0 0 0 6.122 2z"/><path fill="#CED0D6" d="M2.633 3h3.489L8.04 5H13a1 1 0 0 1 1 1v2h1V6a2 2 0 0 0-2-2H8.467L6.843 2.308A1 1 0 0 0 6.122 2H2.633C1.731 2 1 2.836 1 3.867v8.266C1 13.164 1.731 14 2.633 14H8.04v-1H2.633C2.405 13 2 12.742 2 12.133V3.867C2 3.258 2.405 3 2.633 3"/><path fill="#548AF7" fill-rule="evenodd" d="M10 9a1 1 0 0 0-1 1v5a1 1 0 0 0 1 1h5a1 1 0 0 0 1-1v-5a1 1 0 0 0-1-1zm0 2v-1h2v1zm0 1v3h2v-3zm3 3h2v-3h-2zm2-4v-1h-2v1z" clip-rule="evenodd"/></svg>