<svg xmlns="http://www.w3.org/2000/svg" width="16" height="16" fill="none" viewBox="0 0 16 16"><path fill="#3574F0" d="M11.937 16h1.14L16 9h-1.28l-2.165 5.49L10.315 9H9z"/><path fill="#EBECF0" d="M1 3.867C1 2.836 1.731 2 2.633 2h3.489a1 1 0 0 1 .721.308L8.467 4H13a2 2 0 0 1 2 2v2h-.96l-1.5 3.804L10.987 8H7.496l2.517 6h-7.38C1.731 14 1 13.164 1 12.133z"/><path fill="#6C707E" d="M2.633 3h3.489L8.04 5H13a1 1 0 0 1 1 1v2.102L14.04 8H15V6a2 2 0 0 0-2-2H8.467L6.843 2.308A1 1 0 0 0 6.122 2H2.633C1.731 2 1 2.836 1 3.867v8.266C1 13.164 1.731 14 2.633 14h7.38l-.42-1h-6.96C2.405 13 2 12.742 2 12.133V3.867C2 3.258 2.405 3 2.633 3"/></svg>