<svg xmlns="http://www.w3.org/2000/svg" width="17" height="16" fill="none" viewBox="0 0 17 16"><path fill="#548AF7" d="M10.993 9.7H12v2.615h2.997V9.7h1.008V16h-1.008v-2.745H12V16h-1.008z"/><path fill="#43454A" d="M2.633 2C1.731 2 1 2.836 1 3.867v8.266C1 13.164 1.731 14 2.633 14h7.36V8.7H15V6a2 2 0 0 0-2-2H8.467L6.843 2.308A1 1 0 0 0 6.122 2z"/><path fill="#CED0D6" d="M6.122 3H2.633C2.405 3 2 3.258 2 3.867v8.266c0 .609.405.867.633.867h7.36v1h-7.36C1.731 14 1 13.164 1 12.133V3.867C1 2.836 1.731 2 2.633 2h3.489a1 1 0 0 1 .721.308L8.467 4H13a2 2 0 0 1 2 2v2.7h-1V6a1 1 0 0 0-1-1H8.04zM15 9.7v.78l-.002-.001V9.7z"/></svg>