<svg xmlns="http://www.w3.org/2000/svg" width="16" height="16" fill="none" viewBox="0 0 16 16"><path fill="#6C707E" d="m2.08 12 .8-2.31h3.41L7.086 12h1.398l-3.14-8.727H3.822L.682 12zm1.184-3.418 1.287-3.724h.068l1.287 3.724zm8.283 3.563c1.082 0 1.692-.55 1.935-1.04h.05V12h1.245V7.653c0-1.904-1.5-2.284-2.54-2.284-1.184 0-2.275.478-2.701 1.67l1.197.273c.188-.464.665-.911 1.521-.911.823 0 1.245.43 1.245 1.171v.03c0 .465-.478.456-1.654.593-1.24.144-2.51.468-2.51 1.955 0 1.287.968 1.995 2.212 1.995m.277-1.023c-.72 0-1.24-.324-1.24-.954 0-.682.605-.925 1.342-1.023.414-.056 1.394-.166 1.577-.35v.844c0 .776-.618 1.483-1.679 1.483"/></svg>