<svg xmlns="http://www.w3.org/2000/svg" width="16" height="16" fill="none" viewBox="0 0 167 152"><g fill="#282828" clip-path="url(#a)"><path d="M104.98 81.34c-1.36.52-2.099.93-2.899 1.08-2.25.43-4.52.72-6.77 1.15-.78.15-1.5.69-2.28.76-.8.07-1.63-.21-2.78-.39-.51-.41-1.29-1.04-2.18-1.75.32-1.34.97-2.67.41-3.97.77-1.49 1.47-2.86 2.24-4.35 1.28-.21 2.55-.38 3.79-.62.97-.19 1.91-.34 2.8-.94 1.09-.74 2.37-.88 3.429-.35.94-.31 1.85-.95 2.47-.74 1.3.44 2.52.29 3.78.14 1.54-.18 3.06-.71 4.6.08.33.17.841-.02 1.271-.07 1.42-.17 2.889-.67 4.239-.44 1.29.22 2.51.17 3.78.17.68 0 1.36.23 2.1.37.81-.36 1.691-.74 2.631-1.16.79.45 1.529.86 2.269 1.28.79-1.03 2.121-1.39 3.061-1.03 1.33.51 2.51.17 3.76.18.55 0 1.1.18 1.83.3.16-.11.499-.33.989-.66 1.22.38 2.601.47 4.011.17 1.26-.27 2.54-.4 3.83-.52 1.4-.13 2.8-.59 4.19.15.38.2 1.1-.21 2.26-.96 1.67 1 3.359-.1 5.259.12.95 1.41 2.501-.12 3.881.45 1.26.53 2.72.58 4.1.84.51.68 1.019 1.34 1.629 2.14-.12.42-.259.96-.429 1.55.18.23.409.54.649.86-.11.1-.219.28-.319.27-.82-.08-1.631-.23-2.451-.3-.27-.03-.6.01-.84.14-1.11.58-2.2 1.19-3.36 1.83-1.23-.31-2.549-.65-3.959-1-.78.75-1.481 1.43-2.211 2.12-.68.1-1.39.21-2.14.32-1.03-.34-2.1-.69-3.3-1.09-.25.15-.589.39-.959.54-.64.26-1.291.57-1.961.68-2.68.44-5.369.82-8.069 1.22-.55-.19-1.081-.38-1.561-.55-3.69.32-7.289 1.38-11.329 1.09 0 0-.34.26-.77.6-.49-.15-1.021-.31-1.851-.57-.83.12-1.95.3-3.08.46-1.28.18-2.569.26-3.819.54-1.03.23-2.131-.77-3.081.23-1.24-.76-2.509-.1-3.759-.06-1.11.02-2.271.58-3.101-.31m-82.99 64.091c-.55-.26-.92-.44-1.28-.61-.48.58-.93 1.13-1.38 1.68-.4-.18-.77-.35-1.29-.59-.96.65-1.99 1.35-3.02 2.05-.39-.54-.79-1.1-1.27-1.76.27-.79.59-1.69.78-2.26.31-.4.38-.54.49-.62 2.27-1.65 4.58-3.21 6.42-5.43 1.14-1.38 2.8-2.32 4.25-3.43 1.23-.94 2.57-1.74 3.48-3.06.31-.45.77-.81 1.21-1.14 2.35-1.79 4.57-3.71 6.81-5.63 2.13-1.82 4.3-3.61 6.44-5.43 2.77-2.37 5.71-4.56 8.44-6.98 3.89-3.45 8.11-6.51 11.84-10.16 1.5-1.47 2.94-3.02 4.53-4.41s2.96-3.04 4.33-4.67c1.03-1.22 2.15-2.21 3.77-2.59 1.55 1.27 2.85 2.68 3.95 4.41-.13 1.23-.27 2.6-.48 4.6-.87 1.36-2.07 3.28-4.02 4.58-.48 1.21-2.26 1.33-2.39 2.83-1 .77-2.03 1.5-2.98 2.32-.96.83-1.83 1.74-2.74 2.62-.31.3-.55.68-.91.88-3.09 1.73-5.48 4.38-8.35 6.39-1.49 1.05-2.89 2.19-4.11 3.57-1.15 1.31-2.69 2-4.4 2.15-.39.79-.64 1.62-1.15 2.23-.53.63-1.33 1.03-2.03 1.53-.23-.1-.49-.22-.77-.34-.56.37-1.13.74-1.81 1.2.01 1.98-1.68 2.73-3.1 3.54-.94.53-2.21.33-3.08 1.28-.75.82-1.69 1.47-2.57 2.23-1.44.28-2.91.61-3.84 1.99.18.23.36.45.56.71-.88.87-2.1.52-3.08.94-2.87 1.24-4.67 3.95-7.25 5.38M15.4 40.63c-.24-.57-.4-.97-.58-1.4-.34-.21-.69-.6-1.07-.64-2.78-.32-4.24-2.02-4.97-4.55-.03-.12-.18-.21-.28-.31-1.45-.67-1.45-.67-3.19-.55-1.3-.96-1.75-2.5-2.61-3.73-.85-1.23-1.63-2.55-2.7-3.6.22-.31.34-.65.55-.72 1.21-.42 2.44-.78 3.53-1.11.71.43 1.27.82 1.88 1.11.5.24 1.28.18 1.54.54.72.99 1.92 1.06 2.78 1.72.3.23.39.74.58 1.14 3.23.79 5.85 2.72 8.48 4.86.16.39.38.91.6 1.42 2.36.21 4.17 1.62 6.07 2.8.83.52 1.52 1.3 2.4 1.71 3.61 1.72 6.5 4.49 9.83 6.62 1.44 1.82 3.78 2.47 5.32 4.13 1.49 1.6 3.48 2.43 5.28 3.55.24.15.52.26.73.45 2.98 2.61 6.21 4.88 9.47 7.12 1.14.78 2.01 1.97 3.09 3.05.01.99.02 2.1.04 3.57-.51 1.94-1.92 3.65-3.99 5.17-.8-.05-1.77-.12-2.96-.2-.2-.38-.34-1.01-.73-1.32-1.78-1.37-3.15-3.21-5.05-4.44-.71-.46-1.51-.87-2.05-1.5-1.32-1.52-2.84-2.73-4.48-3.34-.41-.77-.67-1.27-.75-1.44-1.5-1.18-2.73-2.13-3.93-3.1-2.4-1.94-5.25-3.32-7.2-5.82-2.12-.88-3.45-2.93-5.62-3.73-2.74-2.42-6.14-3.98-8.74-6.61-.4-.39-.94-.63-1.27-.85"/><path d="M85.39 148.781c-.37.87-.69 1.64-1 2.36-1.11.52-1.98.22-3-.95-.19-.86-.45-2.09-.74-3.42-.86-.44-1.7-.88-2.6-1.34l.48-1.96c-.21-.97-1.21-1.16-1.87-2-.22-1.47-.47-3.16-.74-5.02.14-.45.35-1.09.55-1.72-.96-.38-1.72-.67-2.57-1.01-.33-1.41-.66-2.78-1.05-4.44-.54-.81-1.24-1.85-2.04-3.04-.17-1.37-.81-2.76-1.37-4.21-2.05-5.35-3.8-10.82-6.65-15.83-.34-3.11-2.96-5.05-4.09-7.78-.44-1.08-1.78-1.79-2.63-2.6-.4-1.12-.77-2.17-1.22-3.43 1.13-2.94 4.04-4.14 6.84-5.46.67.21 1.34.43 2.19.7 1.13 1.57 2.37 3.28 3.59 5 1.23 1.73 2.11 3.72 2.52 5.7.36 1.72 1.61 3.01 1.74 4.73 1.82 2.21 1.93 5.24 3.59 7.54.23.32.29.82.3 1.24.05 2.9 2.11 5.27 2.17 8.17 1.62 1.31.79 3.57 1.97 5.04 1.1 1.37.37 3.46 1.89 4.64.32 1.83.62 3.67.96 5.49.23 1.24.14 2.57 1.15 3.59.25.26.25.8.31 1.21.45 2.84.86 5.67 1.32 8.8M91.56 0c1 .38 1.65.63 2.3.88.64.91.4 1.84.06 2.78.18.22.37.44.55.66-.3.93-.6 1.87-.91 2.83.14.17.52.44.48.6-.59 2.28.05 4.74-1.01 6.92-.43.89.02 1.67.02 2.49 0 .84-.69 1.55-.42 2.48.15.52.1 1.13-.01 1.67-.2.93-.53 1.83-.8 2.75 1.02.89-.19 1.77-.07 2.73.1.83-.68 1.78-1.12 2.79.74 1.32-.25 2.63-.36 4.02-.16 2.09-.49 4.18-1.32 6.13-.85 1.97-.5 4.13-1.05 6.16-.81 2.95-1.26 5.99-1.96 8.97-.99 4.21-3.05 7.89-6.1 11.1-1.63.24-3.31.49-5.32.79-.67-.48-1.47-1.05-2.17-1.55.48-2.26.78-4.1 1.72-5.92 1.27-2.44 2.41-4.99 2.65-7.9.16-1.91 1.1-3.77 1.78-5.62.54-1.46.98-2.89.92-4.51-.04-.94.35-1.92.65-2.84.55-1.74 1.17-3.46 1.83-5.42.23-.19.66-.53 1.23-.99-.19-.44-.39-.93-.68-1.61 0-.01.02-.27.09-.51.21-.66.55-1.3.66-1.97.19-1.16.95-2.03 1.36-3.06.34-.85.27-1.87.48-3.6-.03-.31-1.84-.78-.58-2.67l.79-.66c-.18-.22-.36-.45-.56-.7.37-.99.58-2.02 1.12-3.03 1.11-2.08 2.25-4.27 1.55-6.87.42-.68.87-1.4 1.33-2.16-.11-1.11-.23-2.23-.34-3.32l.9-1.35c.61-.12 1.43-.3 2.31-.49"/></g><defs><clipPath id="a"><path fill="#fff" d="M0 0h166.902v151.387H0z"/></clipPath></defs></svg>