<svg xmlns="http://www.w3.org/2000/svg" width="16" height="16" fill="none" viewBox="0 0 16 16"><path fill="#CCA18A" d="m4.99 14.708.466-.807a.27.27 0 0 0-.099-.37l-.65-.375a.34.34 0 0 0-.462.123l-.432.749a.68.68 0 0 0 1.178.68"/><path stroke="#000" stroke-width=".2" d="m4.415 12.986-.602 1.042a.68.68 0 0 0 1.177.68l.602-1.042"/><path fill="#CCA18A" d="m12.37 14.065-.507-.879a.27.27 0 0 0-.37-.1l-.65.376a.34.34 0 0 0-.124.462l.474.82a.68.68 0 1 0 1.177-.679"/><path stroke="#000" stroke-width=".2" d="m10.55 13.63.643 1.115a.68.68 0 1 0 1.177-.68l-.643-1.114"/><path fill="#99D6FA" d="m3.519 2.346.614.242a.354.354 0 0 1 .147.55l-.314.41a.39.39 0 0 1-.618-.004l-.37-.484a.465.465 0 0 1 .541-.714"/><path stroke="#000" stroke-width=".2" d="m3.623 3.863-.657-.845a.44.44 0 0 1 .51-.677l1.091.437"/><path fill="#99D6FA" d="m12.457 2.345-.612.247a.354.354 0 0 0-.144.552l.317.407c.16.2.465.196.619-.008l.365-.487a.465.465 0 0 0-.545-.71"/><path stroke="#000" stroke-width=".2" d="m12.364 3.863.651-.85a.44.44 0 0 0-.515-.673l-1.088.446"/><path fill="#99D6FA" stroke="#000" stroke-width=".2" d="M3.14 5.787c.075-2.417 2.173-4.276 4.285-4.276h1.174c2.091 0 4.19 1.88 4.256 4.276a86 86 0 0 1 0 4.776c-.033 1.201-.47 2.15-1.156 2.797s-1.627 1.002-2.677 1.002H7.144c-2.117 0-3.93-1.443-4.004-3.855a77 77 0 0 1 0-4.72Z"/><path fill="#99D6FA" fill-rule="evenodd" d="M7.425 1.411c-2.165 0-4.308 1.9-4.385 4.373a77 77 0 0 0 0 4.726c.075 2.404 1.838 3.87 3.926 3.949a5.25 5.25 0 0 1 6.017-7.265 86 86 0 0 0-.028-1.41c-.068-2.45-2.21-4.373-4.356-4.373z" clip-rule="evenodd"/><path fill="#000" fill-rule="evenodd" d="M7.425 1.611h1.174c2.038 0 4.091 1.838 4.156 4.179q.02.682.027 1.36.1.02.2.043a86 86 0 0 0-.027-1.409c-.068-2.45-2.21-4.373-4.356-4.373H7.425c-2.165 0-4.308 1.9-4.385 4.373a77 77 0 0 0 0 4.726c.075 2.404 1.838 3.87 3.926 3.949a5 5 0 0 1-.087-.205c-1.953-.115-3.57-1.498-3.639-3.75a77 77 0 0 1 0-4.713c.073-2.364 2.126-4.18 4.185-4.18" clip-rule="evenodd"/><path fill="#99D6FA" fill-rule="evenodd" d="M7.425 1.411c-2.165 0-4.308 1.9-4.385 4.373a77 77 0 0 0 0 4.726c.077 2.472 1.939 3.952 4.104 3.952h1.878l.107-.001a5.25 5.25 0 0 1 3.859-6.26c0-.804-.01-1.606-.033-2.417-.068-2.45-2.21-4.373-4.356-4.373z" clip-rule="evenodd"/><path fill="#000" fill-rule="evenodd" d="M7.425 1.611h1.174c2.038 0 4.091 1.838 4.156 4.179q.034 1.237.033 2.464.1-.03.2-.054c0-.803-.01-1.605-.033-2.416-.068-2.45-2.21-4.373-4.356-4.373H7.425c-2.165 0-4.308 1.9-4.385 4.373a77 77 0 0 0 0 4.726c.077 2.472 1.939 3.952 4.104 3.952h1.878l.107-.001-.04-.2H7.143c-2.069 0-3.831-1.404-3.904-3.757a77 77 0 0 1 0-4.713c.073-2.364 2.126-4.18 4.185-4.18" clip-rule="evenodd"/><path fill="#99D6FA" fill-rule="evenodd" d="M7.425 1.411c-2.165 0-4.308 1.9-4.385 4.373a77 77 0 0 0 0 4.726c.067 2.162 1.5 3.565 3.306 3.883l-.59-.591a1 1 0 0 1 .103-1.505l4.883-3.69a1 1 0 0 1 1.113-.062l1.127.668a86 86 0 0 0-.027-3.429c-.068-2.45-2.21-4.373-4.356-4.373z" clip-rule="evenodd"/><path fill="#000" fill-rule="evenodd" d="M7.425 1.611h1.174c2.038 0 4.091 1.838 4.156 4.179.03 1.109.04 2.204.028 3.305l.199.118a86 86 0 0 0-.027-3.429c-.068-2.45-2.21-4.373-4.356-4.373H7.425c-2.165 0-4.308 1.9-4.385 4.373a77 77 0 0 0 0 4.726c.067 2.162 1.5 3.565 3.306 3.883l-.26-.26c-1.58-.396-2.786-1.69-2.846-3.63a77 77 0 0 1 0-4.712c.073-2.364 2.126-4.18 4.185-4.18" clip-rule="evenodd"/><path fill="#fff" fill-rule="evenodd" d="M7.302 4.838c0 .924-.735 1.674-1.64 1.674-.906 0-1.64-.75-1.64-1.674s.734-1.673 1.64-1.673 1.64.75 1.64 1.673" clip-rule="evenodd"/><path fill="#000" fill-rule="evenodd" d="M5.93 4.837c0 .428-.34.774-.759.774a.766.766 0 0 1-.758-.774c0-.427.34-.774.758-.774.42 0 .76.347.76.774" clip-rule="evenodd"/><path fill="#fff" fill-rule="evenodd" d="M11.97 4.838c0 .924-.734 1.674-1.64 1.674s-1.64-.75-1.64-1.674.734-1.673 1.64-1.673 1.64.75 1.64 1.673" clip-rule="evenodd"/><path fill="#000" fill-rule="evenodd" d="M11.585 4.837c0 .428-.34.774-.758.774a.766.766 0 0 1-.759-.774c0-.427.34-.774.76-.774.418 0 .757.347.757.774" clip-rule="evenodd"/><path fill="#fff" fill-rule="evenodd" d="M7.632 7.584h.978v-.805h-.978z" clip-rule="evenodd"/><path fill="#CCA18A" fill-rule="evenodd" d="M9.097 6.512c0 .296-.437.536-.977.536-.539 0-.976-.24-.976-.536s.437-.536.976-.536c.54 0 .977.24.977.536" clip-rule="evenodd"/><path fill="#000" fill-rule="evenodd" d="M8.61 6.234c0 .302-.222.278-.497.278-.274 0-.497.024-.497-.278 0-.3.223-.545.497-.545.275 0 .497.244.497.545" clip-rule="evenodd"/><path fill="#CCA18A" d="m13.71 9.682-.687-.688a.23.23 0 0 0-.325 0l-.449.449a.287.287 0 0 0 0 .405l.648.648a.575.575 0 0 0 .814-.814"/><path stroke="#000" stroke-width=".2" d="m12.047 9.646.85.85a.575.575 0 0 0 .813-.813l-.85-.85"/><path fill="#CCA18A" d="m3.097 10.496.688-.688a.23.23 0 0 0 0-.325l-.449-.448a.286.286 0 0 0-.405 0l-.648.647a.575.575 0 1 0 .814.814"/><path stroke="#000" stroke-width=".2" d="m3.134 8.832-.85.85a.575.575 0 1 0 .813.813l.85-.85"/></svg>