<svg xmlns="http://www.w3.org/2000/svg" width="16" height="16" fill="none" viewBox="0 0 16 16"><path fill="#5DA8D3" d="m11.437 2.842.015.037.015-.007c.75.748 1.257 1.773 1.288 2.918q.03 1.11.033 2.21H11a3 3 0 0 0-3 3v3q0 .132.011.262h-.867c-2.069 0-3.831-1.405-3.904-3.758a77 77 0 0 1 0-4.713c.073-2.363 2.126-4.18 4.185-4.18h1.174c1.028 0 2.06.468 2.838 1.231m.931.855-.013.001a4.7 4.7 0 0 0-.688-.908l.873-.358a.34.34 0 0 1 .398.52z"/><path fill="#5DA8D3" d="m3.641 3.698-.02-.001-.576-.74a.34.34 0 0 1 .394-.524l.89.357a4.7 4.7 0 0 0-.688.908"/><path fill="#fff" d="M7.302 4.838c0 .924-.735 1.674-1.64 1.674-.906 0-1.64-.75-1.64-1.674s.734-1.673 1.64-1.673 1.64.75 1.64 1.673m4.67 0c0 .924-.735 1.674-1.64 1.674-.907 0-1.64-.75-1.64-1.674s.733-1.673 1.64-1.673c.905 0 1.64.75 1.64 1.673M7.633 7.584v-.608c.143.046.31.072.488.072s.345-.027.49-.072v.608z"/><path fill="#000" fill-rule="evenodd" d="M3.528 3.904a4.4 4.4 0 0 0-.488 1.88 77 77 0 0 0-.033 3.032l-.796.796a.675.675 0 0 0 .836 1.05c.066 1.073.474 1.951 1.097 2.592l-.418.724a.78.78 0 0 0 1.35.78l.363-.629a4.4 4.4 0 0 0 1.705.333h.891a3 3 0 0 1-.024-.2h-.867c-2.07 0-3.831-1.405-3.904-3.758v-.01l.777-.778-.142-.141-.85.85a.475.475 0 1 1-.672-.672l.85-.85.004.004c-.01-1.04.001-2.083.033-3.116.073-2.364 2.126-4.18 4.185-4.18h1.173c1.028 0 2.06.467 2.839 1.231l.015.036.015-.006c.749.748 1.256 1.773 1.288 2.918q.03 1.11.033 2.21h.2a87 87 0 0 0-.033-2.216 4.4 4.4 0 0 0-.49-1.885l.631-.825a.54.54 0 0 0-.632-.827l-.952.39c-.807-.762-1.86-1.226-2.914-1.226H7.425c-1.067 0-2.13.462-2.94 1.226l-.972-.39a.54.54 0 0 0-.626.832zm.105-.192a4.7 4.7 0 0 1 .696-.922l-.89-.357a.34.34 0 0 0-.394.523zm8.034-.922.873-.358a.34.34 0 0 1 .398.52l-.578.755a4.7 4.7 0 0 0-.693-.917M3.899 14.078l.393-.68a3.9 3.9 0 0 0 .964.65l-.352.61a.58.58 0 0 1-1.005-.58" clip-rule="evenodd"/><path fill="#000" d="M5.93 4.837c0 .428-.34.774-.76.774a.766.766 0 0 1-.758-.774c0-.427.34-.774.758-.774.42 0 .76.347.76.774m5.655 0c0 .428-.34.774-.758.774a.766.766 0 0 1-.759-.774c0-.427.34-.774.76-.774.418 0 .757.347.757.774M8.169 6.512c.248.001.44.003.44-.278 0-.3-.222-.545-.497-.545-.274 0-.497.244-.497.545 0 .28.193.28.44.278z"/><path fill="#CCA18A" d="M8.169 6.512c.248.001.44.003.44-.278a.6.6 0 0 0-.034-.197c.31.09.522.269.522.475 0 .296-.437.536-.976.536-.54 0-.976-.24-.976-.536 0-.202.202-.377.502-.469a.6.6 0 0 0-.032.191c0 .28.193.28.44.278zM2.353 9.753l.85-.85.672.672-.85.85a.475.475 0 1 1-.672-.672m1.939 3.645-.392.68a.58.58 0 0 0 1.004.58l.352-.61a3.9 3.9 0 0 1-.964-.65"/><rect width="6" height="6" x="9.5" y="9.5" fill="#25324D" stroke="#548AF7" rx="1.5"/></svg>