<svg width="16" height="16" viewBox="0 0 16 16" fill="none" xmlns="http://www.w3.org/2000/svg">
<path d="M4.99121 14.7078L5.45692 13.9012C5.53181 13.7714 5.48737 13.6056 5.35764 13.5307L4.70831 13.1558C4.54641 13.0623 4.33938 13.1178 4.24591 13.2797L3.81384 14.028C3.62613 14.3532 3.73753 14.7689 4.06265 14.9566C4.38777 15.1443 4.8035 15.0329 4.99121 14.7078Z" fill="#CCA18A"/>
<path d="M4.41516 12.9863L3.81384 14.0278C3.62613 14.353 3.73753 14.7687 4.06265 14.9564C4.38777 15.1441 4.8035 15.0327 4.99121 14.7076L5.59253 13.6661" stroke="black" stroke-width="0.2"/>
<path d="M12.3704 14.0656L11.8629 13.1865C11.788 13.0568 11.6221 13.0123 11.4924 13.0872L10.8431 13.4621C10.6812 13.5556 10.6257 13.7626 10.7192 13.9245L11.1931 14.7453C11.3808 15.0705 11.7965 15.1818 12.1216 14.9941C12.4467 14.8064 12.5581 14.3907 12.3704 14.0656Z" fill="#CCA18A"/>
<path d="M10.5488 13.631L11.192 14.7449C11.3797 15.0701 11.7954 15.1814 12.1205 14.9937C12.4456 14.806 12.557 14.3903 12.3693 14.0652L11.7262 12.9512" stroke="black" stroke-width="0.2"/>
<path d="M3.51821 2.34591L4.13212 2.58793C4.35377 2.67531 4.42783 2.9521 4.27943 3.1385L3.96567 3.54834C3.8079 3.74995 3.50215 3.74799 3.34697 3.54439L2.97796 3.06021C2.85437 2.89806 2.85086 2.67431 2.9693 2.50835C3.09328 2.33462 3.31964 2.26763 3.51821 2.34591Z" fill="#EC407A"/>
<path d="M3.62319 3.86294L2.96558 3.01752C2.84015 2.85626 2.84246 2.6298 2.97117 2.47113C3.09251 2.32156 3.29713 2.26849 3.47587 2.34022L4.56713 2.77819" stroke="black" stroke-width="0.2"/>
<path d="M12.4572 2.34525L11.8452 2.59187C11.6242 2.68092 11.5522 2.95826 11.702 3.14353L12.0188 3.55101C12.1781 3.75142 12.4838 3.74716 12.6375 3.5424L13.0028 3.05546C13.1252 2.89239 13.127 2.66861 13.0073 2.50355C12.8821 2.33076 12.6552 2.26548 12.4572 2.34525Z" fill="#EC407A"/>
<path d="M12.3642 3.86329L13.0154 3.01295C13.1397 2.85075 13.1357 2.62431 13.0058 2.46662C12.8833 2.31797 12.6783 2.26643 12.5001 2.33951L11.4121 2.78567" stroke="black" stroke-width="0.2"/>
<path d="M3.13979 5.78705C3.2145 3.36918 5.31255 1.51074 7.42451 1.51074H8.59832C10.6899 1.51074 12.7884 3.39084 12.8547 5.78673C12.899 7.38821 12.899 8.96099 12.8547 10.5625C12.8214 11.7638 12.384 12.7118 11.6986 13.3596C11.0126 14.0079 10.0719 14.3615 9.02177 14.3615H7.14353C5.02647 14.3615 3.21435 12.9191 3.13979 10.5062C3.09142 8.94096 3.09142 7.35227 3.13979 5.78705Z" fill="#EC407A" stroke="black" stroke-width="0.2"/>
<path fill-rule="evenodd" clip-rule="evenodd" d="M7.4249 1.41113C5.25974 1.41113 3.11664 3.31166 3.04023 5.78436C2.9918 7.35163 2.9918 8.94238 3.04023 10.5097C3.11453 12.9143 4.87767 14.3797 6.96598 14.4585C6.66774 13.7993 6.50171 13.0676 6.50171 12.297C6.50171 9.39798 8.85184 7.04785 11.7509 7.04785C12.1751 7.04785 12.5876 7.09818 12.9826 7.19318C12.9773 6.72508 12.9681 6.25596 12.955 5.78436C12.8872 3.33395 10.7441 1.41113 8.59871 1.41113H7.4249Z" fill="#EC407A"/>
<path fill-rule="evenodd" clip-rule="evenodd" d="M7.4249 1.61113H8.59871C10.6366 1.61113 12.6903 3.44851 12.7551 5.78989C12.7677 6.24484 12.7767 6.69748 12.7821 7.14912C12.8494 7.16253 12.9163 7.17722 12.9826 7.19318C12.9773 6.72508 12.9681 6.25596 12.955 5.78436C12.8872 3.33395 10.7441 1.41113 8.59871 1.41113H7.4249C5.25974 1.41113 3.11664 3.31166 3.04023 5.78436C2.9918 7.35163 2.9918 8.94238 3.04023 10.5097C3.11453 12.9143 4.87767 14.3797 6.96598 14.4585C6.93549 14.3911 6.90638 14.323 6.87869 14.2541C4.92647 14.1392 3.30972 12.7555 3.24013 10.5035C3.19183 8.94032 3.19183 7.35369 3.24013 5.79053C3.31315 3.42747 5.36615 1.61113 7.4249 1.61113Z" fill="black"/>
<path fill-rule="evenodd" clip-rule="evenodd" d="M7.4249 1.41113C5.25974 1.41113 3.11664 3.31166 3.04023 5.78436C2.9918 7.35163 2.9918 8.94238 3.04023 10.5097C3.11664 12.9823 4.97876 14.4619 7.14392 14.4619H9.02216C9.05803 14.4619 9.09379 14.4615 9.12943 14.4607C9.04472 14.0864 9 13.6969 9 13.297C9 10.8326 10.6982 8.76491 12.9883 8.20027C12.9885 7.39736 12.9774 6.59452 12.955 5.78436C12.8872 3.33395 10.7441 1.41113 8.59871 1.41113H7.4249Z" fill="#EC407A"/>
<path fill-rule="evenodd" clip-rule="evenodd" d="M7.4249 1.61113H8.59871C10.6366 1.61113 12.6903 3.44851 12.7551 5.78989C12.778 6.61622 12.789 7.4349 12.7882 8.25383C12.8544 8.2347 12.9211 8.21684 12.9883 8.20027C12.9885 7.39736 12.9774 6.59452 12.955 5.78436C12.8872 3.33395 10.7441 1.41113 8.59871 1.41113H7.4249C5.25974 1.41113 3.11664 3.31166 3.04023 5.78436C2.9918 7.35163 2.9918 8.94238 3.04023 10.5097C3.11664 12.9823 4.97876 14.4619 7.14392 14.4619H9.02216C9.05803 14.4619 9.09379 14.4615 9.12943 14.4607C9.1145 14.3947 9.10082 14.3283 9.0884 14.2614C9.06637 14.2617 9.04429 14.2619 9.02216 14.2619H7.14392C5.07497 14.2619 3.31285 12.8567 3.24013 10.5035C3.19183 8.94032 3.19183 7.35369 3.24013 5.79053C3.31315 3.42747 5.36615 1.61113 7.4249 1.61113Z" fill="black"/>
<path fill-rule="evenodd" clip-rule="evenodd" d="M7.4249 1.41113C5.25974 1.41113 3.11664 3.31166 3.04023 5.78436C2.9918 7.35163 2.9918 8.94238 3.04023 10.5097C3.10704 12.672 4.53943 14.0748 6.34587 14.3929L5.75506 13.8017C5.32601 13.3724 5.37524 12.663 5.85946 12.297L10.7423 8.60694C11.0662 8.36211 11.5061 8.33749 11.8553 8.54465L12.982 9.21289C12.9958 8.07069 12.9868 6.93491 12.955 5.78436C12.8872 3.33395 10.7441 1.41113 8.59871 1.41113H7.4249Z" fill="#EC407A"/>
<path fill-rule="evenodd" clip-rule="evenodd" d="M7.4249 1.61113H8.59871C10.6366 1.61113 12.6903 3.44851 12.7551 5.78989C12.7858 6.89903 12.7952 7.99438 12.7833 9.09506L12.982 9.21289C12.9958 8.07069 12.9868 6.93491 12.955 5.78436C12.8872 3.33395 10.7441 1.41113 8.59871 1.41113H7.4249C5.25974 1.41113 3.11664 3.31166 3.04023 5.78436C2.9918 7.35163 2.9918 8.94238 3.04023 10.5097C3.10704 12.672 4.53943 14.0748 6.34587 14.3929L6.08669 14.1336C4.50659 13.7374 3.30004 12.4422 3.24013 10.5035C3.19183 8.94032 3.19183 7.35369 3.24013 5.79053C3.31315 3.42747 5.36615 1.61113 7.4249 1.61113Z" fill="black"/>
<path fill-rule="evenodd" clip-rule="evenodd" d="M7.30156 4.83828C7.30156 5.76247 6.56724 6.51152 5.66152 6.51152C4.75581 6.51152 4.02148 5.76247 4.02148 4.83828C4.02148 3.91409 4.75581 3.16504 5.66152 3.16504C6.56724 3.16504 7.30156 3.91409 7.30156 4.83828Z" fill="white"/>
<path fill-rule="evenodd" clip-rule="evenodd" d="M5.93109 4.83735C5.93109 5.26451 5.59143 5.61122 5.17236 5.61122C4.75372 5.61122 4.41406 5.26451 4.41406 4.83735C4.41406 4.41019 4.75372 4.06348 5.17236 4.06348C5.59143 4.06348 5.93109 4.41019 5.93109 4.83735Z" fill="black"/>
<path fill-rule="evenodd" clip-rule="evenodd" d="M11.9695 4.83828C11.9695 5.76247 11.2352 6.51152 10.3295 6.51152C9.42337 6.51152 8.68945 5.76247 8.68945 4.83828C8.68945 3.91409 9.42337 3.16504 10.3295 3.16504C11.2352 3.16504 11.9695 3.91409 11.9695 4.83828Z" fill="white"/>
<path fill-rule="evenodd" clip-rule="evenodd" d="M11.5854 4.83735C11.5854 5.26451 11.2457 5.61122 10.8271 5.61122C10.408 5.61122 10.0684 5.26451 10.0684 4.83735C10.0684 4.41019 10.408 4.06348 10.8271 4.06348C11.2457 4.06348 11.5854 4.41019 11.5854 4.83735Z" fill="black"/>
<path fill-rule="evenodd" clip-rule="evenodd" d="M7.63281 7.58374H8.61011V6.7793H7.63281V7.58374Z" fill="white"/>
<path fill-rule="evenodd" clip-rule="evenodd" d="M9.09721 6.51175C9.09721 6.80778 8.65999 7.04791 8.12067 7.04791C7.58175 7.04791 7.14453 6.80778 7.14453 6.51175C7.14453 6.21571 7.58175 5.97559 8.12067 5.97559C8.65999 5.97559 9.09721 6.21571 9.09721 6.51175Z" fill="#CCA18A"/>
<path fill-rule="evenodd" clip-rule="evenodd" d="M8.6087 6.23446C8.6087 6.53573 8.38657 6.51159 8.11197 6.51159C7.83776 6.51159 7.61523 6.53573 7.61523 6.23446C7.61523 5.9332 7.83776 5.68945 8.11197 5.68945C8.38657 5.68945 8.6087 5.9332 8.6087 6.23446Z" fill="black"/>
<path d="M13.7112 9.68209L13.0231 8.99397C12.9335 8.90435 12.7881 8.90435 12.6985 8.99397L12.2499 9.44258C12.1381 9.55444 12.1381 9.73579 12.2499 9.84765L12.8978 10.4955C13.1224 10.7201 13.4866 10.7201 13.7112 10.4955C13.9358 10.2709 13.9358 9.90671 13.7112 9.68209Z" fill="#CCA18A"/>
<path d="M12.0469 9.64545L12.8973 10.4958C13.1219 10.7204 13.4861 10.7204 13.7107 10.4958C13.9353 10.2712 13.9353 9.90704 13.7107 9.68242L12.8603 8.83203" stroke="black" stroke-width="0.2"/>
<path d="M3.09713 10.4953L3.78524 9.80725C3.87487 9.71763 3.87487 9.57232 3.78524 9.4827L3.33663 9.03408C3.22478 8.92223 3.04342 8.92223 2.93157 9.03408L2.2837 9.68195C2.05908 9.90657 2.05908 10.2707 2.2837 10.4953C2.50832 10.72 2.87251 10.72 3.09713 10.4953Z" fill="#CCA18A"/>
<path d="M3.1341 8.83203L2.2837 9.68243C2.05908 9.90705 2.05908 10.2712 2.2837 10.4958C2.50832 10.7205 2.87251 10.7205 3.09713 10.4958L3.94752 9.64545" stroke="black" stroke-width="0.2"/>
</svg>
