<svg xmlns="http://www.w3.org/2000/svg" viewBox="0 0 32 32"><path d="M6 20h20v2H6z" style="fill:#ec407a"/><circle cx="7" cy="21" r="3" style="fill:#ec407a"/><circle cx="16" cy="27" r="3" style="fill:#ec407a"/><circle cx="25" cy="21" r="3" style="fill:#ec407a"/><path d="M6 10h20v2H6z" style="fill:#ec407a"/><circle cx="7" cy="11" r="3" style="fill:#ec407a"/><circle cx="16" cy="5" r="3" style="fill:#ec407a"/><circle cx="25" cy="11" r="3" style="fill:#ec407a"/><path d="M6 12h2v10H6zm18-2h2v12h-2z" style="fill:#ec407a"/><path d="M3.572 22.705h13.544v2H3.572z" style="fill:#ec407a" transform="rotate(30.46 10.344 23.705)"/><path d="M13.572 23.295h13.544v2H13.572z" style="fill:#ec407a" transform="rotate(149.54 20.344 24.295)"/><path d="M4.598 6.58h13.544v2H4.598z" style="fill:#ec407a" transform="rotate(-32.562 11.37 7.58)"/><path d="M13.859 6.58h13.544v2H13.859z" style="fill:#ec407a" transform="rotate(-147.438 20.63 7.58)"/><path d="M4.598 23.42h13.544v2H4.598z" style="fill:#ec407a" transform="rotate(32.562 11.37 24.42)"/><path d="M13.859 23.42h13.544v2H13.859z" style="fill:#ec407a" transform="rotate(147.438 20.63 24.42)"/><path d="M1.104 12.616h21.471v2H1.104z" style="fill:#ec407a" transform="rotate(-61.745 11.84 13.616)"/><path d="M9.425 12.616h21.471v2H9.425z" style="fill:#ec407a" transform="rotate(-118.255 20.16 13.616)"/></svg>