<svg width="16" height="16" version="1.1" viewBox="0 0 16 16" xmlns="http://www.w3.org/2000/svg">
 <path d="m6.75 6c0.33-0.0025 0.668 0.162 0.924 0.533 0.131 0.185 0.237 0.417 0.328 0.664 0.162-0.456 0.399-0.844 0.691-1.03 0.356-0.232 0.758-0.216 1.11 0.0115 0.31 0.197 0.582 0.541 0.828 0.919 0.192 0.296 0.371 0.619 0.569 0.904 0.104 0.147 0.217 0.286 0.345 0.362 0.171 0.101 0.373 0.00574 0.495-0.223 0.113-0.214 0.106-0.585-0.0185-0.78-0.0792-0.119-0.215-0.095-0.271 0.0635-0.049 0.126-0.0215 0.283 0.0169 0.404-0.102-0.13-0.204-0.31-0.204-0.546-0.0211-0.273 0.095-0.513 0.234-0.608 0.272-0.189 0.612-0.0261 0.783 0.39 0.165 0.388 0.178 0.899 0.149 1.36-0.0347 0.439-0.176 0.849-0.385 1.1-0.294 0.365-0.666 0.478-1.02 0.47-0.341-0.0161-0.678-0.15-0.994-0.371-0.528-0.369-1.02-0.88-1.57-1.17-0.181-0.122-0.373-0.188-0.566-0.209-0.154-0.00184-0.3-0.0143-0.445 0.00287-0.177 0.0297-0.354 0.0929-0.52 0.206-0.554 0.3-1.06 0.823-1.59 1.19-0.454 0.307-0.957 0.45-1.44 0.28-0.27-0.095-0.538-0.302-0.72-0.672-0.156-0.314-0.23-0.735-0.223-1.15-0.00862-0.389 0.0404-0.802 0.188-1.11 0.137-0.287 0.359-0.433 0.572-0.401 0.137 0.0111 0.276 0.115 0.36 0.307 0.0665 0.152 0.0706 0.36 0.0415 0.537-0.0355 0.16-0.109 0.284-0.188 0.38 0.0406-0.119 0.0653-0.277 0.0172-0.401-0.0591-0.166-0.205-0.183-0.282-0.0464-0.0948 0.17-0.115 0.447-0.0511 0.655 0.0689 0.218 0.212 0.342 0.35 0.368 0.209 0.0314 0.39-0.194 0.543-0.412 0.317-0.475 0.603-1.02 0.955-1.42 0.29-0.339 0.632-0.568 0.985-0.565z" fill="#6c707e" fill-rule="evenodd" stroke-width=".864"/>
 <path d="m1.99 9.78c0.01-0.385-0.118-0.692-0.382-0.922s-0.622-0.345-1.07-0.345h-0.533v-1.08h0.533c0.45 0 0.808-0.115 1.07-0.345s0.392-0.538 0.382-0.922l-0.03-1.58c-0.01-0.52 0.0975-0.975 0.322-1.36 0.23-0.39 0.558-0.69 0.982-0.9s0.925-0.315 1.5-0.315h0.737v1h-0.73c-0.52 0-0.932 0.145-1.24 0.435-0.3 0.285-0.448 0.672-0.442 1.16l0.03 1.57c0.01 0.51-0.128 0.928-0.412 1.25-0.285 0.32-0.67 0.498-1.16 0.532 0.485 0.09 0.87 0.3 1.16 0.63 0.285 0.325 0.422 0.72 0.412 1.18l-0.03 1.78c-0.01 0.44 0.122 0.79 0.398 1.05 0.28 0.265 0.658 0.398 1.13 0.398h0.88v1h-0.887c-0.535 0-1-0.1-1.41-0.3-0.4-0.195-0.71-0.478-0.93-0.848-0.215-0.365-0.32-0.792-0.315-1.28z" fill="#834df0"/>
 <path d="m14 9.78c-0.01-0.385 0.118-0.692 0.382-0.922s0.622-0.345 1.07-0.345h0.53v-1.08h-0.53c-0.45 0-0.808-0.115-1.07-0.345s-0.392-0.538-0.382-0.922l0.03-1.58c0.01-0.52-0.1-0.975-0.33-1.36-0.225-0.39-0.55-0.69-0.975-0.9s-0.925-0.315-1.5-0.315h-0.74v1h0.732c0.52 0 0.93 0.145 1.23 0.435 0.305 0.285 0.455 0.672 0.45 1.16l-0.03 1.57c-0.01 0.51 0.128 0.928 0.412 1.25 0.285 0.32 0.67 0.498 1.16 0.532-0.485 0.09-0.87 0.3-1.16 0.63-0.285 0.325-0.422 0.72-0.412 1.18l0.03 1.78c0.01 0.44-0.125 0.79-0.405 1.05-0.275 0.265-0.65 0.398-1.12 0.398h-0.882v1h0.89c0.535 0 1-0.1 1.4-0.3 0.405-0.195 0.715-0.478 0.93-0.848 0.22-0.365 0.328-0.792 0.322-1.28z" fill="#834df0"/>
</svg>
