<svg xmlns="http://www.w3.org/2000/svg" width="16" height="16" viewBox="0 0 16 16"><path fill="#CED0D6" fill-rule="evenodd" d="M6.75 6c.33-.002.668.162.924.533.131.185.237.417.328.664.162-.456.399-.844.691-1.03.356-.232.758-.216 1.11.012.31.196.582.54.828.918.192.296.371.62.569.904.104.148.217.287.345.363.171.1.373.005.495-.224.113-.214.106-.585-.018-.78-.08-.119-.216-.095-.272.064-.049.126-.021.283.017.404a.87.87 0 0 1-.204-.546c-.02-.273.095-.513.234-.608.272-.189.612-.026.783.39.165.388.178.899.15 1.36-.035.439-.177.849-.386 1.1a1.22 1.22 0 0 1-1.02.47c-.34-.016-.678-.15-.994-.371-.528-.369-1.02-.88-1.57-1.17a1.24 1.24 0 0 0-.566-.209c-.154-.002-.3-.014-.445.003-.177.03-.354.093-.52.206-.554.3-1.06.823-1.59 1.19-.454.307-.957.45-1.44.28-.27-.095-.538-.302-.72-.672-.156-.314-.23-.735-.223-1.15-.008-.39.04-.802.188-1.11.137-.287.36-.433.572-.401.137.011.276.115.36.307.067.152.071.36.042.537a.9.9 0 0 1-.188.38c.04-.12.065-.277.017-.401-.059-.166-.205-.183-.282-.047-.095.17-.115.447-.051.655.069.218.212.342.35.368.209.032.39-.194.543-.412.317-.475.603-1.02.955-1.42.29-.339.632-.568.985-.565z"/><path fill="#B589EC" d="M1.99 9.78q.014-.577-.382-.922c-.396-.345-.622-.345-1.07-.345H.005v-1.08h.533q.676 0 1.07-.345c.394-.345.392-.538.382-.922l-.03-1.58q-.014-.781.322-1.36.345-.585.982-.9c.637-.315.925-.315 1.5-.315h.737v1h-.73q-.779 0-1.24.435-.45.428-.442 1.16l.03 1.57q.014.766-.412 1.25-.426.48-1.16.532.726.135 1.16.63.427.489.412 1.18l-.03 1.78q-.015.66.398 1.05.421.398 1.13.398h.88v1H4.61c-.535 0-1-.1-1.41-.3q-.6-.293-.93-.848-.323-.548-.315-1.28zm12.01 0q-.014-.577.382-.922c.396-.345.622-.345 1.07-.345h.53v-1.08h-.53q-.676 0-1.07-.345c-.394-.345-.392-.538-.382-.922l.03-1.58q.015-.781-.33-1.36-.338-.585-.975-.9c-.637-.315-.925-.315-1.5-.315h-.74v1h.732q.78 0 1.23.435.457.428.45 1.16l-.03 1.57q-.014.766.412 1.25.426.48 1.16.532-.726.135-1.16.63-.427.489-.412 1.18l.03 1.78q.015.66-.405 1.05-.414.398-1.12.398h-.882v1h.89q.801 0 1.4-.3a2.1 2.1 0 0 0 .93-.848q.33-.548.322-1.28z"/></svg>