<svg xmlns="http://www.w3.org/2000/svg" width="16" height="16" fill="none" viewBox="0 0 16 16"><path fill="#43454A" d="M4 4v8a2 2 0 0 0 2 2h4a2 2 0 0 0 2-2V4a2 2 0 0 0-2-2H6a2 2 0 0 0-2 2"/><path fill="#CED0D6" fill-rule="evenodd" d="M5 4v8a1 1 0 0 0 1 1h4a1 1 0 0 0 1-1V4a1 1 0 0 0-1-1H6a1 1 0 0 0-1 1m-1 8V4a2 2 0 0 1 2-2h4a2 2 0 0 1 2 2v8a2 2 0 0 1-2 2H6a2 2 0 0 1-2-2M1 4.5a.5.5 0 0 1 .5-.5H4v1H1.5a.5.5 0 0 1-.5-.5M12 4h2.5a.5.5 0 0 1 0 1H12zM1 8a.5.5 0 0 1 .5-.5H4v1H1.5A.5.5 0 0 1 1 8m11-.5h2.5a.5.5 0 0 1 0 1H12zm-11 4a.5.5 0 0 1 .5-.5H4v1H1.5a.5.5 0 0 1-.5-.5m11-.5h2.5a.5.5 0 0 1 0 1H12z" clip-rule="evenodd"/></svg>