<svg xmlns="http://www.w3.org/2000/svg" width="16" height="16" fill="none" viewBox="0 0 16 16"><path fill="#F2C55C" d="M14 4a2 2 0 0 0-2-2H4a2 2 0 0 0-2 2v8a2 2 0 0 0 2 2h8a2 2 0 0 0 2-2z"/><path fill="#1E1F22" d="M4.213 11h1.009q.231 0 .406-.094a.67.67 0 0 0 .274-.274.84.84 0 0 0 .098-.41V6h1v4.358q0 .483-.214.855-.213.372-.594.582A1.8 1.8 0 0 1 5.32 12H4.213zm5.893 1.103q-.637 0-1.129-.231a1.9 1.9 0 0 1-.77-.65 1.7 1.7 0 0 1-.282-.958h1.013q0 .283.15.505t.415.346q.27.12.615.12.339 0 .595-.111a.9.9 0 0 0 .393-.312.8.8 0 0 0 .141-.47.86.86 0 0 0-.735-.873L9.499 9.3a1.8 1.8 0 0 1-.757-.309 1.6 1.6 0 0 1-.496-.577 1.7 1.7 0 0 1-.171-.765q0-.495.256-.89a1.75 1.75 0 0 1 .723-.619 2.34 2.34 0 0 1 1.043-.227q.594 0 1.056.218.466.219.727.607.26.39.265.89h-1.013a.77.77 0 0 0-.129-.436.84.84 0 0 0-.359-.304 1.3 1.3 0 0 0-.534-.107q-.303 0-.535.103a.83.83 0 0 0-.359.29.76.76 0 0 0-.128.437q0 .29.188.504.189.21.492.26l.996.163q.44.077.782.33.347.252.535.628.188.375.188.8 0 .511-.274.927a1.86 1.86 0 0 1-.765.646 2.6 2.6 0 0 1-1.124.235"/></svg>