<svg xmlns="http://www.w3.org/2000/svg" width="16" height="16" fill="none" viewBox="0 0 16 16"><rect width="12" height="1" x="2" y="13" fill="#E66D17" rx=".5"/><path fill="#FFF4EB" stroke="#E66D17" d="M2.5 3.6c0-.288 0-.474.012-.616a.6.6 0 0 1 .042-.211.5.5 0 0 1 .219-.219.6.6 0 0 1 .21-.042c.143-.012.329-.012.617-.012h7.8c.288 0 .474 0 .616.012a.6.6 0 0 1 .211.042.5.5 0 0 1 .218.219l.441-.225-.44.225a.6.6 0 0 1 .042.21c.012.143.012.329.012.617v2.9c0 1.432-.005 2.037-.15 2.516a3.5 3.5 0 0 1-2.334 2.333c-.479.146-1.084.151-2.516.151s-2.037-.005-2.516-.15a3.5 3.5 0 0 1-2.333-2.334C2.505 8.537 2.5 7.932 2.5 6.5z"/><path stroke="#E66D17" d="M12.5 2.5h2a.5.5 0 0 1 .5.5v1.181a1.5 1.5 0 0 1-.91 1.379l-1.59.682z"/></svg>