<svg xmlns="http://www.w3.org/2000/svg" width="16" height="16" fill="none" viewBox="0 0 16 16"><path fill="#F2C55C" d="M12 2a2 2 0 0 1 2 2v6l-.63-.606c-.28-.269-.62-.39-.952-.393L12.213 9h-.98l-.647.002a1.37 1.37 0 0 0-.958.394L6.93 11.99A1.4 1.4 0 0 0 6.92 14H4a2 2 0 0 1-2-2V4a2 2 0 0 1 2-2z"/><path fill="#1E1F22" d="M9.836 9.23a1.7 1.7 0 0 1-.517-.252 1.6 1.6 0 0 1-.496-.577 1.7 1.7 0 0 1-.171-.765q0-.496.256-.89a1.75 1.75 0 0 1 .723-.62 2.3 2.3 0 0 1 1.043-.226q.594 0 1.056.218.466.218.727.607.26.39.265.89h-1.013a.77.77 0 0 0-.129-.437.84.84 0 0 0-.359-.303 1.3 1.3 0 0 0-.534-.107q-.303 0-.534.102a.83.83 0 0 0-.36.291.76.76 0 0 0-.128.436q0 .29.188.505.189.21.492.26l.996.163A1.83 1.83 0 0 1 12.3 9h-1.068l-.647.002c-.256 0-.516.072-.75.227M4.213 11h1.009q.23 0 .406-.094a.67.67 0 0 0 .273-.274.84.84 0 0 0 .099-.41V6h1v4.358q0 .483-.214.855-.213.372-.594.582A1.8 1.8 0 0 1 5.32 12H4.213z"/><path fill="#57965C" fill-rule="evenodd" d="M15.38 12.712a.4.4 0 0 1 0 .576l-2.703 2.6a.4.4 0 0 1-.677-.289v-5.195a.4.4 0 0 1 .677-.289z" clip-rule="evenodd"/><path fill="#DB5C5C" fill-rule="evenodd" d="M7.623 13.288a.4.4 0 0 1 0-.576l2.699-2.596a.4.4 0 0 1 .677.289v5.194a.4.4 0 0 1-.678.288z" clip-rule="evenodd"/></svg>