<svg xmlns="http://www.w3.org/2000/svg" width="16" height="16" fill="none" viewBox="0 0 16 16"><path fill="#C27D04" d="M8 9a1 1 0 1 0 0-2 1 1 0 0 0 0 2"/><path fill="#C27D04" fill-rule="evenodd" d="M11.5 1.938c.854.493 1.057 1.894.672 3.653C13.888 6.138 15 7.013 15 8s-1.112 1.862-2.827 2.409c.384 1.76.182 3.16-.673 3.653-.854.494-2.169-.031-3.5-1.244-1.331 1.213-2.645 1.738-3.5 1.244-.855-.493-1.057-1.894-.673-3.653C2.112 9.862 1 8.987 1 8s1.112-1.862 2.828-2.409c-.385-1.76-.182-3.16.672-3.653.855-.494 2.169.031 3.5 1.244 1.331-1.213 2.645-1.738 3.5-1.244M11 13.196c-.066.038-.217.089-.534.006-.323-.084-.742-.29-1.23-.655a8 8 0 0 1-.528-.437q.497-.544.974-1.197c.534-.057 1.045-.14 1.523-.245q.075.353.114.676c.072.605.042 1.071-.047 1.393-.087.316-.206.421-.272.46m-2.648-2.2q-.176.211-.352.406-.176-.195-.352-.406a16 16 0 0 0 .704 0m2.594-1.295q-.255.055-.527.102a17 17 0 0 0 .352-.61q.095.258.175.508M9.732 9q.29-.505.53-1A15 15 0 0 0 9.13 6.042a15 15 0 0 0-2.262 0A15 15 0 0 0 5.74 8a15 15 0 0 0 1.13 1.959 15 15 0 0 0 2.262 0q.31-.455.601-.959m.866-2.5q.09.153.173.306.095-.257.175-.507a12 12 0 0 0-.527-.102l.18.303m-.916-1.413c.534.057 1.045.14 1.523.245a8 8 0 0 0 .114-.676c.072-.605.041-1.071-.047-1.393-.087-.316-.206-.421-.272-.46-.066-.037-.217-.088-.534-.005-.323.084-.742.291-1.23.655q-.26.195-.528.437c.33.362.658.762.974 1.197M11.363 8c.219-.491.402-.975.55-1.442q.344.112.643.24c.56.24.948.5 1.182.737.23.233.262.389.262.465s-.032.232-.262.465c-.234.238-.623.498-1.182.737a8 8 0 0 1-.643.24q-.222-.702-.55-1.442m-5.045 2.913a14 14 0 0 1-1.523-.245q-.075.353-.114.676c-.072.605-.042 1.071.047 1.393.087.316.206.421.272.46.066.037.217.088.534.005.323-.084.742-.29 1.23-.655q.26-.195.528-.437-.497-.544-.974-1.197M5.23 9.193q-.095.258-.175.508a12 12 0 0 0 .527.102 17 17 0 0 1-.352-.61m-1.142.25c.148-.468.331-.952.55-1.443a14 14 0 0 1-.55-1.442 8 8 0 0 0-.643.24c-.56.24-.948.5-1.182.737C2.032 7.768 2 7.924 2 8s.032.232.262.465c.234.238.623.498 1.182.737q.3.128.643.24M5.402 6.5q-.09.153-.173.306a12 12 0 0 1-.175-.507q.255-.055.527-.102zM8 5q-.177 0-.352.004.176-.211.352-.406.176.195.352.406zm-1.682.087q.477-.653.974-1.197a8 8 0 0 0-.529-.437c-.487-.364-.906-.57-1.229-.655-.317-.083-.468-.032-.534.006s-.185.143-.272.46c-.088.321-.119.787-.047 1.392q.039.322.114.676c.478-.105.989-.188 1.523-.245" clip-rule="evenodd"/></svg>