<svg xmlns="http://www.w3.org/2000/svg" width="16" height="16" fill="none" viewBox="0 0 16 16"><path fill="#55A76A" fill-rule="evenodd" d="M15.38 12.712a.4.4 0 0 1 0 .576l-2.703 2.6a.4.4 0 0 1-.677-.289v-5.195a.4.4 0 0 1 .677-.289z" clip-rule="evenodd"/><path fill="#E55765" fill-rule="evenodd" d="M7.623 13.288a.4.4 0 0 1 0-.576l2.699-2.596a.4.4 0 0 1 .677.289v5.194a.4.4 0 0 1-.678.288z" clip-rule="evenodd"/><path fill="#C27D04" fill-rule="evenodd" d="M12.173 5.591c.384-1.76.181-3.16-.673-3.653-.855-.494-2.169.031-3.5 1.244-1.331-1.213-2.645-1.738-3.5-1.244-.854.493-1.057 1.894-.672 3.653C2.112 6.138 1 7.013 1 8s1.112 1.862 2.827 2.409c-.384 1.76-.182 3.16.673 3.653.578.334 1.367.202 2.229-.294a1.4 1.4 0 0 1-.2-1.055c-.388.263-.725.419-.995.49-.317.082-.468.031-.534-.007s-.185-.143-.272-.46c-.089-.32-.12-.787-.047-1.392q.038-.322.114-.676c.478.106.989.188 1.523.245q.368.505.75.945l.722-.694-.142-.168q.156.004.312.004l1.076-1.035a15 15 0 0 1-2.167-.006 15 15 0 0 1-1.13-1.96 15 15 0 0 1 1.13-1.957 15 15 0 0 1 2.262 0A15 15 0 0 1 10.26 8a15 15 0 0 1-.973 1.723l.34-.327a1.37 1.37 0 0 1 .98-.394L11.233 9h.531q-.175-.492-.4-1c.218-.491.401-.975.549-1.442q.344.112.643.24c.56.24.948.5 1.182.737.23.233.262.389.262.465s-.032.232-.262.465c-.192.195-.488.405-.896.606.187.063.367.169.528.323l.35.336C14.526 9.241 15 8.644 15 8c0-.987-1.112-1.862-2.828-2.409M10.77 6.806a16 16 0 0 0-.352-.609q.27.046.527.102-.08.25-.175.507m.434-1.474a14 14 0 0 0-1.523-.245 14 14 0 0 0-.974-1.197q.268-.242.529-.437c.487-.364.906-.57 1.229-.655.317-.083.468-.032.534.006s.185.143.272.46c.088.321.119.787.047 1.392a8 8 0 0 1-.114.676m-6.15 4.369q.08-.25.175-.508a17 17 0 0 0 .352.61 12 12 0 0 1-.527-.102M4.637 8c-.219.491-.402.975-.55 1.442a8 8 0 0 1-.643-.24c-.56-.24-.948-.5-1.182-.737C2.032 8.232 2 8.076 2 8s.032-.232.262-.465c.234-.238.623-.497 1.182-.737q.3-.128.643-.24.222.702.55 1.442m.592-1.194a17 17 0 0 1 .352-.609q-.27.046-.527.102.08.25.175.507m2.42-1.802a17 17 0 0 1 .703 0Q8.176 4.793 8 4.598q-.176.195-.352.406M7.291 3.89q-.497.544-.974 1.197c-.534.057-1.045.14-1.523.245a8 8 0 0 1-.114-.676c-.072-.605-.041-1.071.047-1.393.087-.316.206-.421.272-.46.066-.037.217-.088.534-.005.323.084.742.291 1.23.655q.26.195.528.437" clip-rule="evenodd"/><path fill="#C27D04" d="M9 8a1 1 0 1 1-2 0 1 1 0 0 1 2 0"/></svg>