<svg xmlns="http://www.w3.org/2000/svg" width="16" height="16" fill="none" viewBox="0 0 16 16"><path fill="#3574F0" d="M15 3a1.93 1.93 0 0 1-.583 1.416 2.012 2.012 0 0 1-3.272-.647c-.1-.244-.15-.506-.145-.77a1.93 1.93 0 0 1 .584-1.416 2.012 2.012 0 0 1 3.271.648c.1.244.15.505.145.769m-4.604 2.604A5.3 5.3 0 0 0 6.501 4a5.3 5.3 0 0 0-3.896 1.604A5.3 5.3 0 0 0 1.001 9.5a5.3 5.3 0 0 0 1.604 3.895A5.3 5.3 0 0 0 6.5 15a5.3 5.3 0 0 0 3.895-1.604A5.3 5.3 0 0 0 12 9.5a5.3 5.3 0 0 0-1.604-3.896m-.979 3.812a2.01 2.01 0 0 1-2.833 0 2.01 2.01 0 0 1 0-2.833 2.01 2.01 0 0 1 2.833 0 2.01 2.01 0 0 1 0 2.833"/></svg>