<svg xmlns="http://www.w3.org/2000/svg" width="16" height="16" fill="none" viewBox="0 0 16 16"><rect width="6" height="6" x="9.5" y="9.5" fill="#e7effd" stroke="#3574f0" rx="1.5"/><path fill="#ebecf0" fill-rule="evenodd" d="M1 3.867C1 2.836 1.784 2 2.75 2h3.288a1 1 0 0 1 .698.283L8.5 4H13a2 2 0 0 1 2 2v2.17c-.313-.11-.65-.17-1-.17h-3a3 3 0 0 0-3 3v3H2.75C1.784 14 1 13.164 1 12.133z" clip-rule="evenodd"/><path fill="#6c707e" fill-rule="evenodd" d="m7.803 4.717.29.283H13a1 1 0 0 1 1 1v2c.35 0 .687.06 1 .17V6a2 2 0 0 0-2-2H8.5L6.736 2.283A1 1 0 0 0 6.038 2H2.75C1.784 2 1 2.836 1 3.867v8.266C1 13.164 1.784 14 2.75 14H8v-1H2.75c-.354 0-.75-.326-.75-.867V3.867c0-.54.396-.867.75-.867h3.288z" clip-rule="evenodd"/></svg>