<svg xmlns="http://www.w3.org/2000/svg" width="16" height="16" viewBox="0 0 64 64"><path fill="#0d1a2b" fill-rule="evenodd" d="M34.182.555a4.49 4.49 0 0 0-4.324 0l-22.16 12.18-.054.03-2.917 1.603A4.49 4.49 0 0 0 2.4 18.301V45.7c0 1.637.89 3.145 2.327 3.933l22.369 12.296.086.045 2.676 1.472a4.49 4.49 0 0 0 4.324 0l2.683-1.475.08-.042 22.37-12.296a4.49 4.49 0 0 0 2.327-3.933V18.303a4.49 4.49 0 0 0-2.328-3.934l-2.906-1.6-.066-.034zm1.424 31.444L56.342 20.6l.063-.034.248-.136a1.036 1.036 0 0 1 1.535.906V42.66c0 .788-.844 1.288-1.534.907l-.192-.104-.12-.068zM7.646 20.572l.054.03L28.433 32 7.7 43.396l-.115.067-.196.106a1.036 1.036 0 0 1-1.535-.906V21.339c0-.787.844-1.287 1.534-.907zm47.064-4.795L35.281 5.1a1.036 1.036 0 0 0-1.533.877V29.08l20.961-11.521a1.036 1.036 0 0 0 0-1.782zM9.337 17.561l20.956 11.52V5.975a1.036 1.036 0 0 0-1.533-.876L9.335 15.776a1.036 1.036 0 0 0 0 1.787zm.026 30.678a1.036 1.036 0 0 1-.055-1.784L30.293 34.92v23.104a1.036 1.036 0 0 1-1.493.898zm24.383 9.754V34.92l20.99 11.536a1.036 1.036 0 0 1-.058 1.782L35.242 58.92a1.036 1.036 0 0 1-1.496-.898v-.03z" clip-rule="evenodd" style="stroke-width:1.33332"/><path fill="#e7c200" d="M31.525 3.579a1.04 1.04 0 0 1 .997 0l22.16 12.18a1.036 1.036 0 0 1 0 1.816l-22.16 12.18a1.03 1.03 0 0 1-.997 0l-22.16-12.18a1.036 1.036 0 0 1 0-1.816z" style="stroke-width:1.33332"/><path fill="#ffda18" d="M5.855 21.337c0-.788.844-1.288 1.534-.908l22.37 12.295a1.04 1.04 0 0 1 .537.908v24.36c0 .786-.844 1.286-1.535.906L6.391 46.605a1.04 1.04 0 0 1-.536-.91Z" style="stroke-width:1.33332"/><path fill="#fff" d="M56.656 20.43a1.036 1.036 0 0 1 1.533.906v24.36a1.04 1.04 0 0 1-.536.908L35.283 58.9a1.036 1.036 0 0 1-1.535-.908v-24.36c0-.377.206-.725.537-.907z" style="stroke-width:1.33332"/><path fill="#0d1a2b" d="m15.25 40.45-.003.034-5.244-2.76.002-.033c.122-1.631 1.395-2.336 2.843-1.574 1.448.76 2.523 2.702 2.401 4.334m8.251 4.762-.003.033-5.243-2.758.002-.034c.12-1.632 1.394-2.337 2.842-1.574 1.448.76 2.524 2.7 2.4 4.333z" style="stroke-width:1.33332"/></svg>