
<!-- Copyright 2000-2025 JetBrains s.r.o. and contributors. Use of this source code is governed by the Apache 2.0 license. -->
<svg xmlns="http://www.w3.org/2000/svg" width="16" height="16" viewBox="0 0 16 16">
  <rect width="8" height="1" x="3" y="1" fill="#548AF7" rx=".5"/>
  <rect width="5" height="1" x="3" y="3" fill="#548AF7" rx=".5"/>
  <rect width="3" height="1" x="3" y="5" fill="#A571E6" rx=".5"/>
  <rect width="4" height="1" x="9" y="3" fill="#A571E6" rx=".5"/>
  <rect width="4" height="1" x="10" y="5" fill="#D6AE58" rx=".5"/>
  <rect width="4" height="1" x="9" y="7" fill="#548AF7" rx=".5"/>
  <rect width="3" height="1" x="3" y="7" fill="#DB5C5C" rx=".5"/>
  <rect width="1" height="1" x="7" y="7" fill="#D6AE58" rx=".5"/>
  <rect width="2" height="1" x="3" y="11" fill="#548AF7" rx=".5"/>
  <rect width="1" height="1" x="6" y="11" fill="#A571E6" rx=".5"/>
  <rect width="4" height="1" x="3" y="13" fill="#DB5C5C" rx=".5"/>
  <rect width="6" height="1" x="5" y="9" fill="#D6AE58" rx=".5"/>
  <rect width="1" height="1" x="3" y="9" fill="#A571E6" rx=".5"/>
</svg>