<svg xmlns="http://www.w3.org/2000/svg" width="16" height="16" fill="none" viewBox="0 0 16 16"><path fill="#CED0D6" fill-rule="evenodd" d="m1.549 5.289-.062.15a.73.73 0 0 0 .06.64l.902 1.525a.78.78 0 0 1 0 .792l-.902 1.525a.73.73 0 0 0-.06.64l.061.15m0-5.422a7 7 0 0 1 .982-1.652.73.73 0 0 1 .584-.269l1.77.02.053-.002a.78.78 0 0 0 .633-.395l.868-1.542a.73.73 0 0 1 .526-.372 7 7 0 0 1 2.08 0 .73.73 0 0 1 .525.37v.002l.87 1.542c.138.248.402.4.685.397l1.77-.02a.73.73 0 0 1 .584.269l.1.127a7 7 0 0 1 .943 1.675.73.73 0 0 1-.06.64l-.902 1.525a.78.78 0 0 0 0 .792l.902 1.525c.115.194.142.43.06.64l-.06.148-.001.002a7 7 0 0 1-.982 1.652.73.73 0 0 1-.584.269l-1.77-.02a.78.78 0 0 0-.686.396l-.868 1.543a.73.73 0 0 1-.526.372 7 7 0 0 1-1.92.022h-.001l-.16-.022a.73.73 0 0 1-.525-.372l-.868-1.543a.78.78 0 0 0-.686-.396l-1.77.02a.73.73 0 0 1-.584-.269 7 7 0 0 1-.982-1.652M3.227 4.37a6 6 0 0 0-.757 1.306l.84 1.418c.33.559.33 1.253 0 1.812l-.84 1.418.034.08c.192.438.436.85.723 1.226l1.646-.018c.649-.007 1.25.34 1.568.906l.808 1.435.027.003a6 6 0 0 0 1.483-.003l.808-1.435c.318-.566.92-.913 1.568-.906l1.647.018.05-.067a6 6 0 0 0 .706-1.24l-.84-1.417a1.78 1.78 0 0 1 0-1.811l.84-1.419-.034-.08a6 6 0 0 0-.722-1.226l-1.647.018a1.78 1.78 0 0 1-1.568-.906l-.808-1.435-.026-.003a6 6 0 0 0-1.484.003l-.808 1.435c-.318.566-.92.913-1.568.906zm4.777 5.28a1.651 1.651 0 1 0 0-3.302 1.651 1.651 0 0 0 0 3.302M10.655 8a2.651 2.651 0 1 1-5.302 0 2.651 2.651 0 0 1 5.302 0" clip-rule="evenodd"/></svg>