<svg xmlns="http://www.w3.org/2000/svg" width="16" height="16" fill="none" viewBox="0 0 16 16"><path fill="url(#a)" d="M7.917 1a10 10 0 0 0-1.614.136c-1.429.25-1.688.773-1.688 1.737v1.272H7.99v.425H3.347c-.981 0-1.84.583-2.11 1.693-.31 1.272-.323 2.066 0 3.395.24.988.814 1.693 1.795 1.693h1.161V9.825c0-1.102.965-2.075 2.11-2.075h3.373c.939 0 1.688-.765 1.688-1.697v-3.18c0-.906-.772-1.586-1.688-1.737A11 11 0 0 0 7.916 1M6.09 2.024a.637.637 0 0 1 0 1.273.636.636 0 0 1 0-1.273"/><path fill="url(#b)" d="M11.785 4.57v1.483c0 1.15-.985 2.117-2.11 2.117H6.304c-.924 0-1.689.783-1.689 1.698v3.18c0 .905.796 1.438 1.689 1.697 1.069.311 2.094.367 3.373 0 .85-.243 1.688-.733 1.688-1.697v-1.273H7.991v-.424h5.062c.981 0 1.347-.677 1.688-1.694.353-1.046.338-2.052 0-3.394-.242-.966-.706-1.693-1.688-1.693zm-1.897 8.054a.636.636 0 0 1 0 1.273.637.637 0 0 1 0-1.273"/><defs><linearGradient id="a" x1="1" x2="8.715" y1="1" y2="7.647" gradientUnits="userSpaceOnUse"><stop stop-color="#5A9FD4"/><stop offset="1" stop-color="#306998"/></linearGradient><linearGradient id="b" x1="9.807" x2="7.054" y1="13.151" y2="9.251" gradientUnits="userSpaceOnUse"><stop stop-color="#F4C20E"/><stop offset="1" stop-color="#FBDC3E"/></linearGradient></defs></svg>