<svg xmlns="http://www.w3.org/2000/svg" width="16" height="16" fill="none" viewBox="0 0 16 16"><path fill="#402929" d="M8 1a7 7 0 1 0 .83 13.951l-1.39-1.39a1.5 1.5 0 0 1 0-2.122l.792-.793a2.5 2.5 0 0 1 3.248-.247l2.96-2.96c.148-.148.32-.26.504-.332A7 7 0 0 0 8 1"/><path fill="#DB5C5C" d="M7.877 13.999A6 6 0 1 1 14 7.879l.44-.44c.149-.148.321-.26.505-.332A7.001 7.001 0 0 0 1 8a7 7 0 0 0 7.83 6.951z"/><path fill="#CED0D6" d="M15.854 8.854a.5.5 0 0 0-.708-.708L11.5 11.793l-.44-.44a1.5 1.5 0 0 0-2.12 0l-.794.793a.5.5 0 0 0 .708.708l.792-.793a.5.5 0 0 1 .708 0l.439.439-.147.146-1 1a.5.5 0 0 0 .708.708l1.146-1.147.44.44a.5.5 0 0 1 0 .707l-.794.792a.5.5 0 0 0 .708.708l.792-.793a1.5 1.5 0 0 0 0-2.122l-.439-.439z"/><path fill="#DB5C5C" d="M8.296 6.315c.34-.668.958-1.07 1.77-1.07 1.15 0 1.934.826 1.934 2.114v2.52l-.52.52a2.5 2.5 0 0 0-.479-.276V7.438c0-.82-.425-1.33-1.177-1.33-.804 0-1.33.573-1.33 1.482v2.828a3 3 0 0 0-.262.229l-.107.107h-.62V7.438c0-.82-.43-1.33-1.176-1.33-.815 0-1.33.573-1.33 1.482v3.164H4V5.372h.962v.877c.32-.64.887-1.003 1.645-1.003.799 0 1.397.397 1.689 1.07"/></svg>