<svg xmlns="http://www.w3.org/2000/svg" width="16" height="16" fill="none" viewBox="0 0 16 16"><path fill="#81D8F7" d="M8 9.248a1.248 1.248 0 1 0 0-2.496 1.248 1.248 0 0 0 0 2.496"/><path stroke="#81D8F7" stroke-width=".609" d="M8 10.557c3.698 0 6.696-1.145 6.696-2.557S11.698 5.443 8 5.443 1.304 6.588 1.304 8 4.302 10.557 8 10.557Z"/><path stroke="#81D8F7" stroke-width=".609" d="M5.786 9.278c1.849 3.203 4.34 5.227 5.562 4.52 1.223-.705.715-3.874-1.134-7.076-1.849-3.203-4.339-5.227-5.562-4.52-1.223.705-.715 3.874 1.134 7.076Z"/><path stroke="#81D8F7" stroke-width=".609" d="M5.786 6.722c-1.849 3.202-2.357 6.37-1.134 7.077s3.713-1.318 5.562-4.52c1.849-3.203 2.356-6.372 1.134-7.078-1.223-.706-3.713 1.318-5.562 4.52Z"/></svg>