<svg xmlns="http://www.w3.org/2000/svg" width="16" height="16" fill="none" viewBox="0 0 16 16"><path fill="#BFBFBF" d="M15 5.088C15 3.877 12.5 1.15 12.333 1c.6 2.451.525 2.085.626 2.868.026.206.037.42-.054.611C12.49 5.353 11 5.844 11 5.844l2.333 1.817S15 6.147 15 5.088m-14 0C1 3.877 3.5 1.15 3.667 1c-.6 2.451-.526 2.085-.626 2.868-.026.206-.037.42.054.611C3.51 5.353 5 5.844 5 5.844L2.667 7.661S1 6.147 1 5.088"/><path fill="#7D9199" d="M8 3.876c2.613 0 4.51 1.668 5.333 3.785v3.633s-1.666.606-2.666 1.212c-1 .605-2.5 2.422-2.5 2.422H8zm0 0c-2.613 0-4.51 1.668-5.334 3.785v3.633s1.667.606 2.667 1.212c1 .605 2.5 2.422 2.5 2.422h.166z"/><path fill="#fff" d="M8 8.266c.369 0 .667-.271.667-.606s-.298-.605-.666-.605-.667.27-.667.605.298.606.667.606"/></svg>