<svg xmlns="http://www.w3.org/2000/svg" width="16" height="16" fill="none" viewBox="0 0 16 16"><path fill="#402929" fill-rule="evenodd" d="m.25 5.827 7.353 9.651a.5.5 0 0 0 .796 0l7.353-9.65a.5.5 0 0 0-.024-.636L12.3 1.336A1 1 0 0 0 11.552 1H4.45a1 1 0 0 0-.747.336L.275 5.192a.5.5 0 0 0-.024.635" clip-rule="evenodd"/><path fill="#DB5C5C" fill-rule="evenodd" d="m.25 5.827 7.353 9.651a.5.5 0 0 0 .796 0l7.353-9.65a.5.5 0 0 0-.024-.636L12.3 1.336A1 1 0 0 0 11.552 1H4.45a1 1 0 0 0-.747.336L.275 5.192a.5.5 0 0 0-.024.635m8.997 6.888L14.363 6h-2.996zM14.219 5l-2.667-3H9.81l1.5 3zM8.692 2H7.31l-1.5 3h4.382zm-2.5 0H4.45L1.784 5h2.908zM1.639 6l5.116 6.714L4.635 6zm6.362 7.34L5.683 6h4.636z" clip-rule="evenodd"/></svg>