<svg xmlns="http://www.w3.org/2000/svg" width="16" height="16" fill="none" viewBox="0 0 16 16"><path fill="#C69" d="M13.811 2.713c-.42-1.645-3.146-2.186-5.727-1.269-1.536.546-3.199 1.402-4.394 2.52-1.422 1.33-1.649 2.488-1.555 2.971.33 1.707 2.667 2.822 3.628 3.65v.004c-.283.14-2.357 1.19-2.843 2.263-.512 1.132.082 1.944.475 2.054 1.218.339 2.468-.27 3.14-1.273.647-.966.593-2.215.312-2.836a3.7 3.7 0 0 1 1.417-.081c1.624.19 1.943 1.204 1.882 1.628-.06.425-.401.658-.515.729s-.15.095-.14.147c.014.076.067.073.164.057.134-.023.853-.345.884-1.129.04-.995-.914-2.108-2.602-2.079-.696.012-1.133.079-1.448.196l-.072-.08c-1.044-1.113-2.973-1.9-2.891-3.397.03-.544.219-1.977 3.707-3.715 2.857-1.424 5.145-1.032 5.54-.164.565 1.24-1.223 3.546-4.19 3.879-1.13.127-1.726-.311-1.874-.475-.156-.171-.179-.18-.237-.147-.095.053-.035.204 0 .295.088.23.452.64 1.072.843.545.178 1.872.277 3.478-.344 1.798-.696 3.202-2.63 2.79-4.247m-7.649 8.381a2.37 2.37 0 0 1-.07 1.523q-.027.068-.06.135a2.6 2.6 0 0 1-.428.623c-.538.587-1.29.81-1.612.622-.348-.201-.173-1.029.45-1.688.672-.71 1.637-1.166 1.637-1.166l-.001-.003z"/></svg>