<svg xmlns="http://www.w3.org/2000/svg" width="16" height="16" fill="none" viewBox="0 0 16 16"><path fill="#FAF5FF" d="M8 1.5c-3.038 0-5.5.941-5.5 2.103v8.831c0 1.162 2.462 2.103 5.5 2.103s5.5-.941 5.5-2.103V3.603C13.5 2.44 11.038 1.5 8 1.5"/><ellipse cx="8" cy="3.603" stroke="#834DF0" rx="5.5" ry="2.103"/><path stroke="#834DF0" d="M13.5 12.434c0 1.162-2.462 2.103-5.5 2.103s-5.5-.941-5.5-2.103m11-2.944c0 1.162-2.462 2.103-5.5 2.103s-5.5-.941-5.5-2.103m11-2.943c0 1.16-2.462 2.102-5.5 2.102s-5.5-.941-5.5-2.102m11-3.155v9.126m-11-9.126v9.126"/></svg>