<svg xmlns="http://www.w3.org/2000/svg" width="16" height="16" viewBox="0 0 16 16"><path fill="#EB4548" fill-rule="evenodd" d="M11.56 13.1c-1.65.988-3.917 1.09-6.198.076-1.847-.814-3.38-2.24-4.362-3.869.472.408 1.022.734 1.611 1.018 2.356 1.145 4.712 1.066 6.37.003q-.003 0-.003-.003C6.62 8.452 4.615 6.01 3.122 4.013c-.314-.325-.55-.733-.786-1.1 1.808 1.711 4.677 3.87 5.698 4.48C5.874 5.032 3.947 2.1 4.026 2.182c3.419 3.584 6.602 5.62 6.602 5.62.106.061.187.113.252.158q.105-.272.18-.565c.55-2.077-.078-4.44-1.454-6.394 3.183 1.995 5.07 5.742 4.284 8.878q-.03.127-.067.25l.028.035c1.571 2.036 1.14 4.194.943 3.787-.853-1.729-2.431-1.2-3.234-.85"/></svg>