<svg xmlns="http://www.w3.org/2000/svg" width="16" height="16" fill="none" viewBox="0 0 16 16"><path fill="#14B4C6" fill-rule="evenodd" d="M8 4Q5.2 4 4.5 6.82q1.05-1.41 2.45-1.058c.533.134.913.523 1.334.954.687.701 1.481 1.513 3.216 1.513q2.8 0 3.5-2.82-1.05 1.41-2.45 1.058c-.533-.134-.913-.523-1.334-.954C10.529 4.812 9.735 4 8 4M4.5 8.23q-2.8 0-3.5 2.819 1.05-1.41 2.45-1.057c.533.134.913.523 1.334.953.687.702 1.481 1.514 3.216 1.514q2.8 0 3.5-2.82-1.05 1.41-2.45 1.058c-.533-.134-.913-.524-1.334-.954C7.029 9.04 6.235 8.229 4.5 8.229" clip-rule="evenodd"/></svg>