<svg xmlns="http://www.w3.org/2000/svg" width="16" height="16" fill="none" viewBox="0 0 16 16"><path fill="#3574F0" d="M12 2a2 2 0 0 1 2 2v6l-.63-.606c-.28-.269-.62-.39-.952-.393-.537-.003-.914-.002-1.376 0l-.456.001a1.37 1.37 0 0 0-.958.394L6.93 11.99A1.4 1.4 0 0 0 6.92 14H4a2 2 0 0 1-2-2V4a2 2 0 0 1 2-2z"/><path fill="#fff" d="M12.3 9c-.476-.002-.83 0-1.259 0l-.455.002c-.256 0-.516.072-.75.227a1.7 1.7 0 0 1-.516-.251 1.6 1.6 0 0 1-.496-.577 1.7 1.7 0 0 1-.171-.765q0-.496.256-.89a1.75 1.75 0 0 1 .723-.62 2.34 2.34 0 0 1 1.043-.226q.594 0 1.056.218.466.218.726.607.261.39.265.89H11.71a.77.77 0 0 0-.128-.437.84.84 0 0 0-.359-.303 1.3 1.3 0 0 0-.534-.107q-.303 0-.535.102a.83.83 0 0 0-.359.291.76.76 0 0 0-.128.436q0 .29.188.505.188.21.492.26l.996.163A1.83 1.83 0 0 1 12.3 9M7.872 6H3.135v1H5v5h1V7h1.872z"/><path fill="#55A76A" fill-rule="evenodd" d="M15.38 12.712a.4.4 0 0 1 0 .576l-2.703 2.6a.4.4 0 0 1-.677-.289v-5.195a.4.4 0 0 1 .677-.289z" clip-rule="evenodd"/><path fill="#E55765" fill-rule="evenodd" d="M7.623 13.288a.4.4 0 0 1 0-.576l2.699-2.596a.4.4 0 0 1 .677.289v5.194a.4.4 0 0 1-.678.288z" clip-rule="evenodd"/></svg>