<svg xmlns="http://www.w3.org/2000/svg" width="16" height="16" fill="none" viewBox="0 0 16 16"><path fill="#3574F0" d="M14 4a2 2 0 0 0-2-2H4a2 2 0 0 0-2 2v8a2 2 0 0 0 2 2h8a2 2 0 0 0 2-2z"/><path fill="#fff" d="M3.135 6h4.737v1H6v5H5V7H3.135zm7.549 6.103q-.637 0-1.129-.231a1.9 1.9 0 0 1-.77-.65 1.7 1.7 0 0 1-.282-.958h1.014q0 .283.15.505.149.222.414.346.27.12.615.12.339 0 .595-.111a.9.9 0 0 0 .393-.312.8.8 0 0 0 .141-.47.86.86 0 0 0-.735-.873l-1.014-.17a1.8 1.8 0 0 1-.756-.309 1.6 1.6 0 0 1-.496-.577 1.7 1.7 0 0 1-.171-.765q0-.495.256-.89a1.75 1.75 0 0 1 .723-.619 2.3 2.3 0 0 1 1.043-.227q.594 0 1.056.218.466.219.727.607.26.39.265.89H11.71a.77.77 0 0 0-.129-.436.84.84 0 0 0-.359-.304 1.3 1.3 0 0 0-.534-.107q-.303 0-.535.103a.83.83 0 0 0-.359.29.76.76 0 0 0-.128.437q0 .29.188.504.189.21.492.26l.996.163q.44.077.782.33.347.252.535.628.188.375.188.8 0 .511-.274.927a1.86 1.86 0 0 1-.765.646 2.6 2.6 0 0 1-1.124.235"/></svg>