<svg xmlns="http://www.w3.org/2000/svg" width="16" height="16" fill="none" viewBox="0 0 16 16"><path fill="url(#a)" d="m.983 2.87 6.58 11.843a.5.5 0 0 0 .874 0l6.58-11.843a.5.5 0 0 0-.503-.738l-6.448.86a.5.5 0 0 1-.132 0l-6.448-.86a.5.5 0 0 0-.503.738"/><path fill="url(#b)" d="m12.806 3.871-4.66 8.895c-.107.204-.418.094-.373-.132l.66-3.296a.2.2 0 0 0-.26-.229l-.858.286a.2.2 0 0 1-.26-.223l.395-2.371a.2.2 0 0 0-.246-.227l-1.433.358a.2.2 0 0 1-.248-.21l.464-5.567a.2.2 0 0 1 .167-.18l5.504-.918a.2.2 0 0 1 .22.267l-1.252 3.34a.2.2 0 0 0 .227.265l1.736-.347a.2.2 0 0 1 .217.29"/><defs><linearGradient id="a" x1=".884" x2="9.51" y1="1.568" y2="12.812" gradientUnits="userSpaceOnUse"><stop stop-color="#41D1FF"/><stop offset="1" stop-color="#BD34FE"/></linearGradient><linearGradient id="b" x1="7.599" x2="9.166" y1=".291" y2="11.597" gradientUnits="userSpaceOnUse"><stop stop-color="#FFEA83"/><stop offset=".083" stop-color="#FFDD35"/><stop offset="1" stop-color="#FFA800"/></linearGradient></defs></svg>