<svg xmlns="http://www.w3.org/2000/svg" width="16" height="16" fill="none" viewBox="0 0 16 16"><path fill="#498DB7" d="M14.103 12.204a5.25 5.25 0 0 0-1.98.911c-.908.57-1.89 1.015-2.917 1.321a.82.82 0 0 1-.492.275A31 31 0 0 1 5.491 15c-.582.004-.938-.15-1.037-.388a.787.787 0 0 1 .433-1.037 2 2 0 0 1-.257-.19c-.086-.085-.176-.257-.203-.194-.113.275-.172.947-.474 1.25-.415.42-1.2.28-1.664.036-.51-.27.036-.906.036-.906a.367.367 0 0 1-.496-.172 2.42 2.42 0 0 1-.333-1.474 2.7 2.7 0 0 1 .874-1.448 4.66 4.66 0 0 1 .33-2.2 5.2 5.2 0 0 1 1.582-1.83s-.97-1.074-.608-2.039c.234-.631.329-.626.406-.654.272-.084.52-.23.726-.428a2.63 2.63 0 0 1 2.205-.85S7.599.699 8.137 1.044q.448.687.767 1.444s.64-.374.712-.235c.369.978.46 2.04.262 3.066a7 7 0 0 1-1.3 2.706c-.068.112.775.469 1.308 1.943.491 1.35.054 2.48.13 2.606l.018.032s.564.045 1.696-.654a4.25 4.25 0 0 1 2.139-.802.54.54 0 0 1 .234 1.055"/></svg>