<svg version="1.0" xmlns="http://www.w3.org/2000/svg" viewBox="0 0 16 16" xml:space="preserve"><path fill-rule="evenodd" clip-rule="evenodd" fill="#9AA7B0" fill-opacity=".7" d="M1 16h15V9H1z"/><path fill-rule="evenodd" clip-rule="evenodd" fill="#9AA7B0" fill-opacity=".8" d="M7 1 3 5h4z"/><path fill-rule="evenodd" clip-rule="evenodd" fill="#9AA7B0" fill-opacity=".8" d="M8 1v5H3v2h10V1z"/><g opacity=".7" fill="#231F20"><path d="M4.89 13.739H3.422l-.338 1.226H2.14l1.512-4.96h1.02l1.55 4.96h-.994L4.89 13.74zm-1.27-.823h1.066l-.53-1.902-.536 1.902zM8.354 15.07c-.357 0-.65-.045-.88-.136a1.216 1.216 0 0 1-.546-.408 1.654 1.654 0 0 1-.28-.672 4.807 4.807 0 0 1-.08-.93v-2.92h.97v2.857c0 .255.012.47.037.641.026.172.07.31.134.414a.53.53 0 0 0 .255.223c.107.045.243.066.409.066.166 0 .3-.021.405-.066.104-.044.187-.118.248-.223s.105-.242.128-.414.035-.386.035-.641v-2.857h.97v2.926c0 .345-.027.648-.08.913a1.666 1.666 0 0 1-.28.669c-.135.182-.319.32-.552.415-.234.095-.532.143-.893.143zM10.74 14.965l1.518-2.585-1.347-2.376h1.104l.823 1.623.849-1.623h1.052l-1.34 2.348 1.512 2.613h-1.103l-.995-1.825-1.002 1.825h-1.072z"/></g></svg>