<svg version="1.0" xmlns="http://www.w3.org/2000/svg" viewBox="0 0 16 16" xml:space="preserve"><path fill-rule="evenodd" clip-rule="evenodd" fill="#B99BF8" fill-opacity=".7" d="M1 16h15V9H1z"/><path fill-rule="evenodd" clip-rule="evenodd" fill="#9AA7B0" fill-opacity=".8" d="M7 1 3 5h4z"/><path fill-rule="evenodd" clip-rule="evenodd" fill="#9AA7B0" fill-opacity=".8" d="M8 1v5H3v2h10V1z"/><g opacity=".7" fill="#231F20"><path d="M2.047 14.965v-4.96h1.71c.228 0 .425.03.59.093s.3.151.41.265c.108.114.187.247.237.4.05.153.075.321.075.502v.118c0 .214-.041.407-.123.58a.908.908 0 0 1-.377.402c.193.09.34.235.443.436.102.202.154.432.154.687v.11c0 .434-.122.77-.365 1.009s-.619.358-1.129.358H2.047zm.867-2.962h.753c.16 0 .288-.045.382-.136.094-.09.141-.226.141-.407v-.097c0-.376-.189-.565-.565-.565h-.71v1.205zm0 2.168h.77c.193 0 .34-.049.443-.146.102-.098.154-.25.154-.453v-.119c0-.436-.207-.655-.62-.655h-.747v1.373zM5.936 14.965v-4.96h1.71c.229 0 .425.03.59.093s.301.151.41.265c.108.114.187.247.237.4.05.153.075.321.075.502v.118c0 .214-.041.407-.123.58a.908.908 0 0 1-.377.402c.193.09.34.235.443.436.103.202.154.432.154.687v.11c0 .434-.122.77-.365 1.009s-.619.358-1.128.358H5.936zm.867-2.962h.753c.16 0 .288-.045.382-.136.094-.09.142-.226.142-.407v-.097c0-.376-.19-.565-.566-.565h-.71v1.205zm0 2.168h.77c.193 0 .341-.049.443-.146.103-.098.154-.25.154-.453v-.119c0-.436-.207-.655-.62-.655h-.747v1.373zM10.813 10.004v4.097h1.842l-.102.864H9.897v-4.96h.915z"/></g></svg>