<svg version="1.0" xmlns="http://www.w3.org/2000/svg" viewBox="0 0 16 16" xml:space="preserve"><path fill-rule="evenodd" clip-rule="evenodd" fill="#F4AF3D" fill-opacity=".7" d="M1 16h15V9H1z"/><path fill-rule="evenodd" clip-rule="evenodd" fill="#9AA7B0" fill-opacity=".8" d="M7 1 3 5h4z"/><path fill-rule="evenodd" clip-rule="evenodd" fill="#9AA7B0" fill-opacity=".8" d="M8 1v5H3v2h10V1z"/><g opacity=".7" fill="#231F20"><path d="M2.056 14.965v-4.96h1.743c.233 0 .434.03.602.093a1.045 1.045 0 0 1 .66.665c.05.153.076.321.076.502v.118c0 .214-.042.407-.125.58a.916.916 0 0 1-.384.402.934.934 0 0 1 .451.436c.105.202.156.432.156.687v.11c0 .434-.123.77-.37 1.009s-.632.358-1.152.358H2.056zm.883-2.962h.768a.544.544 0 0 0 .39-.136c.096-.09.144-.226.144-.407v-.097c0-.376-.192-.565-.577-.565H2.94v1.205zm0 2.168h.787c.196 0 .346-.049.45-.146.105-.098.157-.25.157-.453v-.119c0-.436-.21-.655-.632-.655h-.762v1.373zM6.955 14.965H6.02v-4.96h.934v4.96zM8.053 14.965v-4.96h1.744c.232 0 .433.03.601.093s.307.151.418.265c.11.114.192.247.243.4s.076.321.076.502v.118c0 .214-.041.407-.125.58s-.213.306-.385.402a.926.926 0 0 1 .451.436c.106.202.156.432.156.687v.11c0 .434-.123.77-.37 1.009s-.632.358-1.151.358H8.053zm.884-2.962h.768a.54.54 0 0 0 .389-.136c.097-.09.144-.226.144-.407v-.097c0-.376-.191-.565-.576-.565h-.725v1.205zm0 2.168h.786c.197 0 .347-.049.45-.146.106-.098.157-.25.157-.453v-.119c0-.436-.21-.655-.63-.655h-.763v1.373z"/></g></svg>