<svg version="1.0" xmlns="http://www.w3.org/2000/svg" viewBox="0 0 16 16" xml:space="preserve"><g fill="#9AA7B0" fill-opacity=".8"><path d="M7 1 3 5h4zM10.53 12.969c-.396.106-.789.234-1.181.366-.38.66-.752 1.206-1.121 1.665H13v-1.494a6.043 6.043 0 0 1-1.274-.829c-.384.086-.794.18-1.197.292z"/><path d="M7.574 12.305A27.92 27.92 0 0 0 9 8.862c-.527-1.245-.814-2.83-.309-3.743.257-.424.711-.686 1.167-.686 1.034 0 1.702.855 1.702 2.178 0 .708-.174 1.64-.503 2.708l.025.04c.133.214.283.457.452.685.238.337.5.654.781.948.221-.04.452-.069.685-.091V1H8v5H3v9h1.312c.004-.03 0-.059.006-.089.228-1.151 2.056-2.1 3.256-2.606z"/></g><path fill="#C41616" fill-opacity=".8" d="M5.828 16c-.387 0-.627-.188-.706-.25-.218-.216-.3-.47-.248-.73.136-.686 1.298-1.535 3.11-2.27.258-.501.544-1.108.844-1.83.287-.686.55-1.389.778-2.087-.615-1.34-.788-2.772-.418-3.439A.818.818 0 0 1 9.858 5c.837 0 1.134.832 1.134 1.61 0 .705-.193 1.67-.556 2.789.176.271.39.642.642.982.31.437.662.85 1.05 1.228a7.818 7.818 0 0 1 1.68-.182c.948 0 1.633.195 1.98.563.17.193.26.55.107.862-.087.245-.344.545-1.062.545-.553 0-1.672-.173-2.95-1.335a30.2 30.2 0 0 0-1.504.36c-.472.127-.944.286-1.416.445C8.44 13.8 7.11 16 5.828 16zm1.748-2.579c-1.309.595-2.168 1.236-2.258 1.689-.025.105.007.198.098.29.052.04.126.065.2.065.436 0 1.179-.778 1.96-2.044zm4.962-1.448c.543.438 1.086.72 1.658.857.107.018.178.031.263.031.306 0 .53-.142.574-.362.069-.362-.21-.5-.457-.554-.172-.044-.43-.064-.817-.064h-.019c-.402 0-.806.03-1.202.092zm-2.387-1.787c-.124.345-.252.7-.4 1.047-.151.358-.313.71-.486 1.057.336-.11.676-.21 1.017-.3.446-.122.898-.228 1.354-.314-.35-.258-.655-.627-.948-1.006a9.166 9.166 0 0 1-.458-.703l-.08.219zM9.827 5.47a.29.29 0 0 0-.255.163c-.205.372-.19 1.35.216 2.544.248-.863.384-1.59.384-2.06 0-.295-.06-.647-.345-.647z"/></svg>