<svg xmlns="http://www.w3.org/2000/svg" width="16" height="16" viewBox="0 0 16 16">
  <g fill="none" fill-rule="evenodd">
    <rect width="15" height="7" x="1" y="9" fill="#F98B9E" fill-opacity=".7"/>
    <polygon fill="#9AA7B0" fill-opacity=".8" points="7 1 3 5 7 5"/>
    <polygon fill="#9AA7B0" fill-opacity=".8" points="8 1 8 6 3 6 3 8 13 8 13 1"/>
    <path fill="#231F20" fill-opacity=".7" d="M0.833801116,1.50152588 C0.833801116,1.13305664 1.10057143,1 1.58142857,1 C1.586,1 1.916,1 2.57142857,1 L2.57142857,0 C1.93942857,0 1.61371429,0 1.59428571,0 C0.666857143,0 0,0.45916748 0,1.45 C0,2.31452637 0.359619141,2.69049072 1.26107352,2.91607666 C1.92136174,3.08131157 2.13956143,3.22862939 2.13956143,3.548 C2.13956143,3.86737061 1.83293806,4 1.26107352,4 C1.25193066,4 0.917287109,4 0.257142857,4 L0.257142857,5 C0.921858538,5 1.25650209,5 1.26107352,5 C3,5 3,4 3,3.548 C3,2.91607666 2.58879743,2.42071533 1.85030692,2.14685059 C1.11181641,1.87298584 0.833801116,1.86999512 0.833801116,1.50152588 Z" transform="translate(2 10)"/>
    <path fill="#231F20" fill-opacity=".7" d="M0.833801116,1.50152588 C0.833801116,1.13305664 1.10057143,1 1.58142857,1 C1.586,1 1.916,1 2.57142857,1 L2.57142857,0 C1.93942857,0 1.61371429,0 1.59428571,0 C0.666857143,0 0,0.45916748 0,1.45 C0,2.31452637 0.359619141,2.69049072 1.26107352,2.91607666 C1.92136174,3.08131157 2.13956143,3.22862939 2.13956143,3.548 C2.13956143,3.86737061 1.83293806,4 1.26107352,4 C1.25193066,4 0.917287109,4 0.257142857,4 L0.257142857,5 C0.921858538,5 1.25650209,5 1.26107352,5 C3,5 3,4 3,3.548 C3,2.91607666 2.58879743,2.42071533 1.85030692,2.14685059 C1.11181641,1.87298584 0.833801116,1.86999512 0.833801116,1.50152588 Z" transform="translate(9 10)"/>
    <path fill="#231F20" fill-opacity=".7" d="M0.833801116,1.50152588 C0.833801116,1.13305664 1.10057143,1 1.58142857,1 C1.586,1 1.916,1 2.57142857,1 L2.57142857,0 C1.93942857,0 1.61371429,0 1.59428571,0 C0.666857143,0 0,0.45916748 0,1.45 C0,2.31452637 0.359619141,2.69049072 1.26107352,2.91607666 C1.92136174,3.08131157 2.13956143,3.22862939 2.13956143,3.548 C2.13956143,3.86737061 1.83293806,4 1.26107352,4 C1.25193066,4 0.917287109,4 0.257142857,4 L0.257142857,5 C0.921858538,5 1.25650209,5 1.26107352,5 C3,5 3,4 3,3.548 C3,2.91607666 2.58879743,2.42071533 1.85030692,2.14685059 C1.11181641,1.87298584 0.833801116,1.86999512 0.833801116,1.50152588 Z" transform="translate(12 10)"/>
    <path fill="#231F20" fill-opacity=".7" d="M2.52,3 L1.99689697,1.4 L1.48,3 L2.52,3 Z M1.6872,0 L2.312,0 L4,5 L3.12,5 L2.72,4 L1.28,4 L0.88,5 L0,5 L1.6872,0 Z" transform="translate(5 10)"/>
  </g>
</svg>
