<svg version="1.0" xmlns="http://www.w3.org/2000/svg" viewBox="0 0 16 16" xml:space="preserve"><path fill-rule="evenodd" clip-rule="evenodd" fill="#40B6E0" fill-opacity=".7" d="M1 16h15V9H1z"/><path fill-rule="evenodd" clip-rule="evenodd" fill="#9AA7B0" fill-opacity=".8" d="M7 1 3 5h4z"/><path fill-rule="evenodd" clip-rule="evenodd" fill="#9AA7B0" fill-opacity=".8" d="M8 1v5H3v2h10V1z"/><path fill="#231F20" d="m5.747 10.004-.12.863H4.284v4.098H3.224v-4.098H1.761l.118-.863h3.868zM9.004 11.04l-.106.828H6.854v1.199h1.938l-.1.829H6.855v1.275h2.15l-.106.83h-3.05v-4.962h3.156zM9.157 14.966l1.66-2.585-1.471-2.377h1.205l.9 1.624.926-1.624h1.15l-1.464 2.349 1.652 2.613h-1.206l-1.087-1.826-1.094 1.826h-1.17z" opacity=".7"/></svg>