<!--
https://github.com/intellij-rust/intellij-rust/blob/master/intellij-toml/core/src/main/resources/icons/toml-file.svg

The MIT License (MIT)

Copyright (c) 2015 Aleksey Kladov, Evgeny Kurbatsky, Alexey Kudinkin and contributors
Copyright (c) 2016 JetBrains

Permission is hereby granted, free of charge, to any person obtaining a copy
of this software and associated documentation files (the "Software"), to deal
in the Software without restriction, including without limitation the rights
to use, copy, modify, merge, publish, distribute, sublicense, and/or sell
copies of the Software, and to permit persons to whom the Software is
furnished to do so, subject to the following conditions:

The above copyright notice and this permission notice shall be included in all
copies or substantial portions of the Software.

THE SOFTWARE IS PROVIDED "AS IS", WITHOUT WARRANTY OF ANY KIND, EXPRESS OR
IMPLIED, INCLUDING BUT NOT LIMITED TO THE WARRANTIES OF MERCHANTABILITY,
FITNESS FOR A PARTICULAR PURPOSE AND NONINFRINGEMENT. IN NO EVENT SHALL THE
AUTHORS OR COPYRIGHT HOLDERS BE LIABLE FOR ANY CLAIM, DAMAGES OR OTHER
LIABILITY, WHETHER IN AN ACTION OF CONTRACT, TORT OR OTHERWISE, ARISING FROM,
OUT OF OR IN CONNECTION WITH THE SOFTWARE OR THE USE OR OTHER DEALINGS IN THE
SOFTWARE.
-->

<svg xmlns="http://www.w3.org/2000/svg" width="16" height="16" viewBox="0 0 16 16">
  <g fill="none" fill-rule="evenodd">
    <polygon fill="#9AA7B0" fill-opacity=".8" points="7 1 3 5 7 5"/>
    <polygon fill="#9AA7B0" fill-opacity=".8" points="9 14 10 14 10 11 9 11"/>
    <polygon fill="#9AA7B0" fill-opacity=".8" points="10 8 13 8 13 1 8 1 8 6 10 6"/>
    <polygon fill="#9AA7B0" fill-opacity=".8" points="3 15 6 15 6 6 3 6"/>
    <polygon fill="#231F20" fill-opacity=".7" points="14 7 14 8 15 8 15 15 14 15 14 16 16 16 16 7"/>
    <polygon fill="#231F20" fill-opacity=".7" points="7 7 7 16 9.001 16 9.001 15 8.001 15 8.001 8 9.001 8 9.001 7"/>
    <polygon fill="#231F20" fill-opacity=".7" points="11.02 9.977 9.296 9.977 9.296 8.999 13.704 8.999 13.704 9.977 11.982 9.977 11.982 14.999 11.02 14.999"/>
  </g>
</svg>
