<svg version="1.0" xmlns="http://www.w3.org/2000/svg" viewBox="0 0 16 16" xml:space="preserve"><path fill-rule="evenodd" clip-rule="evenodd" fill="#62B543" fill-opacity=".7" d="M1 16h15V9H1z"/><path fill-rule="evenodd" clip-rule="evenodd" fill="#9AA7B0" fill-opacity=".8" d="M7 1 3 5h4z"/><path fill-rule="evenodd" clip-rule="evenodd" fill="#9AA7B0" fill-opacity=".8" d="M8 1v5H3v2h10V1z"/><g opacity=".7" fill="#231F20"><path d="M3.91 15.034c-.368 0-.675-.046-.921-.142a1.374 1.374 0 0 1-.594-.425c-.15-.188-.256-.423-.318-.704s-.094-.61-.094-.986v-.508c0-.335.032-.644.094-.927.062-.284.17-.53.324-.74s.36-.372.617-.49.58-.178.97-.178a3.057 3.057 0 0 1 1.059.181l-.16.808a2.419 2.419 0 0 0-.777-.125c-.206 0-.381.023-.524.067-.144.043-.26.122-.35.233s-.155.263-.196.453c-.041.19-.061.432-.061.725v.46c0 .296.018.539.055.724a.975.975 0 0 0 .182.436.657.657 0 0 0 .35.216c.148.039.335.06.562.06a5.018 5.018 0 0 0 .906-.092l-.154.836c-.163.042-.328.073-.495.091s-.325.027-.475.027zM7.05 10.004v4.097h1.966l-.11.864H6.075v-4.96h.976zM11.18 15.034c-.261 0-.518-.02-.77-.062s-.468-.095-.643-.16l.16-.816c.176.047.368.09.575.13.208.04.42.059.64.059.307 0 .53-.051.67-.153.14-.103.21-.272.21-.51a.792.792 0 0 0-.045-.285.398.398 0 0 0-.14-.178.686.686 0 0 0-.23-.1 5.458 5.458 0 0 0-.325-.07l-.314-.056a1.945 1.945 0 0 1-.417-.119 1.082 1.082 0 0 1-.62-.647 1.717 1.717 0 0 1-.1-.628c0-1.003.6-1.505 1.799-1.505.243 0 .468.02.67.06s.393.09.57.149l-.148.808a4.066 4.066 0 0 0-.498-.118 3.285 3.285 0 0 0-.588-.049c-.317 0-.544.045-.68.136s-.206.247-.206.47c0 .177.048.31.145.401.095.091.265.155.51.192l.308.049c.15.023.3.06.453.11.151.053.29.13.411.234s.22.245.295.422.112.401.112.676c0 .534-.154.928-.462 1.18-.308.254-.755.38-1.342.38z"/></g></svg>