<svg xmlns="http://www.w3.org/2000/svg" width="16" height="16" viewBox="0 0 16 16">
  <g fill="none" fill-rule="evenodd">
    <polygon fill="#9AA7B0" fill-opacity=".8" points="7 1 3 5 7 5"/>
    <path fill="#9AA7B0" fill-opacity=".8" d="M5.6,11.6087294 C5.21638787,12.0861338 5,12.626986 5,13.2 C5,13.8582509 5.28555204,14.4740599 5.78212764,15 L3,15 L3,6 L8,6 L8,1 L13,1 L13,7.05615831 C12.8056495,7.01929134 12.6050776,7 12.4,7 L8.8,7 C7.0326888,7 5.6,8.4326888 5.6,10.2 L5.6,11.6087294 Z"/>
    <path fill="#40B6E0" d="M3.97272727,0.372727273 C3.98181818,0.427272727 3.95454545,0.472727273 3.86363636,0.518181818 C3.74545455,0.454545455 3.49090909,0.418181818 3.28181818,0.436363636 C3.05454545,0.454545455 2.86363636,0.527272727 2.89090909,0.681818182 C2.92727273,0.836363636 3.14545455,0.927272727 3.53636364,0.890909091 C4.49090909,0.809090909 4.48181818,0.163636364 5.88181818,0.0363636364 C6.97272727,-0.0636363636 7.58181818,0.272727273 7.66363636,0.681818182 C7.72727273,1 7.46363636,1.30909091 6.67272727,1.37272727 C5.97272727,1.43636364 5.56363636,1.24545455 5.52727273,1.05454545 C5.50909091,0.954545455 5.56363636,0.809090909 5.9,0.772727273 C5.93636364,0.927272727 6.12727273,1.09090909 6.58181818,1.04545455 C6.90909091,1.01818182 7.18181818,0.9 7.14545455,0.718181818 C7.10909091,0.527272727 6.76363636,0.418181818 6.21818182,0.463636364 C5.10909091,0.563636364 4.83636364,1.17272727 3.89090909,1.25454545 C3.21818182,1.31818182 2.67272727,1.07272727 2.6,0.709090909 C2.57272727,0.572727273 2.57272727,0.254545455 3.28181818,0.190909091 C3.64545455,0.163636364 3.93636364,0.227272727 3.97272727,0.372727273 Z M5.3,2.07272727 C4.12727273,2.07272727 3.08181818,1.95454545 2.32727273,1.79090909 C1.51818182,1.59090909 1.09090909,1.37272727 1.09090909,1.09090909 C1.09090909,0.972727273 1.14545455,0.872727273 1.30909091,0.754545455 C0.8,0.954545455 0.527272727,1.11818182 0.527272727,1.37272727 C0.554545455,1.65454545 1.00909091,1.93636364 1.93636364,2.15454545 C2.80909091,2.37272727 3.92727273,2.49090909 5.27272727,2.49090909 C6.64545455,2.49090909 7.73636364,2.37272727 8.60909091,2.15454545 C9.53636364,1.93636364 9.98181818,1.64545455 9.98181818,1.37272727 C9.98181818,1.17272727 9.78181818,0.981818182 9.41818182,0.836363636 C9.5,0.890909091 9.56363636,0.981818182 9.56363636,1.08181818 C9.56363636,1.36363636 9.14545455,1.59090909 8.3,1.78181818 C7.51818182,1.95454545 6.51818182,2.07272727 5.3,2.07272727 Z M1.10800321,4.05150881 C1.05389964,4.10188486 1.0028162,4.15739644 0.954545455,4.21818182 C0.736363636,4.53636364 0.654545455,4.9 0.736363636,5.29090909 C0.790909091,5.70909091 1.01818182,6.05454545 1.35454545,6.3 C1.66363636,6.54545455 1.97272727,6.66363636 2.33636364,6.66363636 C2.16363636,6.71818182 1.97272727,6.80909091 1.8,6.83636364 C1.35454545,6.91818182 0.963636364,6.83636364 0.6,6.55454545 C0.254545455,6.27272727 0.0363636364,5.90909091 0.00909090909,5.46363636 C-0.0181818182,5.01818182 0.118181818,4.56363636 0.427272727,4.17272727 C0.591440222,3.96510368 0.770994948,3.80364177 0.96866111,3.68425524 C0.802078812,3.21225242 0.675393789,2.71799898 0.6,2.20909091 C0.745454545,2.43636364 1.16363636,2.65454545 1.94545455,2.85454545 C2.81818182,3.04545455 3.93636364,3.19090909 5.30909091,3.19090909 C6.65454545,3.19090909 7.77272727,3.05454545 8.64545455,2.85454545 C9.4,2.68181818 9.81818182,2.46363636 10,2.20909091 C9.82727273,3.2 9.51818182,4.12727273 9.07272727,4.93636364 C8.73636364,5.44545455 8.4,5.89090909 8.06363636,6.37272727 C7.92727273,6.65454545 7.83636364,6.93636364 7.78181818,7.21818182 L7.75454545,7.21818182 C7.52727273,7.52727273 7.21818182,7.71818182 6.85454545,7.83636364 C6.36363636,8 5.82727273,8.08181818 5.31818182,8.05454545 L5.26363636,8.05454545 C4.75454545,8.08181818 4.25454545,8.00909091 3.77272727,7.83636364 C3.38181818,7.72727273 3.06363636,7.52727273 2.84545455,7.21818182 C2.78181818,6.93636364 2.68181818,6.65454545 2.53636364,6.37272727 C2.2,5.89090909 1.86363636,5.44545455 1.52727273,4.93636364 C1.37336947,4.65368418 1.2324882,4.35798272 1.10800321,4.05150881 Z" transform="translate(6 8)"/>
  </g>
</svg>
