<svg width="16" height="16" viewBox="0 0 16 16" fill="none" xmlns="http://www.w3.org/2000/svg"><style>.dark { display: none; } .light { display: block; } @media (prefers-color-scheme: dark) { .dark { display: block; } .light { display: none; } }</style><g class="light"><path fill-rule="evenodd" clip-rule="evenodd" d="M5.94995 3.1424L10.0498 5.51003V10.2453L5.94995 7.87766V3.1424Z" fill="#7B42BC"/><path fill-rule="evenodd" clip-rule="evenodd" d="M10.4985 5.51003V10.2453L14.6006 7.87766V3.1424L10.4985 5.51003Z" fill="#7B42BC"/><path fill-rule="evenodd" clip-rule="evenodd" d="M1.39941 0.5V5.23526L5.4993 7.60289V2.86763L1.39941 0.5Z" fill="#7B42BC"/><path fill-rule="evenodd" clip-rule="evenodd" d="M5.94995 13.1324L10.0498 15.5V10.7948V10.7647L5.94995 8.39709V13.1324Z" fill="#7B42BC"/></g><g class="dark"><path fill-rule="evenodd" clip-rule="evenodd" d="M5.94995 3.1424L10.0498 5.51002V10.2453L5.94995 7.87766V3.1424Z" fill="#B99BF8"/><path fill-rule="evenodd" clip-rule="evenodd" d="M10.4985 5.51002V10.2453L14.6006 7.87766V3.1424L10.4985 5.51002Z" fill="#B99BF8"/><path fill-rule="evenodd" clip-rule="evenodd" d="M1.39941 0.5V5.23526L5.4993 7.60289V2.86763L1.39941 0.5Z" fill="#B99BF8"/><path fill-rule="evenodd" clip-rule="evenodd" d="M5.94995 13.1324L10.0498 15.5V10.7948V10.7647L5.94995 8.39709V13.1324Z" fill="#B99BF8"/></g></svg>