<svg xmlns="http://www.w3.org/2000/svg" width="16" height="16" viewBox="0 0 16 16"><g fill="none" fill-rule="evenodd"><path fill="#40B6E0" fill-opacity=".7" d="M1 16h15V9H1z"/><path fill="#9AA7B0" fill-opacity=".8" d="M7 1 3 5h4z"/><path fill="#9AA7B0" fill-opacity=".8" d="M8 1v5H3v2h10V1z"/><path fill="#231F20" fill-opacity=".7" d="M6.973 11.502c0-.369.311-.502.872-.502H9v-1H7.86C6.778 10 6 10.46 6 11.45c0 .865.42 1.24 1.471 1.466.77.165 1.025.313 1.025.632 0 .32-.358.452-1.025.452H6.3v1h1.171C9.5 15 9.5 14 9.5 13.548c0-.632-.48-1.127-1.341-1.401-.862-.274-1.186-.277-1.186-.645M10 10h.936l1.564 2 1.479-2H15v5h-1v-3.3l-1.5 1.8-1.5-1.8V15h-1zm-5.85 3-.654-1.6L2.85 13zm-1.041-3h.781L6 15H4.9l-.5-1H2.6l-.5 1H1z"/></g></svg>