<svg xmlns="http://www.w3.org/2000/svg" xml:space="preserve" version="1.0" viewBox="0 0 16 16"><path fill="#B99BF8" fill-opacity=".7" fill-rule="evenodd" d="M1 16h15V9H1z" clip-rule="evenodd"/><path fill="#9AA7B0" fill-opacity=".8" fill-rule="evenodd" d="M7 1 3 5h4z" clip-rule="evenodd"/><path fill="#9AA7B0" fill-opacity=".8" fill-rule="evenodd" d="M8 1v5H3v2h10V1z" clip-rule="evenodd"/><path fill="#231F20" d="M2.047 14.965v-4.96h1.71q.342 0 .59.093c.248.093.3.151.41.265q.162.17.237.4t.075.502v.118q0 .32-.123.58a.9.9 0 0 1-.377.402q.289.135.443.436.154.304.154.687v.11q0 .65-.365 1.009c-.365.359-.619.358-1.129.358zm.867-2.962h.753q.24 0 .382-.136.141-.135.141-.407v-.097q0-.564-.565-.565h-.71v1.205zm0 2.168h.77q.289 0 .443-.146.154-.148.154-.453v-.119q0-.654-.62-.655h-.747zm3.022.794v-4.96h1.71q.343 0 .59.093c.247.093.301.151.41.265q.162.17.237.4t.075.502v.118q0 .32-.123.58a.9.9 0 0 1-.377.402q.289.135.443.436.154.304.154.687v.11q0 .65-.365 1.009c-.365.359-.619.358-1.128.358zm.867-2.962h.753q.24 0 .382-.136.142-.135.142-.407v-.097q-.001-.564-.566-.565h-.71v1.205zm0 2.168h.77q.29 0 .443-.146.154-.148.154-.453v-.119q0-.654-.62-.655h-.747zm4.01-4.167v4.097h1.842l-.102.864H9.897v-4.96z" opacity=".7"/></svg>