<svg xmlns="http://www.w3.org/2000/svg" xml:space="preserve" version="1.0" viewBox="0 0 16 16"><path fill="#F4AF3D" fill-opacity=".7" fill-rule="evenodd" d="M1 16h15V9H1z" clip-rule="evenodd"/><path fill="#9AA7B0" fill-opacity=".8" fill-rule="evenodd" d="M7 1 3 5h4z" clip-rule="evenodd"/><path fill="#9AA7B0" fill-opacity=".8" fill-rule="evenodd" d="M8 1v5H3v2h10V1z" clip-rule="evenodd"/><path fill="#231F20" d="M2.056 14.965v-4.96h1.743q.35 0 .602.093a1.05 1.05 0 0 1 .66.665q.075.23.076.502v.118q0 .32-.125.58a.9.9 0 0 1-.384.402.93.93 0 0 1 .451.436q.157.304.156.687v.11q0 .65-.37 1.009c-.37.359-.632.358-1.152.358zm.883-2.962h.768a.54.54 0 0 0 .39-.136q.144-.135.144-.407v-.097q0-.564-.577-.565H2.94zm0 2.168h.787q.294 0 .45-.146.157-.148.157-.453v-.119q0-.654-.632-.655h-.762zm4.016.794H6.02v-4.96h.934v4.96zm1.098 0v-4.96h1.744q.348 0 .601.093c.253.093.307.151.418.265q.166.17.243.4c.077.23.076.321.076.502v.118q0 .32-.125.58c-.125.26-.213.306-.385.402a.93.93 0 0 1 .451.436q.158.304.156.687v.11q0 .65-.37 1.009c-.37.359-.632.358-1.151.358zm.884-2.962h.768a.54.54 0 0 0 .389-.136q.145-.135.144-.407v-.097q0-.564-.576-.565h-.725zm0 2.168h.786q.295 0 .45-.146.158-.148.157-.453v-.119q0-.654-.63-.655h-.763z" opacity=".7"/></svg>