<svg xmlns="http://www.w3.org/2000/svg" width="16" height="16" viewBox="0 0 16 16"><g fill="none" fill-rule="evenodd"><path fill="#9AA7B0" fill-opacity=".8" d="M7 1 3 5h4z"/><path fill="#9AA7B0" fill-opacity=".8" d="M8 1v5H3v2h10V1z"/><path fill="#F26522" d="M3.302 14.234q1.786-.43 3.573-.85c.395-.09.579-.2.307-.666C6.455 11.484 5.746 10.24 5.03 9H1v1.615c.534 1.102 1.076 2.201 1.606 3.306.17.356.377.39.696.313m5.634-1.328c1.979-.529 3.982-.966 5.982-1.415.457-.103.422-.294.209-.595-.447-.63-.89-1.267-1.341-1.896H5.844q1.014 1.703 2.026 3.408c.253.428.458.66 1.065.498"/><path fill="#F26522" d="M8.111 14.395c-.186-.343-.348-.415-.729-.306-1.416.402-2.849.737-4.267 1.13-.614.17-1.027-.015-1.282-.57L1 12.833v3.166h8.015c-.3-.535-.61-1.065-.904-1.604M10.001 16H16v-3.906a.47.47 0 0 0-.352-.143c-.478.139-.953.29-1.435.414-1.664.431-3.331.848-4.994 1.281-.196.051-.59.016-.35.43q.564.963 1.132 1.924M16 11.065V9h-1.567q.664.905 1.324 1.816c.072.1.147.19.243.248"/></g></svg>