<svg xmlns="http://www.w3.org/2000/svg" xml:space="preserve" version="1.0" viewBox="0 0 16 16"><path fill="#62B543" fill-opacity=".7" fill-rule="evenodd" d="M1 16h15V9H1z" clip-rule="evenodd"/><path fill="#9AA7B0" fill-opacity=".8" fill-rule="evenodd" d="M7 1 3 5h4z" clip-rule="evenodd"/><path fill="#9AA7B0" fill-opacity=".8" fill-rule="evenodd" d="M8 1v5H3v2h10V1z" clip-rule="evenodd"/><path fill="#231F20" d="M3.91 15.034q-.552.001-.921-.142a1.4 1.4 0 0 1-.594-.425q-.225-.282-.318-.704c-.093-.422-.094-.61-.094-.986v-.508q0-.503.094-.927.093-.425.324-.74c.231-.315.36-.372.617-.49s.58-.178.97-.178a3 3 0 0 1 1.059.181l-.16.808a2.4 2.4 0 0 0-.777-.125 1.8 1.8 0 0 0-.524.067q-.216.066-.35.233c-.134.167-.155.263-.196.453q-.061.285-.061.725v.46q0 .445.055.724a1 1 0 0 0 .182.436.66.66 0 0 0 .35.216q.222.06.562.06a5 5 0 0 0 .906-.092l-.154.836q-.245.063-.495.091c-.25.028-.325.027-.475.027m3.14-5.03v4.097h1.966l-.11.864H6.075v-4.96h.976zm4.13 5.03q-.392 0-.77-.062c-.378-.062-.468-.095-.643-.16l.16-.816q.264.07.575.13t.64.059q.46 0 .67-.153.21-.154.21-.51a.8.8 0 0 0-.045-.285.4.4 0 0 0-.14-.178.7.7 0 0 0-.23-.1 6 6 0 0 0-.325-.07l-.314-.056a2 2 0 0 1-.417-.119 1.08 1.08 0 0 1-.62-.647 1.7 1.7 0 0 1-.1-.628q0-1.505 1.799-1.505.366 0 .67.06c.304.06.393.09.57.149l-.148.808a4 4 0 0 0-.498-.118 3.3 3.3 0 0 0-.588-.049q-.476 0-.68.136c-.204.136-.206.247-.206.47q0 .265.145.401.143.136.51.192l.308.049q.224.035.453.11.228.079.411.234c.183.155.22.245.295.422s.112.401.112.676q0 .802-.462 1.18-.462.38-1.342.38" opacity=".7"/></svg>