<svg xmlns="http://www.w3.org/2000/svg" width="16" height="16" viewBox="0 0 16 16"><g fill="none" fill-rule="evenodd"><path fill="#9AA7B0" fill-opacity=".8" d="M7 1 3 5h4z"/><path fill="#9AA7B0" fill-opacity=".8" d="M5.6 11.609c-.384.477-.6 1.018-.6 1.591 0 .658.286 1.274.782 1.8H3V6h5V1h5v6.056A3 3 0 0 0 12.4 7H8.8a3.2 3.2 0 0 0-3.2 3.2z"/><path fill="#40B6E0" d="M9.973 8.373c.009.054-.018.1-.11.145-.118-.063-.372-.1-.581-.082-.227.019-.418.091-.391.246.036.154.254.245.645.209.955-.082.946-.727 2.346-.855 1.09-.1 1.7.237 1.782.646.063.318-.2.627-.991.69-.7.064-1.11-.127-1.146-.317-.018-.1.037-.246.373-.282.036.154.227.318.682.272.327-.027.6-.145.563-.327-.036-.19-.381-.3-.927-.254-1.109.1-1.382.709-2.327.79-.673.064-1.218-.181-1.291-.545-.027-.136-.027-.454.682-.518.363-.027.654.036.69.182m1.327 1.7c-1.173 0-2.218-.118-2.973-.282-.809-.2-1.236-.418-1.236-.7 0-.118.054-.218.218-.336-.509.2-.782.363-.782.618.028.282.482.563 1.41.782.872.218 1.99.336 3.336.336 1.372 0 2.463-.118 3.336-.336.927-.219 1.373-.51 1.373-.782 0-.2-.2-.391-.564-.537a.31.31 0 0 1 .146.246c0 .282-.419.509-1.264.7-.782.173-1.782.29-3 .29m-4.192 1.979a1.5 1.5 0 0 0-.153.166c-.219.318-.3.682-.219 1.073.055.418.282.764.619 1.009.309.245.618.364.981.364-.172.054-.363.145-.536.172-.445.082-.836 0-1.2-.281-.345-.282-.564-.646-.59-1.091a1.88 1.88 0 0 1 .417-1.291 2 2 0 0 1 .542-.489A8 8 0 0 1 6.6 10.21c.145.227.564.446 1.345.646.873.19 1.991.336 3.364.336 1.346 0 2.464-.136 3.336-.336.755-.173 1.173-.391 1.355-.646-.173.991-.482 1.918-.927 2.727-.337.51-.673.955-1.01 1.437a3.4 3.4 0 0 0-.281.845h-.027c-.228.31-.537.5-.9.618a4.2 4.2 0 0 1-1.537.219h-.054a3.8 3.8 0 0 1-1.491-.219c-.391-.109-.71-.309-.928-.618a3.5 3.5 0 0 0-.309-.845c-.336-.482-.672-.928-1.009-1.437a9 9 0 0 1-.419-.884"/></g></svg>