<svg xmlns="http://www.w3.org/2000/svg" width="16" height="16" viewBox="0 0 16 16"><g fill="none" fill-rule="evenodd"><path fill="#B99BF8" fill-opacity=".7" d="M1 16h15V9H1z"/><path fill="#231F20" fill-opacity=".7" d="M2 12.501C2 11 2.931 10 4.256 10c.946 0 1.294.311 1.713.753l-.542.674C5.077 11.068 4.75 11 4.25 11 3.418 11 3 11.738 3 12.487S3.412 14 4.25 14c.537 0 .802-.107 1.177-.494l.573.638c-.456.525-.803.856-1.775.856C2.949 15 2 14.002 2 12.501m5.473-.999c0-.369.311-.502.872-.502H9.5v-1H8.36c-1.082 0-1.86.46-1.86 1.45 0 .865.42 1.24 1.471 1.466.77.165 1.025.313 1.025.632 0 .32-.358.452-1.025.452H6.8v1h1.171C10 15 10 14 10 13.548c0-.632-.48-1.127-1.341-1.401-.862-.274-1.186-.277-1.186-.645M11.1 10l1.396 3.5L13.9 10H15l-2.11 5h-.781L10 10z"/><path fill="#9AA7B0" fill-opacity=".8" d="M7 1 3 5h4z"/><path fill="#9AA7B0" fill-opacity=".8" d="M8 1v5H3v2h10V1z"/></g></svg>