<svg xmlns="http://www.w3.org/2000/svg" width="16" height="16" viewBox="0 0 16 16"><g fill="none" fill-rule="evenodd"><path fill="#9AA7B0" fill-opacity=".8" d="M7.481 13.598c-.452-.462-.62-1.332-.278-2.063l1.5-2.988 2.821-1.34c.301-.14.581-.207.867-.207.17 0 .38.036.61.124V1H8v5H3v9h5.84z"/><path fill="#70B4F4" d="m9.9 9.9-.544-.544.004 3.942c.003.426-.027.78.19.996l.291.293 4.721-.024z" opacity=".9"/><path fill="#7CC1FD" d="M9.841 14.587 11.255 16h3.334l-.026-1.437z" opacity=".9"/><path fill="#5070A8" d="m9.36 13.298-.004-3.942-1.247 2.602c-.145.31-.207.69.219 1.114l1.221 1.222c-.216-.216-.186-.57-.19-.996m5.227-3.456-.292-.293c-.216-.217-.57-.187-.996-.19l-3.941-.003.544.545 4.661 4.662 1.439.026v-3.334z" opacity=".9"/><path fill="#7CC1FD" d="m13.298 9.36-3.941-.004 2.6-1.247c.311-.146.69-.207 1.116.218l1.221 1.222c-.216-.216-.57-.187-.996-.19" opacity=".9"/><path fill="#9AA7B0" fill-opacity=".8" d="M7 1 3 5h4z"/></g></svg>