<svg xmlns="http://www.w3.org/2000/svg" width="16" height="16" viewBox="0 0 16 16"><g fill="none" fill-rule="evenodd"><path fill="#9AA7B0" fill-opacity=".8" d="M7 1 3 5h4z"/><path fill="#9AA7B0" fill-opacity=".8" d="M7.481 13.598c-.452-.462-.62-1.332-.278-2.063l1.5-2.988 2.821-1.34c.301-.14.581-.207.867-.207.17 0 .38.036.61.124V1H8v5H3v9h5.84z"/><path fill="#7CC1FD" d="M9.841 14.587 11.255 16h3.334l-.027-1.437zM9.9 9.9l-.544-.544.004 3.942c.003.426-.027.78.19.996l.29.292 4.722-.024z"/><path fill="#5070A8" d="m9.36 13.298-.004-3.942-1.247 2.601c-.145.31-.207.69.219 1.115l1.221 1.222c-.216-.217-.187-.57-.19-.996m5.227-3.456-.292-.293c-.216-.217-.57-.187-.996-.19l-3.942-.003.545.545 4.661 4.662 1.438.026v-3.334z"/><path fill="#7CC1FD" d="m13.298 9.36-3.942-.004 2.601-1.247c.31-.146.69-.207 1.115.218l1.222 1.222c-.216-.216-.57-.187-.996-.19"/></g></svg>