<svg xmlns="http://www.w3.org/2000/svg" width="16" height="16" viewBox="0 0 16 16"><g fill="none" fill-rule="evenodd"><path fill="#9AA7B0" fill-opacity=".8" d="M7 1 3 5h4z"/><path fill="#9AA7B0" fill-opacity=".8" d="M8 1v5H3v2h10V1z"/><path fill="#40B6E0" fill-opacity=".7" d="M1 16h15V9H1z"/><path fill="#231F20" fill-opacity=".7" d="M8 12.501C8 11 8.931 10 10.256 10c.946 0 1.294.311 1.713.753l-.542.674c-.35-.359-.677-.427-1.177-.427-.832 0-1.25.738-1.25 1.487S9.412 14 10.25 14c.537 0 .802-.107 1.177-.494l.573.638c-.456.525-.803.856-1.775.856C8.949 15 8 14.002 8 12.501M4 11v3h.649C5.578 14 6 13.493 6 12.515V12.5c0-.978-.422-1.5-1.351-1.5zm-1-1h1.649C6.04 10 7 11.093 7 12.5c0 1.421-.96 2.5-2.351 2.5H3z"/></g></svg>