<svg xmlns="http://www.w3.org/2000/svg" width="16" height="16" viewBox="0 0 16 16"><path fill="#9AA7B0" fill-opacity=".8" fill-rule="evenodd" d="m12.708 8.94 1.478 1.061a6.5 6.5 0 0 1-1.356 2.35l-1.658-.748a4.8 4.8 0 0 1-1.635.945l-.18 1.81a6.5 6.5 0 0 1-2.714 0l-.18-1.81a4.8 4.8 0 0 1-1.635-.945l-1.658.747a6.5 6.5 0 0 1-1.356-2.349l1.478-1.06a4.8 4.8 0 0 1 0-1.882L1.814 6A6.5 6.5 0 0 1 3.17 3.65l1.658.748a4.8 4.8 0 0 1 1.635-.945l.18-1.81a6.5 6.5 0 0 1 2.714 0l.18 1.81c.61.205 1.163.53 1.635.945l1.658-.747A6.5 6.5 0 0 1 14.186 6l-1.478 1.06a4.8 4.8 0 0 1 0 1.882M8 10.3a2.3 2.3 0 1 0 0-4.6 2.3 2.3 0 0 0 0 4.6"/></svg>