<svg xmlns="http://www.w3.org/2000/svg" width="16" height="16" viewBox="0 0 16 16"><g fill="none"><path fill="#4339D6" fill-opacity=".9" d="m15 5.96-1.457 6.663a.3.3 0 0 1-.224.25 4141 4141 0 0 0-5.89 1.855c-.26.082-.521.159-.778.248a.3.3 0 0 1-.33-.066 1495 1495 0 0 0-3.9-3.42c-.436-.382-.867-.767-1.309-1.14a.28.28 0 0 1-.1-.313q.299-1.347.591-2.696.437-1.983.864-3.968a.3.3 0 0 1 .242-.25q2.535-.795 5.065-1.596c.524-.166 1.05-.327 1.57-.502a.32.32 0 0 1 .36.074 2473 2473 0 0 0 5.143 4.508c.1.09.157.219.153.353m-7.019 7.023q1.389-.002 2.778.002a.32.32 0 0 0 .31-.17q1.35-2.275 2.709-4.546a.41.41 0 0 0-.014-.537 2 2 0 0 1-.144-.238L11.1 3.238a.41.41 0 0 0-.4-.224c-1.784.005-3.569.008-5.353-.003a.49.49 0 0 0-.487.277 593 593 0 0 1-2.69 4.537.325.325 0 0 0 .012.376q1.362 2.287 2.716 4.579c.07.14.218.222.374.206.903-.007 1.807-.003 2.71-.003"/><path fill="#7D7CE8" d="M13.764 7.731a2 2 0 0 1-.144-.237L11.1 3.238a.41.41 0 0 0-.4-.224c-1.784.005-3.569.008-5.353-.003a.49.49 0 0 0-.487.277 593 593 0 0 1-2.69 4.537.325.325 0 0 0 .012.376q1.363 2.287 2.716 4.579c.07.14.218.222.374.206.903-.007 1.807-.003 2.71-.003q1.389-.002 2.778.002a.32.32 0 0 0 .31-.17q1.35-2.275 2.709-4.546a.41.41 0 0 0-.014-.538m-2.058.442q-.871 1.455-1.738 2.915a.2.2 0 0 1-.199.11q-.89-.004-1.781-.002-.87-.002-1.738.002a.24.24 0 0 1-.24-.132q-.867-1.472-1.742-2.937a.21.21 0 0 1-.008-.241q.868-1.452 1.726-2.91a.31.31 0 0 1 .312-.178q1.718.008 3.434.002a.26.26 0 0 1 .257.144q.803 1.366 1.616 2.73.04.08.092.152a.265.265 0 0 1 .009.345" opacity=".8"/></g></svg>