<svg xmlns="http://www.w3.org/2000/svg" width="16" height="16" viewBox="0 0 16 16"><g fill="none" fill-rule="evenodd"><path fill="#77BBE2" d="M12.093 8.912a12 12 0 0 1-.045-.989c0-1.282.238-3.367.238-3.367C12.286 2.6 10.5 1 8 1S3.714 2.6 3.714 4.556c0 0 .238 1.828.238 3.367 0 .377-.016.7-.038.989h.01c-.063 1.237-.21 2.378-.21 2.378 0 1.956 1.786 3.556 4.286 3.556s4.286-1.6 4.286-3.556c0 0-.14-1.227-.205-2.378z"/><path fill="#77BBE2" d="M13 3.18c0 .495-.373.897-.833.897s-.834-.402-.834-.898c0-.495.374-.897.834-.897s.833.402.833.897m-10 0c0 .496.373.898.833.898s.834-.402.834-.898c0-.495-.374-.897-.834-.897S3 2.684 3 3.18"/><path fill="#FFF" d="M7.743 5.078c0 .836-.688 1.514-1.538 1.514s-1.538-.678-1.538-1.514.688-1.514 1.538-1.514 1.538.678 1.538 1.514"/><path fill="#FFF" d="M7.743 5.078c0 .836-.688 1.514-1.538 1.514s-1.538-.678-1.538-1.514.688-1.514 1.538-1.514 1.538.678 1.538 1.514"/><path fill="#000" d="M6.993 5.073c0 .409-.307.74-.687.74s-.687-.331-.687-.74c0-.408.308-.74.687-.74s.687.332.687.74"/><path fill="#FFF" d="M11.137 5.078c0 .836-.688 1.514-1.538 1.514S8.06 5.914 8.06 5.078s.69-1.514 1.54-1.514 1.538.678 1.538 1.514"/><path fill="#000" d="M10.387 5.073c0 .409-.308.74-.687.74s-.687-.331-.687-.74c0-.408.307-.74.687-.74s.687.332.687.74"/><path fill="#FFF" d="M7.523 7.923h.953v-.769h-.953z"/><path fill="#B7937F" d="M8.953 6.898c0 .283-.427.512-.953.512s-.952-.23-.952-.513.426-.512.952-.512.953.23.953.513"/><path fill="#000" d="M8.476 6.633c0 .288-.216.264-.484.264-.267 0-.484.024-.484-.264s.217-.522.484-.522c.268 0 .484.233.484.522"/><path fill="#B7937F" fill-rule="nonzero" d="M13 8.271c0 .354-.267.641-.595.641-.329 0-.596-.287-.596-.64 0-.355.267-.642.596-.642s.595.287.595.641m-8.81 0c0 .354-.266.641-.595.641S3 8.625 3 8.272c0-.355.267-.642.595-.642.33 0 .596.287.596.641M12 14.205c0 .354-.267.641-.596.641s-.596-.287-.596-.641.267-.64.596-.64.595.286.595.64m-6.81 0c0 .354-.266.641-.595.641S4 14.56 4 14.205s.267-.64.595-.64c.329 0 .596.286.596.64"/></g></svg>