<svg xmlns="http://www.w3.org/2000/svg" xml:space="preserve" viewBox="0 0 16 16"><style>.st0{opacity:.8;fill:#9aa7b0;enable-background:new}.st1{fill-rule:evenodd;clip-rule:evenodd;fill:#df0098}</style><path id="ear" d="M6 0 2 4h4z" class="st0"/><g id="document"><path d="M12.8 11.5 11 8.4l-1.8 3.1z" class="st0"/><path d="M7.7 14.6c-.1.1-.3.1-.4.1H7c-.6 0-1.2-.3-1.5-.7h-.1v-.1c0-.1-.1-.1-.1-.2s-.1-.1-.1-.2h-.1c-.1-.4-.1-.8 0-1.3.1-.3.2-.5.3-.7l.3-.3V9.8c-.3-.3-.6-.6-.7-1-.1-.6 0-1.1.3-1.6.5-.8 1.5-1.2 2.4-.8L9 5.7c0-.1.1-.3.1-.4.3-.7.9-1.2 1.6-1.3h.4c.7.1 1.3.5 1.5 1.2h.1c.1.1.1.3.1.4V0H7v5H2v10h6.5z" class="st0"/></g><g id="logo"><path d="m6.88 13.4-.4-.2 4.6-7.8.4.2z" class="st1"/><path d="M6.38 12.5h9.2v.5h-9.2z" class="st1"/><path d="m11.18 15.4-4.6-2.6.2-.4 4.6 2.6zm4-6.8L10.58 6l.2-.4 4.6 2.6z" class="st1"/><path d="m6.78 8.6-.2-.4 4.6-2.6.2.4z" class="st1"/><path d="m15.08 13.4-4.6-7.8.4-.2 4.6 7.8zm-8.3-5.5h.5v5.2h-.5zm8 0h.5v5.2h-.5z" class="st1"/><path d="m11.08 15.2-.2-.4 4-2.2.2.3z" class="st1"/><path d="M15.88 13.3c-.3.5-.9.6-1.4.4s-.6-.9-.4-1.3c.3-.5.9-.6 1.4-.4s.7.8.4 1.3m-8-4.6c-.3.5-.9.7-1.4.4s-.6-.9-.4-1.3c.3-.5.9-.6 1.4-.4.5.3.7.9.4 1.3m-1.7 4.6c-.3-.5-.1-1.1.4-1.3.5-.3 1.1-.1 1.4.4s.1 1.1-.4 1.3c-.6.2-1.2 0-1.4-.4m7.9-4.6c-.3-.5-.1-1.1.4-1.3.5-.3 1.1-.1 1.4.4s.1 1.1-.4 1.3c-.5.3-1.1.1-1.4-.4m-3.1 7.3c-.6 0-1-.4-1-1 0-.5.4-1 1-1s1 .4 1 1-.4 1-1 1m0-9c-.6 0-1-.4-1-1s.4-1 1-1 1 .4 1 1-.4 1-1 1" class="st1"/></g></svg>