<svg xmlns="http://www.w3.org/2000/svg" width="16" height="16" viewBox="0 0 16 16"><g fill="none" fill-rule="evenodd"><path fill="#9AA7B0" fill-opacity=".8" d="M7 1 3 5h4z"/><path fill="#9AA7B0" fill-opacity=".8" d="M8 1v5H3v2.033c.164-.019.33-.033.5-.033C5.981 8 8 10.019 8 12.5c0 .931-.293 1.786-.783 2.5H13V1z"/><path fill="#62B543" fill-opacity=".7" d="M7 12.5a3.5 3.5 0 1 1-7 0 3.5 3.5 0 0 1 7 0"/><path fill="#231F20" fill-opacity=".7" d="M3.509 15c-1.513 0-2.507-1.077-2.507-2.486V12.5c0-1.354 1.036-2.5 2.493-2.5.842 0 1.36.235 1.858.656l-.54.642c-.372-.31-.738-.51-1.353-.51-.89 0-1.567.773-1.567 1.698v.014c0 .994.656 1.727 1.643 1.727.456 0 .87-.146 1.167-.367v-.897H3.467v-.746h2.058v2.03A3.08 3.08 0 0 1 3.51 15"/></g></svg>