<svg xmlns="http://www.w3.org/2000/svg" width="16" height="16" viewBox="0 0 16 16"><defs><linearGradient id="a" x1="16.835%" x2="159.599%" y1="63.497%" y2="19.863%"><stop offset="0%" stop-color="#F69923"/><stop offset="31.23%" stop-color="#F79A23"/><stop offset="83.83%" stop-color="#E97826"/></linearGradient><linearGradient id="b" x1="-217.367%" x2="74.968%" y1="394.12%" y2="13.671%"><stop offset="32.33%" stop-color="#9E2064"/><stop offset="63.02%" stop-color="#C92037"/><stop offset="75.14%" stop-color="#CD2335"/><stop offset="100%" stop-color="#E97826"/></linearGradient><linearGradient id="c" x1="-20.305%" x2="125.697%" y1="192.631%" y2="-136.581%"><stop offset="0%" stop-color="#282662"/><stop offset="9.548%" stop-color="#662E8D"/><stop offset="78.82%" stop-color="#9F2064"/><stop offset="94.87%" stop-color="#CD2032"/></linearGradient><linearGradient id="d" x1="-79.867%" x2="146.442%" y1="170.503%" y2="-44.384%"><stop offset="32.33%" stop-color="#9E2064"/><stop offset="63.02%" stop-color="#C92037"/><stop offset="75.14%" stop-color="#CD2335"/><stop offset="100%" stop-color="#E97826"/></linearGradient><linearGradient id="e" x1="-18.376%" x2="164.728%" y1="77.298%" y2="-41.36%"><stop offset="0%" stop-color="#282662"/><stop offset="9.548%" stop-color="#662E8D"/><stop offset="78.82%" stop-color="#9F2064"/><stop offset="94.87%" stop-color="#CD2032"/></linearGradient><linearGradient id="f" x1="-34.831%" x2="110.897%" y1="187.637%" y2="-51.127%"><stop offset="32.33%" stop-color="#9E2064"/><stop offset="63.02%" stop-color="#C92037"/><stop offset="75.14%" stop-color="#CD2335"/><stop offset="100%" stop-color="#E97826"/></linearGradient><linearGradient id="g" x1="-129.474%" x2="66.599%" y1="465.394%" y2="17.067%"><stop offset="32.33%" stop-color="#9E2064"/><stop offset="63.02%" stop-color="#C92037"/><stop offset="75.14%" stop-color="#CD2335"/><stop offset="100%" stop-color="#E97826"/></linearGradient></defs><g fill="none" fill-rule="evenodd"><path fill="#9AA7B0" fill-opacity=".8" d="M7 1 3 5h4z"/><path fill="#9AA7B0" fill-opacity=".8" d="M5.645 15H3V6h5V1h5v1.023c-1.246.962-2.725 2.502-4.364 4.426-2.83 3.323-3.472 7.109-2.901 8.375zM13 10.134V15H8.789c1.42-.836 3.047-2.55 4.211-4.866"/><path fill="url(#a)" fill-rule="nonzero" d="M8.05.106c-.298.154-.784.582-1.374 1.207l.54.884A12 12 0 0 1 8.363.942L8.408.9c-.017.014-.028.029-.045.043-.126.12-.507.505-1.075 1.274.552-.024 1.4-.12 2.09-.226C9.582.986 9.174.524 9.174.524s-.518-.73-1.125-.418" transform="rotate(5 -20.357 67.846)"/><path d="m12.957 7.83.076.006-.544.06c-.038-.004-.081.046-.081.046.162-.093.353-.076.549-.113m-.666 1.533a2.8 2.8 0 0 1-.63.16c.208-.035.422-.124.63-.16m-4.502 3.173.02-.037c.14-.263.283-.516.42-.76.157-.275.308-.547.458-.804.157-.276.313-.537.468-.794.162-.266.318-.527.472-.774q.19-.303.372-.585c.039-.065.083-.123.122-.188.077-.123.16-.241.236-.36q.105-.165.21-.315l.07-.105c.006-.004.007-.009.013-.018h-.066l-.042-.096q-.01.015-.019.022-.16.231-.323.47c-.063.09-.12.182-.184.273a41 41 0 0 0-1.467 2.343q-.233.39-.45.776-.227.4-.446.8l-.099.18q-.175.319-.343.631l.07.15.072.002c0-.004.007-.014.007-.018.145-.268.285-.535.429-.793"/><path fill="#BE202E" fill-rule="nonzero" d="M11.799 10.121c-.203.09-.421.179-.645.32.118-.043.219-.088.336-.132.106-.098.207-.143.309-.188"/><path fill="#BE202E" fill-rule="nonzero" d="M11.799 10.121c-.203.09-.421.179-.645.32.118-.043.219-.088.336-.132.106-.098.207-.143.309-.188" opacity=".35"/><path fill="#BE202E" fill-rule="nonzero" d="M11.623 9.574c.041.003.082.007.127-.043.168-.039.34-.131.508-.17-.208.035-.422.124-.635.213"/><path fill="#BE202E" fill-rule="nonzero" d="M11.623 9.574c.041.003.082.007.127-.043.168-.039.34-.131.508-.17-.208.035-.422.124-.635.213" opacity=".35"/><path fill="url(#b)" fill-rule="nonzero" d="M5.629 4.48c.165-.264.33-.528.496-.778.177-.264.347-.52.53-.764l.032-.044c.177-.24.353-.476.53-.697l-.54-.884q-.062.064-.122.13-.231.253-.48.543a27 27 0 0 0-1.582 2.033c-.005.01-.01.015-.016.024l.7 1.207q.222-.396.452-.77" transform="rotate(5 -20.357 67.846)"/><path fill="url(#c)" fill-rule="nonzero" d="M2.442 11.27q-.14.331-.28.677c0 .005 0 .005-.006.01-.011.034-.028.067-.039.096l-.243.615c.204.082 2.057-.317 2.509-.966q.06-.088.11-.183c-.204.226-.463.323-.943.303.706-.274 1.059-.538 1.373-.98.072-.106.15-.217.22-.342-.617.553-1.333.712-2.089.592l-.568.052c-.005.044-.027.087-.044.125" transform="rotate(5 -20.357 67.846)"/><path fill="url(#d)" fill-rule="nonzero" d="m2.707 10.168.375-.836q.182-.403.38-.813c.133-.274.265-.543.397-.817a41 41 0 0 1 .86-1.644c.055-.096.105-.193.16-.289l.281-.495a.1.1 0 0 1 .017-.024l-.7-1.211c-.011.014-.022.033-.033.048-.166.23-.326.47-.486.711q-.242.369-.474.745-.198.319-.38.645-.04.064-.072.13-.231.41-.413.793a15 15 0 0 0-.574 1.317c-.05.135-.093.274-.137.409-.105.317-.193.64-.27.956l.7 1.217q.138-.326.286-.659.042-.088.083-.183" transform="rotate(5 -20.357 67.846)"/><path fill="url(#e)" fill-rule="nonzero" d="M1.626 9.842q-.131.583-.182 1.158c0 .015-.053 1.31.05 1.543q-.178.441-.536 1.371l.26-.123q.42-1.07.668-1.675l.077-.188c.005-.02.016-.034.022-.053l.292-.697q.032-.079.072-.163l-.7-1.217c-.017.02-.017.034-.023.044" transform="rotate(5 -20.357 67.846)"/><path fill="url(#f)" fill-rule="nonzero" d="M5.287 5.346c-.022.034-.038.072-.06.11l-.182.333-.204.38c-.034.062-.072.13-.105.196q-.156.297-.32.616-.197.389-.402.812c-.133.27-.265.544-.397.832q-.19.41-.386.842l-.353.793-.017.038c-.115.27-.237.548-.353.832 0 .005-.005.014-.005.02l.568-.054-.033-.004c.678-.073 1.577-.515 2.155-1.058q.404-.375.734-.894c.165-.26.325-.544.474-.861C6.533 8 7.989 4.914 8 4.875q-.022.015-2.707.447c0 .015-.006.02-.006.024" transform="rotate(5 -20.357 67.846)"/><path fill="url(#g)" fill-rule="nonzero" d="M7.283 2.212q-.238.316-.518.726-.018.02-.028.043-.24.353-.507.779-.23.366-.485.788c-.144.245-.298.505-.452.784Q7.976 4.894 8 4.879c.015-.01.59-1.143.75-1.413a8 8 0 0 0 .396-.76c.067-.148.122-.288.155-.408.033-.106.055-.211.077-.308-.695.101-1.544.198-2.095.222" transform="rotate(5 -20.357 67.846)"/></g></svg>