<svg xmlns="http://www.w3.org/2000/svg" width="16" height="16" viewBox="0 0 16 16"><g fill="none" fill-rule="evenodd"><path fill="#40B6E0" fill-opacity=".7" d="M1 16h15V9H1z"/><path fill="#9AA7B0" fill-opacity=".8" d="M7 1 3 5h4z"/><path fill="#9AA7B0" fill-opacity=".8" d="M8 1v5H3v2h10V1z"/><path fill="#231F20" fill-opacity=".7" d="M5 11c-.708 0-1 .54-1 1.5S4.285 14 5 14s1-.554 1-1.5S5.708 11 5 11m0-1c1.207 0 2 1.118 2 2.5S6.206 15 5 15s-2-1.119-2-2.5c0-1.541.793-2.5 2-2.5m4.1 0-1.1.443.157.782L9 11v4h1v-5z"/></g></svg>