<svg xmlns="http://www.w3.org/2000/svg" xml:space="preserve" version="1.0" viewBox="0 0 16 16"><path fill="#9AA7B0" fill-opacity=".7" fill-rule="evenodd" d="M1 16h15V9H1z" clip-rule="evenodd"/><path fill="#9AA7B0" fill-opacity=".8" fill-rule="evenodd" d="M7 1 3 5h4z" clip-rule="evenodd"/><path fill="#9AA7B0" fill-opacity=".8" fill-rule="evenodd" d="M8 1v5H3v2h10V1z" clip-rule="evenodd"/><path fill="#231F20" d="M4.89 13.739H3.422l-.338 1.226H2.14l1.512-4.96h1.02l1.55 4.96h-.994zm-1.27-.823h1.066l-.53-1.902zm4.734 2.154q-.535 0-.88-.136a1.2 1.2 0 0 1-.546-.408 1.65 1.65 0 0 1-.28-.672 5 5 0 0 1-.08-.93v-2.92h.97v2.857q0 .384.037.641.038.258.134.414a.53.53 0 0 0 .255.223q.16.067.409.066.248 0 .405-.066.156-.066.248-.223c.092-.157.105-.242.128-.414s.035-.386.035-.641v-2.857h.97v2.926q0 .516-.08.913a1.7 1.7 0 0 1-.28.669q-.203.273-.552.415-.351.143-.893.143m2.386-.105 1.518-2.585-1.347-2.376h1.104l.823 1.623.849-1.623h1.052l-1.34 2.348 1.512 2.613h-1.103l-.995-1.825-1.002 1.825z" opacity=".7"/></svg>