<svg xmlns="http://www.w3.org/2000/svg" width="16" height="16" viewBox="0 0 16 16"><g fill="none" fill-rule="evenodd"><path fill="#F26522" fill-opacity=".7" d="M1 16h15V9H1z"/><path fill="#9AA7B0" fill-opacity=".8" d="M7 1 3 5h4z"/><path fill="#9AA7B0" fill-opacity=".8" d="M8 1v5H3v2h10V1z"/><path fill="#231F20" fill-opacity=".7" d="M6 10h1v4h2.5v1H6zm-1.804 5.086c-1.098-.192-1.404-.576-1.404-1.188 0-.09.018-.312.018-.414 0-.468-.192-.618-.66-.618h-.156v-.696h.156c.468 0 .66-.15.66-.618 0-.102-.018-.324-.018-.414 0-.612.306-.996 1.404-1.188l.162.606c-.636.18-.732.348-.732.714 0 .12.018.318.018.444 0 .438-.222.672-.624.804.402.132.624.366.624.804 0 .126-.018.324-.018.444 0 .366.096.534.732.714zm6.96 0c1.098-.192 1.404-.576 1.404-1.188 0-.09-.018-.312-.018-.414 0-.468.192-.618.66-.618h.156v-.696h-.156c-.468 0-.66-.15-.66-.618 0-.102.018-.324.018-.414 0-.612-.306-.996-1.404-1.188l-.162.606c.636.18.732.348.732.714 0 .12-.018.318-.018.444 0 .438.222.672.624.804-.402.132-.624.366-.624.804 0 .126.018.324.018.444 0 .366-.096.534-.732.714z"/></g></svg>