<svg xmlns="http://www.w3.org/2000/svg" xmlns:xlink="http://www.w3.org/1999/xlink" width="16" height="16" viewBox="0 0 16 16" fill="none"><g opacity="1"  transform="translate(0 0)  rotate(0)"><mask id="bg-mask-0" fill="white"><use xlink:href="#path_0"></use></mask><g mask="url(#bg-mask-0)" ><g opacity="1"  transform="translate(1 1)  rotate(0)"><path id="路径 1" fill-rule="evenodd" style="fill:#B99BF8" opacity="0.7" d="M15 15L15 8L0 8L0 15L15 15Z"></path><path id="路径 2" fill-rule="evenodd" style="fill:#9AA7B0" opacity="0.8" d="M2 4L6 4L6 0L2 4Z"></path><path id="路径 3" fill-rule="evenodd" style="fill:#9AA7B0" opacity="0.8" d="M7 5L2 5L2 7L12 7L12 0L7 0L7 5Z"></path></g><g opacity="1"  transform="translate(3 10)  rotate(0)"><path id="路径 6" fill-rule="evenodd" style="fill:#231F20" opacity="0.7" d="M0 5L3.5 5L3.5 4L1 4L1 0L0 0L0 5Z"></path></g></g></g><defs><rect id="path_0" x="0" y="0" width="16" height="16" /></defs></svg>