<svg xmlns="http://www.w3.org/2000/svg" width="16" height="16" viewBox="0 0 16 16"><g fill="none" fill-rule="evenodd"><path fill="#9AA7B0" fill-opacity=".8" d="M7 1 3 5h4z"/><path fill="#9AA7B0" fill-opacity=".8" d="M8 15v-.703q-.95-.146-1.45-.923c-.5-.777-.615-1.938-.352-2.886a2.49 2.49 0 0 1 2.384-1.97v-.214a2.08 2.08 0 0 1 .54-1.549c.384-.42.887-.743 1.457-.755.437-.074.916-.033 1.36-.033a5.5 5.5 0 0 1 1.061.11V1H8v5H3v9z"/><path fill="#40A0CF" fill-opacity=".9" fill-rule="nonzero" d="M11.491 6.878q-.527 0-1.047.089c-.928.162-1.097.501-1.097 1.127v.827h2.193v.275H8.524a1.366 1.366 0 0 0-1.37 1.1 4 4 0 0 0 0 2.204c.06.606.558 1.075 1.166 1.1h.754v-.991a1.386 1.386 0 0 1 1.37-1.347h2.19a1.1 1.1 0 0 0 1.096-1.103V8.094a1.22 1.22 0 0 0-1.096-1.127 7 7 0 0 0-1.143-.089m-1.186.665a.413.413 0 1 1 .004.827.413.413 0 0 1-.004-.827"/><path fill="#FFC900" fill-opacity=".9" fill-rule="nonzero" d="M14.004 9.196v.963a1.4 1.4 0 0 1-1.37 1.376h-2.19a1.11 1.11 0 0 0-1.097 1.102v2.065a1.27 1.27 0 0 0 1.097 1.102c.713.22 1.476.22 2.19 0a1.25 1.25 0 0 0 1.096-1.102v-.827h-2.19V13.6h3.286c.638 0 .875-.44 1.097-1.1a3.7 3.7 0 0 0 0-2.204 1.17 1.17 0 0 0-1.097-1.1zm-1.232 5.23a.413.413 0 1 1 .003.827.413.413 0 0 1-.003-.827"/></g></svg>