<svg xmlns="http://www.w3.org/2000/svg" xml:space="preserve" width="21.333" height="21.333" viewBox="0 0 21.333 21.333"><defs><clipPath id="a" clipPathUnits="userSpaceOnUse"><path d="M0 16h16V0H0Z"/></clipPath><clipPath id="b" clipPathUnits="userSpaceOnUse"><path d="M2 16h4v-4H2Z"/></clipPath><clipPath id="c" clipPathUnits="userSpaceOnUse"><path d="M1 7h15V0H1Z"/></clipPath><clipPath id="d" clipPathUnits="userSpaceOnUse"><path d="M2 16h11V8H2Z"/></clipPath><clipPath id="e" clipPathUnits="userSpaceOnUse"><path d="M7.29 6.01H11V1.047H7.29Z"/></clipPath><clipPath id="f" clipPathUnits="userSpaceOnUse"><path d="M2.792 5.969h4.232V1.046H2.792Z"/></clipPath></defs><g clip-path="url(#a)" transform="matrix(1.33333 0 0 -1.33333 0 21.333)"><g clip-path="url(#b)" opacity=".7"><path d="m0 0-4-4h4Z" style="fill:#9aa7b0;fill-opacity:1;fill-rule:nonzero;stroke:none" transform="translate(6 16)"/></g><g clip-path="url(#c)" opacity=".6"><path d="M1 7h15V0H1Z" style="fill:#bd9662;fill-opacity:1;fill-rule:nonzero;stroke:none"/></g><g clip-path="url(#d)" opacity=".7"><path d="M0 0v-5h-5v-3H6v8z" style="fill:#9aa7b0;fill-opacity:1;fill-rule:nonzero;stroke:none" transform="translate(7 16)"/></g><g clip-path="url(#e)" opacity=".6"><path d="M0 0c1-.197 1.2-.396 1.2-.691-.1-.396-.5-.693-.9-.594h-1.5v-.79H.3c.9-.099 1.7.395 1.8 1.284v.198C2.1.198 1.5.593.5.791s-1.2.396-1.2.79c.1.396.4.594.8.594h1.4v.691H.1c-.8.099-1.6-.494-1.7-1.285v-.099C-1.7.593-1 .297 0 0" style="fill:#231f20;fill-opacity:1;fill-rule:nonzero;stroke:none" transform="translate(8.9 3.134)"/></g><g clip-path="url(#f)" opacity=".6"><path d="M0 0h.703q.684 0 .855.061.17.06.266.209.096.145.096.369a.6.6 0 0 1-.127.401.58.58 0 0 1-.357.192 7 7 0 0 1-.694.018H0Zm-.951-2.841v4.923H1.05q.754 0 1.096-.132a1.1 1.1 0 0 0 .548-.472 1.47 1.47 0 0 0 .205-.776q0-.554-.311-.916-.312-.359-.931-.454.308-.19.509-.413.2-.225.541-.799l.575-.961H2.145L1.458-1.77q-.366.574-.501.724a.7.7 0 0 1-.286.204Q.52-.785.193-.785H0v-2.056z" style="fill:#231f20;fill-opacity:1;fill-rule:nonzero;stroke:none" transform="translate(3.743 3.887)"/></g></g></svg>