<svg xmlns="http://www.w3.org/2000/svg" width="16" height="16" viewBox="0 0 16 16"><g fill="none" fill-rule="evenodd"><path fill="#F98B9E" fill-opacity=".7" d="M1 9h15v7H1z"/><path fill="#9AA7B0" fill-opacity=".8" d="M7 1 3 5h4z"/><path fill="#9AA7B0" fill-opacity=".8" d="M8 1v5H3v2h10V1z"/><path fill="#231F20" fill-opacity=".7" d="M2.834 11.502c0-.369.267-.502.747-.502h.99v-1h-.977C2.667 10 2 10.46 2 11.45c0 .865.36 1.24 1.261 1.466.66.165.879.313.879.632 0 .32-.307.452-.879.452H2.257v1h1.004C5 15 5 14 5 13.548c0-.632-.411-1.127-1.15-1.401s-1.016-.277-1.016-.645m7 0c0-.369.267-.502.747-.502h.99v-1h-.977C9.667 10 9 10.46 9 11.45c0 .865.36 1.24 1.261 1.466.66.165.879.313.879.632 0 .32-.307.452-.879.452H9.257v1h1.004C12 15 12 14 12 13.548c0-.632-.411-1.127-1.15-1.401s-1.016-.277-1.016-.645m3 0c0-.369.267-.502.747-.502h.99v-1h-.977c-.927 0-1.594.46-1.594 1.45 0 .865.36 1.24 1.261 1.466.66.165.879.313.879.632 0 .32-.307.452-.879.452h-1.004v1h1.004C15 15 15 14 15 13.548c0-.632-.411-1.127-1.15-1.401s-1.016-.277-1.016-.645M7.52 13l-.523-1.6L6.48 13zm-.833-3h.625L9 15h-.88l-.4-1H6.28l-.4 1H5z"/></g></svg>