<svg xmlns="http://www.w3.org/2000/svg" width="16" height="16" viewBox="0 0 16 16"><g fill="none" fill-rule="evenodd"><path fill="#F4AF3D" fill-opacity=".7" d="M1 16h15V9H1z"/><path fill="#231F20" fill-opacity=".7" d="m11.113 14.458-.545.607-.58-.518c-.407.29-.91.456-1.47.456C7.035 15.003 6 13.878 6 12.519c0-1.373 1.049-2.512 2.532-2.512s2.519 1.125 2.519 2.484a2.5 2.5 0 0 1-.49 1.498zm-2.581-.342c.298 0 .557-.071.784-.201l-.784-.676.562-.635.796.728c.143-.247.17-.49.17-.814v-.013c0-.884-.64-1.611-1.541-1.611S7 11.608 7 12.492v.013c0 .884.631 1.611 1.532 1.611M12 10h1v4h2.5v1H12z"/><path fill="#9AA7B0" fill-opacity=".8" d="M7 1 3 5h4z"/><path fill="#9AA7B0" fill-opacity=".8" d="M8 1v5H3v2h10V1z"/><path fill="#231F20" fill-opacity=".7" d="M2.973 11.502c0-.369.311-.502.872-.502H5v-1H3.86C2.778 10 2 10.46 2 11.45c0 .865.42 1.24 1.471 1.466.77.165 1.025.313 1.025.632 0 .32-.358.452-1.025.452H2.3v1h1.171C5.5 15 5.5 14 5.5 13.548c0-.632-.48-1.127-1.341-1.401-.862-.274-1.186-.277-1.186-.645"/></g></svg>