<?xml version="1.0" encoding="utf-8"?>
<!-- Generator: Adobe Illustrator 26.2.1, SVG Export Plug-In . SVG Version: 6.00 Build 0)  -->
<svg version="1.0" id="Layer_1" xmlns="http://www.w3.org/2000/svg" xmlns:xlink="http://www.w3.org/1999/xlink" x="0px" y="0px"
	 viewBox="0 0 16 16" enable-background="new 0 0 16 16" xml:space="preserve">
<polygon fill-rule="evenodd" clip-rule="evenodd" fill="#F26522" fill-opacity="0.7" points="1,16.0000114 16,16.0000114 
	16,9.0000124 1,9.0000124 "/>
<polygon fill-rule="evenodd" clip-rule="evenodd" fill="#9AA7B0" fill-opacity="0.8" points="7,1.0000122 3,5.0000119 7,5.0000119 
	"/>
<polygon fill-rule="evenodd" clip-rule="evenodd" fill="#9AA7B0" fill-opacity="0.8" points="8,1.0000122 8,6.0000119 3,6.0000119 
	3,8.0000124 13,8.0000124 13,1.0000122 "/>
<g opacity="0.7">
	<path fill="#231F20" d="M3.3706055,15.0344362c-0.234375,0-0.465332-0.0205078-0.6923828-0.0625
		S2.2587891,14.8772097,2.1010742,14.81178l0.1445312-0.8154297c0.1577148,0.046875,0.3295898,0.0898438,0.5166016,0.1289062
		c0.1865234,0.0400391,0.3779297,0.0595703,0.5737305,0.0595703c0.2773438,0,0.4780273-0.0507812,0.6030273-0.1533203
		s0.1879883-0.2714844,0.1879883-0.5087891c0-0.1162109-0.0136719-0.2109375-0.0405273-0.2861328
		c-0.0268555-0.0742188-0.0683594-0.1328125-0.1240234-0.1777344c-0.0561523-0.0439453-0.125-0.0771484-0.2080078-0.1005859
		c-0.0825195-0.0234375-0.1796875-0.0458984-0.2915039-0.0693359l-0.2827148-0.0556641
		c-0.1269531-0.0234375-0.2519531-0.0634766-0.375-0.1191406s-0.2319336-0.1357422-0.3261719-0.2402344
		s-0.1708984-0.2402344-0.2304688-0.4072266c-0.0600586-0.1679688-0.0898438-0.3769531-0.0898438-0.6279297
		c0-1.0029297,0.5385742-1.5048828,1.6162109-1.5048828c0.2192383,0,0.4199219,0.0205078,0.6030273,0.0595703
		c0.1826172,0.0390625,0.3525391,0.0898438,0.5107422,0.1494141l-0.1328125,0.8085938
		c-0.1347656-0.046875-0.2836914-0.0859375-0.4472656-0.1181641c-0.1635742-0.0332031-0.3398438-0.0488281-0.5283203-0.0488281
		c-0.284668,0-0.4882812,0.0449219-0.6113281,0.1357422c-0.1235352,0.0908203-0.1845703,0.2470703-0.1845703,0.4707031
		c0,0.1757812,0.0429688,0.3095703,0.1293945,0.4003906c0.0869141,0.0908203,0.2397461,0.1542969,0.4589844,0.1914062
		l0.2768555,0.0488281c0.1347656,0.0234375,0.2705078,0.0605469,0.4072266,0.1113281
		c0.1362305,0.0517578,0.2592773,0.1289062,0.3691406,0.2333984c0.109375,0.1044922,0.1982422,0.2451172,0.265625,0.421875
		c0.0668945,0.1767578,0.1005859,0.4013672,0.1005859,0.6757812c0,0.5341797-0.1381836,0.9277344-0.4155273,1.1806641
		C4.2998047,14.9084597,3.8979492,15.0344362,3.3706055,15.0344362z"/>
	<path fill="#231F20" d="M9.0429688,10.0041628L8.9453125,10.867444H7.831543v4.0976562H6.9545898V10.867444H5.7426758
		l0.0981445-0.8632812H9.0429688z"/>
	<path fill="#231F20" d="M11.5888672,12.1223269l0.8535156-2.1181641h0.90625l-1.3447266,2.9892578v1.9716797h-0.8769531v-1.9716797
		l-1.3271484-2.9892578h0.9638672L11.5888672,12.1223269z"/>
</g>
</svg>
