<svg xmlns="http://www.w3.org/2000/svg" xml:space="preserve" version="1.0" viewBox="0 0 16 16"><path fill="#F26522" fill-opacity=".7" fill-rule="evenodd" d="M1 16h15V9H1z" clip-rule="evenodd"/><path fill="#9AA7B0" fill-opacity=".8" fill-rule="evenodd" d="M7 1 3 5h4z" clip-rule="evenodd"/><path fill="#9AA7B0" fill-opacity=".8" fill-rule="evenodd" d="M8 1v5H3v2h10V1z" clip-rule="evenodd"/><path fill="#231F20" d="M3.37 15.034q-.351 0-.692-.062c-.34-.062-.42-.095-.577-.16l.145-.816q.236.07.516.13t.574.059q.416 0 .603-.153c.187-.153.188-.272.188-.51a.9.9 0 0 0-.04-.285.4.4 0 0 0-.125-.178.6.6 0 0 0-.208-.1 4 4 0 0 0-.291-.07l-.283-.056q-.19-.035-.375-.119c-.185-.084-.232-.136-.326-.24s-.17-.24-.23-.407a1.9 1.9 0 0 1-.09-.628q0-1.505 1.616-1.505.33 0 .603.06.274.059.51.149l-.132.808a3 3 0 0 0-.447-.118 2.7 2.7 0 0 0-.529-.049q-.426 0-.611.136-.186.136-.185.47 0 .265.13.401t.459.192l.277.049q.201.035.407.11.205.079.369.234.165.157.266.422.1.264.1.676 0 .802-.415 1.18-.416.38-1.206.38m5.672-5.03-.098.863H7.832v4.098h-.877v-4.098H5.743l.098-.863zm2.546 2.118.853-2.118h.907l-1.345 2.99v1.971h-.877v-1.972L9.8 10.004h.964z" opacity=".7"/></svg>