<svg xmlns="http://www.w3.org/2000/svg" width="16" height="16" viewBox="0 0 16 16"><g fill="none" fill-rule="evenodd"><path fill="#9AA7B0" fill-opacity=".8" d="M7 1 3 5h4z"/><path fill="#9AA7B0" fill-opacity=".8" d="M8 1v5H3v2h10V1z"/><path fill="#F26522" fill-opacity=".7" d="M1 16h15V9H1z"/><path fill="#231F20" fill-opacity=".7" d="M3.973 11.502c0-.369.311-.502.872-.502H6v-1H4.86C3.778 10 3 10.46 3 11.45c0 .865.42 1.24 1.471 1.466.77.165 1.025.313 1.025.632 0 .32-.358.452-1.025.452H3.3v1h1.171C6.5 15 6.5 14 6.5 13.548c0-.632-.48-1.127-1.341-1.401-.862-.274-1.186-.277-1.186-.645"/></g></svg>