<svg xmlns="http://www.w3.org/2000/svg" xml:space="preserve" version="1.0" viewBox="0 0 16 16"><path fill="#40B6E0" fill-opacity=".7" fill-rule="evenodd" d="M1 16h15V9H1z" clip-rule="evenodd"/><path fill="#9AA7B0" fill-opacity=".8" fill-rule="evenodd" d="M7 1 3 5h4z" clip-rule="evenodd"/><path fill="#9AA7B0" fill-opacity=".8" fill-rule="evenodd" d="M8 1v5H3v2h10V1z" clip-rule="evenodd"/><path fill="#231F20" d="m5.747 10.004-.12.863H4.284v4.098h-1.06v-4.098H1.761l.118-.863zm3.257 1.036-.106.828H6.854v1.199h1.938l-.1.829H6.855v1.275h2.15l-.106.83h-3.05v-4.962h3.156zm.153 3.926 1.66-2.585-1.471-2.377h1.205l.9 1.624.926-1.624h1.15l-1.464 2.349 1.652 2.613h-1.206l-1.087-1.826-1.094 1.826h-1.17z" opacity=".7"/></svg>