<svg xmlns="http://www.w3.org/2000/svg" xmlns:xlink="http://www.w3.org/1999/xlink" width="16" height="16" viewBox="0 0 16 16"><defs><path id="a" d="M0 0h10v14H0z"/><path id="c" d="M0 0h5v8H0z"/></defs><g fill="none" fill-rule="evenodd" opacity=".9"><g transform="translate(2 1)"><mask id="b" fill="#fff"><use xlink:href="#a"/></mask><path fill="#63BF6A" d="M6.667 13.045c0 .322-.016.639-.034.955h3.33c.017-.316.037-.633.037-.955C10 5.89 6.667 0 0 0c5.556 2 6.667 6.628 6.667 13.045" mask="url(#b)"/></g><path fill="#78DC50" d="M5.266 15H10c-1.198-4.682-4.197-8-9-8 3.805 1.428 4.266 5 4.266 8"/><g transform="translate(10 7)"><mask id="d" fill="#fff"><use xlink:href="#c"/></mask><path fill="#78DC50" d="M2.954 8H0c0-4.366 2-8 3-8s1.624.495 2 2c-.546-.568-1.1-1.141-1.773-.954C2.16 1.341 2.954 5.418 2.954 8" mask="url(#d)"/></g></g></svg>